<ttFont>
    <TTGlyph name="A" xMin="-22" yMin="2" xMax="475" yMax="759">
      <contour>
        <pt x="195" y="175" on="1"/>
        <pt x="154" y="28" on="1"/>
        <pt x="131" y="25" on="0"/>
        <pt x="70" y="17" on="0"/>
        <pt x="10" y="10" on="0"/>
        <pt x="-22" y="6" on="1"/>
        <pt x="19" y="142" on="0"/>
        <pt x="76" y="330" on="0"/>
        <pt x="112" y="451" on="0"/>
        <pt x="147" y="570" on="0"/>
        <pt x="180" y="681" on="0"/>
        <pt x="193" y="727" on="1"/>
        <pt x="378" y="740" on="0"/>
        <pt x="475" y="759" on="1"/>
        <pt x="466" y="660" on="0"/>
        <pt x="460" y="525" on="1"/>
        <pt x="447" y="256" on="0"/>
        <pt x="438" y="29" on="1"/>
        <pt x="408" y="24" on="0"/>
        <pt x="351" y="16" on="0"/>
        <pt x="290" y="6" on="0"/>
        <pt x="265" y="2" on="1"/>
        <pt x="276" y="98" on="0"/>
        <pt x="284" y="175" on="1"/>
      </contour>
      <contour>
        <pt x="219" y="277" on="1"/>
        <pt x="293" y="282" on="1"/>
        <pt x="293" y="288" on="0"/>
        <pt x="296" y="317" on="0"/>
        <pt x="298" y="336" on="1"/>
        <pt x="306" y="443" on="0"/>
        <pt x="315" y="535" on="1"/>
        <pt x="322" y="624" on="1"/>
        <pt x="306" y="623" on="1"/>
      </contour>
    </TTGlyph>
    <TTGlyph name="AE" xMin="-30" yMin="-1" xMax="620" yMax="748">
      <contour>
        <pt x="580" y="624" on="1"/>
        <pt x="552" y="628" on="0"/>
        <pt x="512" y="628" on="1"/>
        <pt x="486" y="444" on="1"/>
        <pt x="511" y="448" on="0"/>
        <pt x="551" y="449" on="0"/>
        <pt x="562" y="450" on="1"/>
        <pt x="558" y="421" on="0"/>
        <pt x="551" y="366" on="0"/>
        <pt x="546" y="337" on="1"/>
        <pt x="535" y="336" on="0"/>
        <pt x="509" y="335" on="0"/>
        <pt x="485" y="333" on="0"/>
        <pt x="472" y="332" on="1"/>
        <pt x="445" y="144" on="1"/>
        <pt x="531" y="151" on="1"/>
        <pt x="521" y="34" on="1"/>
        <pt x="252" y="-1" on="1"/>
        <pt x="252" y="2" on="1"/>
        <pt x="250" y="2" on="1"/>
        <pt x="257" y="36" on="0"/>
        <pt x="269" y="97" on="0"/>
        <pt x="281" y="155" on="0"/>
        <pt x="284" y="175" on="1"/>
        <pt x="209" y="175" on="1"/>
        <pt x="156" y="28" on="1"/>
        <pt x="82" y="18" on="0"/>
        <pt x="6" y="10" on="0"/>
        <pt x="-30" y="6" on="1"/>
        <pt x="109" y="355" on="0"/>
        <pt x="229" y="681" on="0"/>
        <pt x="246" y="727" on="1"/>
        <pt x="296" y="731" on="0"/>
        <pt x="349" y="732" on="1"/>
        <pt x="458" y="734" on="0"/>
        <pt x="513" y="739" on="1"/>
        <pt x="620" y="748" on="1"/>
      </contour>
      <contour>
        <pt x="354" y="623" on="1"/>
        <pt x="321" y="535" on="1"/>
        <pt x="242" y="277" on="1"/>
        <pt x="246" y="278" on="0"/>
        <pt x="264" y="279" on="1"/>
        <pt x="298" y="281" on="0"/>
        <pt x="302" y="282" on="1"/>
        <pt x="304" y="297" on="0"/>
        <pt x="319" y="382" on="1"/>
        <pt x="342" y="504" on="1"/>
        <pt x="358" y="591" on="0"/>
        <pt x="365" y="624" on="1"/>
      </contour>
    </TTGlyph>
    <TTGlyph name="Aacute" xMin="28" yMin="2" xMax="525" yMax="1132">
      <component glyphName="A" x="50" y="0" flags="0x1204"/>
      <component glyphName="acute" x="169" y="772" flags="0x1004"/>
    </TTGlyph>
    <TTGlyph name="Acircumflex" xMin="28" yMin="2" xMax="540" yMax="1051">
      <component glyphName="A" x="50" y="0" flags="0x1204"/>
      <component glyphName="circumflex" x="146" y="772" flags="0x1004"/>
    </TTGlyph>
    <TTGlyph name="Adieresis" xMin="28" yMin="2" xMax="600" yMax="956">
      <component glyphName="A" x="50" y="0" flags="0x1204"/>
      <component glyphName="dieresis" x="-20" y="772" flags="0x1004"/>
    </TTGlyph>
    <TTGlyph name="Agrave" xMin="28" yMin="2" xMax="525" yMax="1102">
      <component glyphName="A" x="50" y="0" flags="0x1204"/>
      <component glyphName="grave" x="102" y="772" flags="0x1004"/>
    </TTGlyph>
    <TTGlyph name="Aring" xMin="28" yMin="2" xMax="525" yMax="1003">
      <component glyphName="A" x="50" y="0" flags="0x1204"/>
      <component glyphName="ring" x="179" y="772" flags="0x1004"/>
    </TTGlyph>
    <TTGlyph name="Atilde" xMin="28" yMin="2" xMax="626" yMax="1005">
      <component glyphName="A" x="50" y="0" flags="0x1204"/>
      <component glyphName="tilde" x="165" y="772" flags="0x1004"/>
    </TTGlyph>
    <TTGlyph name="B" xMin="-1" yMin="-4" xMax="524" yMax="758">
      <contour>
        <pt x="463" y="252" on="1"/>
        <pt x="463" y="215" on="0"/>
        <pt x="428" y="143" on="0"/>
        <pt x="369" y="85" on="0"/>
        <pt x="290" y="41" on="0"/>
        <pt x="246" y="26" on="1"/>
        <pt x="160" y="-4" on="0"/>
        <pt x="70" y="-4" on="1"/>
        <pt x="32" y="-4" on="0"/>
        <pt x="-1" y="2" on="1"/>
        <pt x="48" y="181" on="0"/>
        <pt x="106" y="545" on="0"/>
        <pt x="133" y="729" on="1"/>
        <pt x="273" y="758" on="0"/>
        <pt x="362" y="758" on="1"/>
        <pt x="467" y="758" on="0"/>
        <pt x="508" y="686" on="1"/>
        <pt x="524" y="659" on="0"/>
        <pt x="524" y="580" on="0"/>
        <pt x="499" y="512" on="0"/>
        <pt x="479" y="484" on="1"/>
        <pt x="438" y="428" on="0"/>
        <pt x="381" y="407" on="1"/>
        <pt x="463" y="357" on="0"/>
      </contour>
      <contour>
        <pt x="200" y="203" on="1"/>
        <pt x="291" y="213" on="0"/>
        <pt x="328" y="254" on="1"/>
        <pt x="344" y="272" on="0"/>
        <pt x="344" y="316" on="0"/>
        <pt x="325" y="341" on="0"/>
        <pt x="310" y="349" on="1"/>
        <pt x="280" y="365" on="0"/>
        <pt x="245" y="365" on="1"/>
        <pt x="236" y="365" on="1"/>
        <pt x="232" y="365" on="0"/>
        <pt x="228" y="364" on="1"/>
        <pt x="224" y="339" on="0"/>
        <pt x="217" y="301" on="0"/>
        <pt x="211" y="266" on="0"/>
        <pt x="204" y="228" on="0"/>
      </contour>
      <contour>
        <pt x="252" y="490" on="1"/>
        <pt x="377" y="518" on="0"/>
        <pt x="377" y="559" on="1"/>
        <pt x="377" y="598" on="0"/>
        <pt x="313" y="608" on="1"/>
        <pt x="297" y="611" on="0"/>
        <pt x="285" y="611" on="1"/>
        <pt x="274" y="611" on="1"/>
        <pt x="272" y="600" on="0"/>
        <pt x="267" y="569" on="0"/>
        <pt x="261" y="536" on="0"/>
        <pt x="254" y="503" on="0"/>
      </contour>
    </TTGlyph>
    <TTGlyph name="C" xMin="40" yMin="-2" xMax="523" yMax="749">
      <contour>
        <pt x="231" y="170" on="1"/>
        <pt x="256" y="170" on="0"/>
        <pt x="284" y="201" on="1"/>
        <pt x="312" y="233" on="0"/>
        <pt x="320" y="267" on="1"/>
        <pt x="437" y="220" on="1"/>
        <pt x="392" y="115" on="0"/>
        <pt x="319" y="53" on="1"/>
        <pt x="254" y="-2" on="0"/>
        <pt x="186" y="-2" on="1"/>
        <pt x="122" y="-2" on="0"/>
        <pt x="82" y="56" on="1"/>
        <pt x="40" y="118" on="0"/>
        <pt x="40" y="320" on="0"/>
        <pt x="93" y="508" on="0"/>
        <pt x="189" y="657" on="0"/>
        <pt x="322" y="749" on="0"/>
        <pt x="401" y="749" on="1"/>
        <pt x="452" y="749" on="0"/>
        <pt x="488" y="710" on="1"/>
        <pt x="523" y="670" on="0"/>
        <pt x="523" y="605" on="1"/>
        <pt x="523" y="592" on="1"/>
        <pt x="523" y="586" on="0"/>
        <pt x="522" y="579" on="1"/>
        <pt x="388" y="543" on="1"/>
        <pt x="376" y="568" on="0"/>
        <pt x="343" y="568" on="0"/>
        <pt x="307" y="530" on="0"/>
        <pt x="272" y="470" on="0"/>
        <pt x="240" y="395" on="0"/>
        <pt x="228" y="357" on="1"/>
        <pt x="200" y="273" on="0"/>
        <pt x="200" y="170" on="0"/>
      </contour>
    </TTGlyph>
    <TTGlyph name="Ccedilla" xMin="71" yMin="-169" xMax="572" yMax="749">
      <component glyphName="C" x="49" y="0" flags="0x1004"/>
      <component glyphName="cedilla" x="-20" y="0" flags="0x1004"/>
    </TTGlyph>
    <TTGlyph name="D" xMin="4" yMin="-5" xMax="521" yMax="748">
      <contour>
        <pt x="183" y="124" on="1"/>
        <pt x="253" y="169" on="0"/>
        <pt x="312" y="311" on="1"/>
        <pt x="345" y="390" on="0"/>
        <pt x="367" y="498" on="0"/>
        <pt x="367" y="560" on="0"/>
        <pt x="325" y="603" on="0"/>
        <pt x="280" y="603" on="1"/>
        <pt x="263" y="517" on="0"/>
        <pt x="241" y="418" on="1"/>
        <pt x="204" y="250" on="0"/>
      </contour>
      <contour>
        <pt x="4" y="0" on="1"/>
        <pt x="113" y="549" on="0"/>
        <pt x="137" y="725" on="1"/>
        <pt x="181" y="733" on="0"/>
        <pt x="271" y="748" on="0"/>
        <pt x="374" y="748" on="0"/>
        <pt x="451" y="713" on="0"/>
        <pt x="475" y="682" on="1"/>
        <pt x="521" y="623" on="0"/>
        <pt x="521" y="523" on="1"/>
        <pt x="521" y="413" on="0"/>
        <pt x="463" y="291" on="1"/>
        <pt x="402" y="164" on="0"/>
        <pt x="303" y="84" on="1"/>
        <pt x="190" y="-5" on="0"/>
        <pt x="61" y="-5" on="1"/>
        <pt x="39" y="-5" on="0"/>
      </contour>
    </TTGlyph>
    <TTGlyph name="E" xMin="8" yMin="-1" xMax="466" yMax="755">
      <contour>
        <pt x="8" y="-1" on="1"/>
        <pt x="142" y="727" on="1"/>
        <pt x="466" y="755" on="1"/>
        <pt x="459" y="732" on="0"/>
        <pt x="449" y="689" on="0"/>
        <pt x="439" y="647" on="0"/>
        <pt x="436" y="631" on="1"/>
        <pt x="406" y="628" on="0"/>
        <pt x="354" y="628" on="1"/>
        <pt x="285" y="628" on="1"/>
        <pt x="249" y="444" on="1"/>
        <pt x="304" y="447" on="0"/>
        <pt x="378" y="449" on="0"/>
        <pt x="389" y="450" on="1"/>
        <pt x="385" y="421" on="0"/>
        <pt x="378" y="366" on="0"/>
        <pt x="373" y="337" on="1"/>
        <pt x="362" y="336" on="0"/>
        <pt x="316" y="335" on="0"/>
        <pt x="266" y="333" on="0"/>
        <pt x="235" y="332" on="1"/>
        <pt x="200" y="143" on="1"/>
        <pt x="349" y="167" on="1"/>
        <pt x="339" y="50" on="1"/>
      </contour>
    </TTGlyph>
    <TTGlyph name="Eacute" xMin="58" yMin="-1" xMax="516" yMax="1132">
      <component glyphName="E" x="50" y="0" flags="0x1204"/>
      <component glyphName="acute" x="139" y="772" flags="0x1004"/>
    </TTGlyph>
    <TTGlyph name="Ecircumflex" xMin="58" yMin="-1" xMax="517" yMax="1051">
      <component glyphName="E" x="50" y="0" flags="0x1204"/>
      <component glyphName="circumflex" x="123" y="772" flags="0x1004"/>
    </TTGlyph>
    <TTGlyph name="Edieresis" xMin="58" yMin="-1" xMax="577" yMax="956">
      <component glyphName="E" x="50" y="0" flags="0x1204"/>
      <component glyphName="dieresis" x="-43" y="772" flags="0x1004"/>
    </TTGlyph>
    <TTGlyph name="Egrave" xMin="58" yMin="-1" xMax="516" yMax="1102">
      <component glyphName="E" x="50" y="0" flags="0x1204"/>
      <component glyphName="grave" x="72" y="772" flags="0x1004"/>
    </TTGlyph>
    <TTGlyph name="Eth" xMin="13" yMin="2" xMax="513" yMax="748">
      <contour>
        <pt x="69" y="446" on="1"/>
        <pt x="72" y="445" on="0"/>
        <pt x="76" y="445" on="1"/>
        <pt x="92" y="445" on="1"/>
        <pt x="126" y="631" on="0"/>
        <pt x="139" y="725" on="1"/>
        <pt x="183" y="733" on="0"/>
        <pt x="273" y="748" on="0"/>
        <pt x="373" y="748" on="0"/>
        <pt x="447" y="710" on="0"/>
        <pt x="470" y="676" on="1"/>
        <pt x="513" y="614" on="0"/>
        <pt x="513" y="503" on="1"/>
        <pt x="513" y="391" on="0"/>
        <pt x="466" y="276" on="1"/>
        <pt x="390" y="87" on="0"/>
        <pt x="246" y="24" on="1"/>
        <pt x="196" y="2" on="0"/>
        <pt x="107" y="2" on="0"/>
        <pt x="44" y="21" on="0"/>
        <pt x="13" y="43" on="1"/>
        <pt x="34" y="146" on="0"/>
        <pt x="61" y="278" on="0"/>
        <pt x="72" y="339" on="1"/>
        <pt x="64" y="338" on="0"/>
        <pt x="58" y="338" on="1"/>
        <pt x="35" y="338" on="1"/>
      </contour>
      <contour>
        <pt x="253" y="337" on="1"/>
        <pt x="218" y="338" on="1"/>
        <pt x="208" y="289" on="0"/>
        <pt x="188" y="184" on="0"/>
        <pt x="175" y="124" on="1"/>
        <pt x="246" y="166" on="0"/>
        <pt x="304" y="286" on="1"/>
        <pt x="359" y="403" on="0"/>
        <pt x="359" y="502" on="1"/>
        <pt x="359" y="586" on="0"/>
        <pt x="310" y="614" on="1"/>
        <pt x="294" y="623" on="0"/>
        <pt x="272" y="623" on="1"/>
        <pt x="252" y="527" on="0"/>
        <pt x="237" y="445" on="1"/>
        <pt x="276" y="446" on="1"/>
        <pt x="285" y="446" on="0"/>
        <pt x="293" y="447" on="1"/>
        <pt x="268" y="337" on="1"/>
      </contour>
    </TTGlyph>
    <TTGlyph name="Euro" xMin="44" yMin="1" xMax="559" yMax="753">
      <contour>
        <pt x="44" y="241" on="1"/>
        <pt x="67" y="319" on="0"/>
        <pt x="71" y="344" on="1"/>
        <pt x="106" y="344" on="1"/>
        <pt x="116" y="384" on="1"/>
        <pt x="83" y="384" on="1"/>
        <pt x="76" y="384" on="0"/>
        <pt x="70" y="385" on="1"/>
        <pt x="75" y="403" on="0"/>
        <pt x="85" y="436" on="0"/>
        <pt x="93" y="471" on="0"/>
        <pt x="98" y="486" on="1"/>
        <pt x="151" y="483" on="1"/>
        <pt x="202" y="600" on="0"/>
        <pt x="275" y="673" on="1"/>
        <pt x="355" y="753" on="0"/>
        <pt x="441" y="753" on="1"/>
        <pt x="521" y="753" on="0"/>
        <pt x="548" y="626" on="1"/>
        <pt x="557" y="588" on="0"/>
        <pt x="559" y="544" on="1"/>
        <pt x="440" y="497" on="1"/>
        <pt x="431" y="555" on="0"/>
        <pt x="401" y="555" on="1"/>
        <pt x="353" y="555" on="0"/>
        <pt x="305" y="482" on="1"/>
        <pt x="368" y="482" on="1"/>
        <pt x="362" y="458" on="0"/>
        <pt x="350" y="398" on="0"/>
        <pt x="347" y="385" on="1"/>
        <pt x="336" y="384" on="0"/>
        <pt x="327" y="384" on="1"/>
        <pt x="260" y="384" on="1"/>
        <pt x="256" y="373" on="0"/>
        <pt x="251" y="354" on="0"/>
        <pt x="248" y="344" on="1"/>
        <pt x="292" y="344" on="1"/>
        <pt x="314" y="344" on="0"/>
        <pt x="336" y="343" on="1"/>
        <pt x="326" y="295" on="0"/>
        <pt x="320" y="244" on="1"/>
        <pt x="236" y="243" on="1"/>
        <pt x="240" y="162" on="0"/>
        <pt x="293" y="162" on="1"/>
        <pt x="335" y="162" on="0"/>
        <pt x="370" y="215" on="1"/>
        <pt x="458" y="135" on="1"/>
        <pt x="378" y="1" on="0"/>
        <pt x="269" y="1" on="1"/>
        <pt x="180" y="1" on="0"/>
        <pt x="134" y="66" on="1"/>
        <pt x="93" y="125" on="0"/>
        <pt x="93" y="224" on="1"/>
        <pt x="93" y="241" on="1"/>
      </contour>
    </TTGlyph>
    <TTGlyph name="F" xMin="4" yMin="-1" xMax="481" yMax="754">
      <contour>
        <pt x="389" y="336" on="1"/>
        <pt x="370" y="336" on="0"/>
        <pt x="242" y="340" on="1"/>
        <pt x="195" y="38" on="1"/>
        <pt x="109" y="23" on="0"/>
        <pt x="4" y="-1" on="1"/>
        <pt x="34" y="108" on="0"/>
        <pt x="59" y="252" on="1"/>
        <pt x="106" y="517" on="0"/>
        <pt x="138" y="736" on="1"/>
        <pt x="481" y="754" on="1"/>
        <pt x="452" y="628" on="1"/>
        <pt x="291" y="628" on="1"/>
        <pt x="259" y="445" on="1"/>
        <pt x="291" y="446" on="0"/>
        <pt x="317" y="446" on="1"/>
        <pt x="368" y="446" on="1"/>
        <pt x="392" y="446" on="0"/>
        <pt x="406" y="447" on="1"/>
      </contour>
    </TTGlyph>
    <TTGlyph name="G" xMin="43" yMin="-25" xMax="582" yMax="766">
      <contour>
        <pt x="441" y="562" on="1"/>
        <pt x="424" y="638" on="0"/>
        <pt x="382" y="638" on="1"/>
        <pt x="356" y="638" on="0"/>
        <pt x="295" y="565" on="0"/>
        <pt x="268" y="508" on="1"/>
        <pt x="207" y="375" on="0"/>
        <pt x="203" y="247" on="1"/>
        <pt x="203" y="183" on="0"/>
        <pt x="241" y="129" on="0"/>
        <pt x="291" y="129" on="0"/>
        <pt x="335" y="150" on="0"/>
        <pt x="352" y="168" on="1"/>
        <pt x="392" y="210" on="0"/>
        <pt x="394" y="267" on="1"/>
        <pt x="285" y="251" on="1"/>
        <pt x="304" y="352" on="1"/>
        <pt x="445" y="370" on="0"/>
        <pt x="557" y="390" on="1"/>
        <pt x="550" y="286" on="0"/>
        <pt x="482" y="131" on="0"/>
        <pt x="387" y="27" on="0"/>
        <pt x="277" y="-25" on="0"/>
        <pt x="190" y="-25" on="0"/>
        <pt x="122" y="8" on="0"/>
        <pt x="97" y="42" on="1"/>
        <pt x="43" y="114" on="0"/>
        <pt x="43" y="375" on="0"/>
        <pt x="119" y="571" on="0"/>
        <pt x="234" y="702" on="0"/>
        <pt x="367" y="766" on="0"/>
        <pt x="465" y="766" on="0"/>
        <pt x="525" y="737" on="0"/>
        <pt x="544" y="713" on="1"/>
        <pt x="582" y="667" on="0"/>
        <pt x="582" y="589" on="1"/>
      </contour>
    </TTGlyph>
    <TTGlyph name="H" xMin="9" yMin="-2" xMax="560" yMax="758">
      <contour>
        <pt x="9" y="-2" on="1"/>
        <pt x="98" y="463" on="0"/>
        <pt x="139" y="738" on="1"/>
        <pt x="305" y="750" on="1"/>
        <pt x="265" y="582" on="0"/>
        <pt x="240" y="448" on="1"/>
        <pt x="341" y="460" on="1"/>
        <pt x="355" y="532" on="0"/>
        <pt x="378" y="669" on="0"/>
        <pt x="396" y="741" on="1"/>
        <pt x="436" y="748" on="0"/>
        <pt x="526" y="755" on="0"/>
        <pt x="543" y="756" on="1"/>
        <pt x="560" y="758" on="1"/>
        <pt x="511" y="598" on="0"/>
        <pt x="464" y="309" on="1"/>
        <pt x="441" y="179" on="0"/>
        <pt x="422" y="43" on="1"/>
        <pt x="262" y="25" on="1"/>
        <pt x="275" y="86" on="0"/>
        <pt x="296" y="194" on="0"/>
        <pt x="317" y="300" on="0"/>
        <pt x="324" y="338" on="1"/>
        <pt x="224" y="329" on="1"/>
        <pt x="201" y="202" on="0"/>
        <pt x="167" y="31" on="1"/>
      </contour>
    </TTGlyph>
    <TTGlyph name="I" xMin="-6" yMin="1" xMax="301" yMax="742">
      <contour>
        <pt x="301" y="742" on="1"/>
        <pt x="187" y="162" on="0"/>
        <pt x="162" y="20" on="1"/>
        <pt x="134" y="20" on="0"/>
        <pt x="-4" y="2" on="0"/>
        <pt x="-6" y="1" on="1"/>
        <pt x="26" y="117" on="0"/>
        <pt x="53" y="254" on="1"/>
        <pt x="115" y="567" on="0"/>
        <pt x="141" y="717" on="1"/>
      </contour>
    </TTGlyph>
    <TTGlyph name="Iacute" xMin="44" yMin="1" xMax="416" yMax="1132">
      <component glyphName="I" x="50" y="0" flags="0x1204"/>
      <component glyphName="acute" x="71" y="772" flags="0x1004"/>
    </TTGlyph>
    <TTGlyph name="Icircumflex" xMin="44" yMin="1" xMax="433" yMax="1051">
      <component glyphName="I" x="50" y="0" flags="0x1204"/>
      <component glyphName="circumflex" x="39" y="772" flags="0x1004"/>
    </TTGlyph>
    <TTGlyph name="Idieresis" xMin="44" yMin="1" xMax="510" yMax="956">
      <component glyphName="I" x="50" y="0" flags="0x1204"/>
      <component glyphName="dieresis" x="-110" y="772" flags="0x1004"/>
    </TTGlyph>
    <TTGlyph name="Igrave" xMin="44" yMin="1" xMax="351" yMax="1102">
      <component glyphName="I" x="50" y="0" flags="0x1204"/>
      <component glyphName="grave" x="5" y="772" flags="0x1004"/>
    </TTGlyph>
    <TTGlyph name="J" xMin="-28" yMin="-1" xMax="410" yMax="784">
      <contour>
        <pt x="43" y="211" on="1"/>
        <pt x="48" y="201" on="0"/>
        <pt x="78" y="185" on="0"/>
        <pt x="108" y="185" on="0"/>
        <pt x="127" y="226" on="0"/>
        <pt x="141" y="281" on="0"/>
        <pt x="149" y="338" on="0"/>
        <pt x="171" y="455" on="0"/>
        <pt x="206" y="652" on="0"/>
        <pt x="229" y="751" on="1"/>
        <pt x="314" y="758" on="0"/>
        <pt x="410" y="784" on="1"/>
        <pt x="380" y="685" on="0"/>
        <pt x="355" y="573" on="1"/>
        <pt x="309" y="356" on="0"/>
        <pt x="284" y="227" on="0"/>
        <pt x="257" y="130" on="0"/>
        <pt x="235" y="90" on="1"/>
        <pt x="184" y="-1" on="0"/>
        <pt x="108" y="-1" on="1"/>
        <pt x="46" y="-1" on="0"/>
        <pt x="-28" y="53" on="1"/>
      </contour>
    </TTGlyph>
    <TTGlyph name="K" xMin="7" yMin="-1" xMax="617" yMax="765">
      <contour>
        <pt x="495" y="30" on="1"/>
        <pt x="447" y="32" on="0"/>
        <pt x="342" y="32" on="0"/>
        <pt x="284" y="30" on="1"/>
        <pt x="264" y="159" on="0"/>
        <pt x="244" y="309" on="1"/>
        <pt x="225" y="288" on="1"/>
        <pt x="218" y="257" on="0"/>
        <pt x="201" y="167" on="0"/>
        <pt x="183" y="76" on="0"/>
        <pt x="173" y="24" on="1"/>
        <pt x="7" y="-1" on="1"/>
        <pt x="115" y="499" on="0"/>
        <pt x="136" y="747" on="1"/>
        <pt x="160" y="744" on="0"/>
        <pt x="219" y="741" on="0"/>
        <pt x="275" y="737" on="0"/>
        <pt x="306" y="737" on="1"/>
        <pt x="305" y="733" on="0"/>
        <pt x="301" y="711" on="0"/>
        <pt x="295" y="679" on="0"/>
        <pt x="288" y="640" on="0"/>
        <pt x="275" y="575" on="0"/>
        <pt x="265" y="519" on="1"/>
        <pt x="271" y="520" on="1"/>
        <pt x="299" y="563" on="0"/>
        <pt x="329" y="611" on="1"/>
        <pt x="389" y="706" on="0"/>
        <pt x="413" y="742" on="1"/>
        <pt x="528" y="751" on="0"/>
        <pt x="617" y="765" on="1"/>
        <pt x="443" y="529" on="0"/>
        <pt x="379" y="426" on="1"/>
        <pt x="401" y="323" on="0"/>
        <pt x="463" y="130" on="0"/>
      </contour>
    </TTGlyph>
    <TTGlyph name="L" xMin="12" yMin="-2" xMax="323" yMax="754">
      <contour>
        <pt x="194" y="144" on="1"/>
        <pt x="232" y="147" on="0"/>
        <pt x="300" y="147" on="1"/>
        <pt x="302" y="108" on="0"/>
        <pt x="310" y="59" on="0"/>
        <pt x="313" y="36" on="0"/>
        <pt x="314" y="32" on="1"/>
        <pt x="283" y="33" on="1"/>
        <pt x="178" y="33" on="0"/>
        <pt x="74" y="14" on="1"/>
        <pt x="40" y="7" on="0"/>
        <pt x="12" y="-2" on="1"/>
        <pt x="36" y="183" on="0"/>
        <pt x="115" y="591" on="0"/>
        <pt x="143" y="730" on="1"/>
        <pt x="323" y="754" on="1"/>
        <pt x="230" y="360" on="0"/>
        <pt x="199" y="180" on="0"/>
      </contour>
    </TTGlyph>
    <TTGlyph name="Lslash" xMin="18" yMin="-2" xMax="377" yMax="754">
      <contour>
        <pt x="200" y="144" on="1"/>
        <pt x="238" y="147" on="0"/>
        <pt x="306" y="147" on="1"/>
        <pt x="308" y="108" on="0"/>
        <pt x="316" y="59" on="0"/>
        <pt x="319" y="36" on="0"/>
        <pt x="320" y="32" on="1"/>
        <pt x="289" y="33" on="1"/>
        <pt x="184" y="33" on="0"/>
        <pt x="80" y="14" on="1"/>
        <pt x="46" y="7" on="0"/>
        <pt x="18" y="-2" on="1"/>
        <pt x="36" y="142" on="0"/>
        <pt x="73" y="341" on="1"/>
        <pt x="64" y="337" on="0"/>
        <pt x="48" y="332" on="0"/>
        <pt x="36" y="327" on="0"/>
        <pt x="31" y="325" on="1"/>
        <pt x="42" y="452" on="1"/>
        <pt x="68" y="459" on="0"/>
        <pt x="97" y="469" on="1"/>
        <pt x="108" y="524" on="0"/>
        <pt x="125" y="619" on="0"/>
        <pt x="141" y="695" on="0"/>
        <pt x="149" y="730" on="1"/>
        <pt x="329" y="754" on="1"/>
        <pt x="322" y="724" on="0"/>
        <pt x="305" y="659" on="0"/>
        <pt x="287" y="578" on="0"/>
        <pt x="276" y="531" on="1"/>
        <pt x="293" y="537" on="0"/>
        <pt x="328" y="550" on="0"/>
        <pt x="359" y="561" on="0"/>
        <pt x="374" y="568" on="1"/>
        <pt x="377" y="445" on="1"/>
        <pt x="248" y="402" on="1"/>
        <pt x="211" y="225" on="0"/>
      </contour>
    </TTGlyph>
    <TTGlyph name="M" xMin="-31" yMin="6" xMax="704" yMax="773">
      <contour>
        <pt x="363" y="358" on="1"/>
        <pt x="478" y="667" on="0"/>
        <pt x="515" y="745" on="1"/>
        <pt x="566" y="751" on="0"/>
        <pt x="631" y="761" on="0"/>
        <pt x="677" y="768" on="0"/>
        <pt x="704" y="773" on="1"/>
        <pt x="655" y="483" on="0"/>
        <pt x="622" y="42" on="1"/>
        <pt x="443" y="10" on="1"/>
        <pt x="443" y="46" on="0"/>
        <pt x="452" y="126" on="1"/>
        <pt x="466" y="246" on="1"/>
        <pt x="476" y="337" on="0"/>
        <pt x="485" y="387" on="1"/>
        <pt x="476" y="387" on="1"/>
        <pt x="462" y="344" on="0"/>
        <pt x="427" y="249" on="0"/>
        <pt x="391" y="151" on="0"/>
        <pt x="356" y="56" on="0"/>
        <pt x="343" y="13" on="1"/>
        <pt x="307" y="12" on="0"/>
        <pt x="282" y="10" on="1"/>
        <pt x="222" y="7" on="1"/>
        <pt x="255" y="387" on="1"/>
        <pt x="240" y="387" on="1"/>
        <pt x="238" y="374" on="0"/>
        <pt x="221" y="311" on="0"/>
        <pt x="200" y="230" on="0"/>
        <pt x="175" y="143" on="0"/>
        <pt x="164" y="106" on="1"/>
        <pt x="146" y="42" on="0"/>
        <pt x="138" y="17" on="1"/>
        <pt x="-31" y="6" on="1"/>
        <pt x="132" y="498" on="0"/>
        <pt x="190" y="726" on="1"/>
        <pt x="247" y="726" on="0"/>
        <pt x="347" y="738" on="0"/>
        <pt x="405" y="743" on="1"/>
        <pt x="402" y="721" on="0"/>
        <pt x="395" y="665" on="0"/>
        <pt x="386" y="603" on="0"/>
        <pt x="376" y="538" on="0"/>
        <pt x="361" y="435" on="0"/>
        <pt x="349" y="358" on="1"/>
      </contour>
    </TTGlyph>
    <TTGlyph name="N" xMin="6" yMin="-5" xMax="571" yMax="768">
      <contour>
        <pt x="435" y="56" on="1"/>
        <pt x="423" y="56" on="0"/>
        <pt x="282" y="22" on="0"/>
        <pt x="268" y="17" on="1"/>
        <pt x="257" y="151" on="0"/>
        <pt x="242" y="274" on="0"/>
        <pt x="238" y="305" on="1"/>
        <pt x="234" y="348" on="0"/>
        <pt x="224" y="409" on="1"/>
        <pt x="221" y="390" on="0"/>
        <pt x="211" y="337" on="0"/>
        <pt x="206" y="306" on="1"/>
        <pt x="190" y="210" on="0"/>
        <pt x="156" y="30" on="1"/>
        <pt x="6" y="-5" on="1"/>
        <pt x="117" y="548" on="0"/>
        <pt x="138" y="742" on="1"/>
        <pt x="170" y="744" on="0"/>
        <pt x="226" y="749" on="0"/>
        <pt x="282" y="752" on="0"/>
        <pt x="303" y="754" on="1"/>
        <pt x="316" y="675" on="0"/>
        <pt x="332" y="572" on="0"/>
        <pt x="343" y="506" on="0"/>
        <pt x="348" y="475" on="1"/>
        <pt x="358" y="414" on="0"/>
        <pt x="369" y="367" on="1"/>
        <pt x="373" y="388" on="0"/>
        <pt x="383" y="444" on="0"/>
        <pt x="395" y="507" on="0"/>
        <pt x="409" y="572" on="0"/>
        <pt x="430" y="675" on="0"/>
        <pt x="446" y="753" on="1"/>
        <pt x="571" y="768" on="1"/>
        <pt x="461" y="269" on="0"/>
      </contour>
    </TTGlyph>
    <TTGlyph name="Ntilde" xMin="56" yMin="-5" xMax="639" yMax="1005">
      <component glyphName="N" x="50" y="0" flags="0x1204"/>
      <component glyphName="tilde" x="178" y="772" flags="0x1004"/>
    </TTGlyph>
    <TTGlyph name="O" xMin="32" yMin="-4" xMax="573" yMax="766">
      <contour>
        <pt x="431" y="468" on="1"/>
        <pt x="431" y="551" on="0"/>
        <pt x="383" y="551" on="1"/>
        <pt x="322" y="551" on="0"/>
        <pt x="273" y="491" on="1"/>
        <pt x="234" y="443" on="0"/>
        <pt x="206" y="360" on="1"/>
        <pt x="184" y="292" on="0"/>
        <pt x="184" y="232" on="1"/>
        <pt x="184" y="192" on="0"/>
        <pt x="218" y="172" on="1"/>
        <pt x="228" y="165" on="0"/>
        <pt x="241" y="165" on="1"/>
        <pt x="287" y="165" on="0"/>
        <pt x="358" y="228" on="0"/>
        <pt x="406" y="320" on="0"/>
        <pt x="431" y="425" on="0"/>
      </contour>
      <contour>
        <pt x="573" y="531" on="1"/>
        <pt x="573" y="470" on="0"/>
        <pt x="538" y="322" on="0"/>
        <pt x="478" y="198" on="0"/>
        <pt x="399" y="100" on="0"/>
        <pt x="356" y="66" on="1"/>
        <pt x="267" y="-4" on="0"/>
        <pt x="185" y="-4" on="1"/>
        <pt x="116" y="-4" on="0"/>
        <pt x="76" y="46" on="1"/>
        <pt x="32" y="101" on="0"/>
        <pt x="32" y="206" on="1"/>
        <pt x="32" y="320" on="0"/>
        <pt x="85" y="452" on="1"/>
        <pt x="138" y="584" on="0"/>
        <pt x="224" y="672" on="1"/>
        <pt x="317" y="766" on="0"/>
        <pt x="419" y="766" on="1"/>
        <pt x="503" y="766" on="0"/>
        <pt x="542" y="698" on="1"/>
        <pt x="573" y="643" on="0"/>
      </contour>
    </TTGlyph>
    <TTGlyph name="OE" xMin="36" yMin="10" xMax="691" yMax="757">
      <contour>
        <pt x="580" y="338" on="1"/>
        <pt x="548" y="338" on="0"/>
        <pt x="484" y="342" on="1"/>
        <pt x="449" y="153" on="1"/>
        <pt x="574" y="169" on="1"/>
        <pt x="564" y="52" on="1"/>
        <pt x="264" y="10" on="1"/>
        <pt x="254" y="10" on="1"/>
        <pt x="144" y="10" on="0"/>
        <pt x="86" y="77" on="1"/>
        <pt x="36" y="136" on="0"/>
        <pt x="36" y="344" on="0"/>
        <pt x="86" y="456" on="1"/>
        <pt x="164" y="635" on="0"/>
        <pt x="302" y="708" on="1"/>
        <pt x="348" y="733" on="0"/>
        <pt x="398" y="737" on="1"/>
        <pt x="691" y="757" on="1"/>
        <pt x="673" y="699" on="0"/>
        <pt x="661" y="633" on="1"/>
        <pt x="649" y="633" on="1"/>
        <pt x="649" y="633" on="0"/>
        <pt x="534" y="638" on="1"/>
        <pt x="498" y="454" on="1"/>
        <pt x="516" y="453" on="0"/>
        <pt x="549" y="452" on="0"/>
        <pt x="566" y="452" on="1"/>
        <pt x="614" y="452" on="1"/>
        <pt x="600" y="351" on="0"/>
        <pt x="598" y="339" on="1"/>
      </contour>
      <contour>
        <pt x="365" y="559" on="1"/>
        <pt x="332" y="554" on="0"/>
        <pt x="267" y="496" on="0"/>
        <pt x="214" y="413" on="0"/>
        <pt x="182" y="317" on="0"/>
        <pt x="182" y="233" on="0"/>
        <pt x="226" y="175" on="0"/>
        <pt x="276" y="175" on="1"/>
        <pt x="285" y="175" on="1"/>
        <pt x="289" y="175" on="0"/>
        <pt x="294" y="176" on="1"/>
      </contour>
    </TTGlyph>
    <TTGlyph name="Oacute" xMin="82" yMin="-4" xMax="661" yMax="1132">
      <component glyphName="O" x="50" y="0" flags="0x1204"/>
      <component glyphName="acute" x="316" y="772" flags="0x1004"/>
    </TTGlyph>
    <TTGlyph name="Ocircumflex" xMin="82" yMin="-4" xMax="643" yMax="1051">
      <component glyphName="O" x="50" y="0" flags="0x1204"/>
      <component glyphName="circumflex" x="249" y="772" flags="0x1004"/>
    </TTGlyph>
    <TTGlyph name="Odieresis" xMin="82" yMin="-4" xMax="701" yMax="956">
      <component glyphName="O" x="50" y="0" flags="0x1204"/>
      <component glyphName="dieresis" x="81" y="772" flags="0x1004"/>
    </TTGlyph>
    <TTGlyph name="Ograve" xMin="82" yMin="-4" xMax="623" yMax="1102">
      <component glyphName="O" x="50" y="0" flags="0x1204"/>
      <component glyphName="grave" x="249" y="772" flags="0x1004"/>
    </TTGlyph>
    <TTGlyph name="Oslash" xMin="-1" yMin="-8" xMax="638" yMax="766">
      <contour>
        <pt x="419" y="766" on="1"/>
        <pt x="492" y="766" on="0"/>
        <pt x="532" y="713" on="1"/>
        <pt x="568" y="760" on="1"/>
        <pt x="621" y="721" on="1"/>
        <pt x="638" y="741" on="1"/>
        <pt x="563" y="645" on="1"/>
        <pt x="573" y="601" on="0"/>
        <pt x="573" y="470" on="0"/>
        <pt x="538" y="322" on="0"/>
        <pt x="478" y="198" on="0"/>
        <pt x="399" y="100" on="0"/>
        <pt x="356" y="66" on="1"/>
        <pt x="267" y="-4" on="0"/>
        <pt x="185" y="-4" on="1"/>
        <pt x="124" y="-4" on="0"/>
        <pt x="84" y="36" on="1"/>
        <pt x="50" y="-8" on="1"/>
        <pt x="-1" y="41" on="1"/>
        <pt x="48" y="98" on="1"/>
        <pt x="32" y="144" on="0"/>
        <pt x="32" y="263" on="0"/>
        <pt x="60" y="390" on="0"/>
        <pt x="110" y="515" on="0"/>
        <pt x="181" y="628" on="0"/>
        <pt x="224" y="672" on="1"/>
        <pt x="317" y="766" on="0"/>
      </contour>
      <contour>
        <pt x="201" y="185" on="1"/>
        <pt x="227" y="172" on="0"/>
        <pt x="282" y="172" on="0"/>
        <pt x="334" y="203" on="0"/>
        <pt x="378" y="252" on="0"/>
        <pt x="412" y="316" on="0"/>
        <pt x="424" y="348" on="1"/>
        <pt x="450" y="415" on="0"/>
        <pt x="450" y="468" on="1"/>
        <pt x="450" y="484" on="0"/>
        <pt x="447" y="496" on="1"/>
      </contour>
      <contour>
        <pt x="423" y="546" on="1"/>
        <pt x="397" y="590" on="0"/>
        <pt x="330" y="590" on="0"/>
        <pt x="265" y="529" on="0"/>
        <pt x="211" y="436" on="0"/>
        <pt x="177" y="326" on="0"/>
        <pt x="177" y="278" on="1"/>
        <pt x="177" y="264" on="0"/>
        <pt x="179" y="252" on="1"/>
      </contour>
    </TTGlyph>
    <TTGlyph name="Otilde" xMin="82" yMin="-4" xMax="729" yMax="1005">
      <component glyphName="O" x="50" y="0" flags="0x1204"/>
      <component glyphName="tilde" x="268" y="772" flags="0x1004"/>
    </TTGlyph>
    <TTGlyph name="P" xMin="-3" yMin="-1" xMax="479" yMax="756">
      <contour>
        <pt x="-3" y="-1" on="1"/>
        <pt x="102" y="466" on="0"/>
        <pt x="141" y="723" on="1"/>
        <pt x="251" y="756" on="0"/>
        <pt x="361" y="756" on="0"/>
        <pt x="424" y="725" on="0"/>
        <pt x="444" y="699" on="1"/>
        <pt x="479" y="652" on="0"/>
        <pt x="479" y="563" on="1"/>
        <pt x="479" y="506" on="0"/>
        <pt x="437" y="399" on="0"/>
        <pt x="367" y="316" on="0"/>
        <pt x="275" y="267" on="0"/>
        <pt x="226" y="267" on="1"/>
        <pt x="215" y="267" on="1"/>
        <pt x="196" y="183" on="0"/>
        <pt x="174" y="34" on="1"/>
      </contour>
      <contour>
        <pt x="283" y="632" on="1"/>
        <pt x="257" y="487" on="0"/>
        <pt x="236" y="375" on="1"/>
        <pt x="272" y="384" on="0"/>
        <pt x="303" y="433" on="1"/>
        <pt x="337" y="487" on="0"/>
        <pt x="337" y="555" on="1"/>
        <pt x="337" y="593" on="0"/>
        <pt x="303" y="632" on="0"/>
      </contour>
    </TTGlyph>
    <TTGlyph name="Q" xMin="32" yMin="-49" xMax="583" yMax="766">
      <contour>
        <pt x="372" y="78" on="1"/>
        <pt x="276" y="-4" on="0"/>
        <pt x="185" y="-4" on="1"/>
        <pt x="116" y="-4" on="0"/>
        <pt x="76" y="46" on="1"/>
        <pt x="32" y="101" on="0"/>
        <pt x="32" y="206" on="1"/>
        <pt x="32" y="320" on="0"/>
        <pt x="85" y="452" on="1"/>
        <pt x="138" y="584" on="0"/>
        <pt x="224" y="672" on="1"/>
        <pt x="317" y="766" on="0"/>
        <pt x="419" y="766" on="1"/>
        <pt x="503" y="766" on="0"/>
        <pt x="542" y="698" on="1"/>
        <pt x="573" y="643" on="0"/>
        <pt x="573" y="554" on="1"/>
        <pt x="573" y="370" on="0"/>
        <pt x="485" y="217" on="1"/>
        <pt x="583" y="102" on="1"/>
        <pt x="560" y="73" on="0"/>
        <pt x="540" y="47" on="1"/>
        <pt x="496" y="-9" on="0"/>
        <pt x="462" y="-49" on="1"/>
        <pt x="441" y="-20" on="0"/>
        <pt x="419" y="10" on="1"/>
        <pt x="393" y="44" on="0"/>
      </contour>
      <contour>
        <pt x="401" y="316" on="1"/>
        <pt x="431" y="397" on="0"/>
        <pt x="431" y="551" on="0"/>
        <pt x="383" y="551" on="1"/>
        <pt x="322" y="551" on="0"/>
        <pt x="273" y="491" on="1"/>
        <pt x="234" y="443" on="0"/>
        <pt x="206" y="360" on="1"/>
        <pt x="184" y="292" on="0"/>
        <pt x="184" y="232" on="1"/>
        <pt x="184" y="192" on="0"/>
        <pt x="218" y="172" on="1"/>
        <pt x="228" y="165" on="0"/>
        <pt x="241" y="165" on="1"/>
        <pt x="276" y="165" on="0"/>
        <pt x="306" y="184" on="1"/>
        <pt x="265" y="252" on="1"/>
        <pt x="368" y="331" on="0"/>
        <pt x="379" y="342" on="1"/>
      </contour>
    </TTGlyph>
    <TTGlyph name="R" xMin="4" yMin="-1" xMax="525" yMax="749">
      <contour>
        <pt x="312" y="16" on="1"/>
        <pt x="235" y="288" on="0"/>
        <pt x="232" y="325" on="1"/>
        <pt x="219" y="321" on="1"/>
        <pt x="186" y="137" on="0"/>
        <pt x="170" y="42" on="1"/>
        <pt x="4" y="-1" on="1"/>
        <pt x="108" y="502" on="0"/>
        <pt x="131" y="713" on="1"/>
        <pt x="247" y="749" on="0"/>
        <pt x="391" y="749" on="1"/>
        <pt x="499" y="749" on="0"/>
        <pt x="519" y="674" on="1"/>
        <pt x="525" y="651" on="0"/>
        <pt x="525" y="583" on="0"/>
        <pt x="497" y="504" on="0"/>
        <pt x="473" y="468" on="1"/>
        <pt x="423" y="395" on="0"/>
        <pt x="350" y="356" on="1"/>
        <pt x="389" y="272" on="0"/>
        <pt x="450" y="123" on="0"/>
        <pt x="471" y="72" on="1"/>
      </contour>
      <contour>
        <pt x="322" y="607" on="1"/>
        <pt x="278" y="606" on="1"/>
        <pt x="245" y="443" on="1"/>
        <pt x="285" y="447" on="0"/>
        <pt x="346" y="494" on="1"/>
        <pt x="409" y="542" on="0"/>
        <pt x="409" y="573" on="1"/>
        <pt x="409" y="602" on="0"/>
        <pt x="354" y="606" on="1"/>
        <pt x="338" y="607" on="0"/>
      </contour>
    </TTGlyph>
    <TTGlyph name="S" xMin="14" yMin="-2" xMax="529" yMax="748">
      <contour>
        <pt x="374" y="523" on="1"/>
        <pt x="379" y="543" on="0"/>
        <pt x="379" y="587" on="0"/>
        <pt x="357" y="614" on="0"/>
        <pt x="332" y="614" on="0"/>
        <pt x="308" y="602" on="0"/>
        <pt x="296" y="592" on="1"/>
        <pt x="268" y="569" on="0"/>
        <pt x="268" y="516" on="0"/>
        <pt x="296" y="483" on="0"/>
        <pt x="337" y="455" on="0"/>
        <pt x="385" y="425" on="0"/>
        <pt x="406" y="402" on="1"/>
        <pt x="454" y="346" on="0"/>
        <pt x="454" y="253" on="1"/>
        <pt x="454" y="141" on="0"/>
        <pt x="372" y="68" on="1"/>
        <pt x="294" y="-2" on="0"/>
        <pt x="175" y="-2" on="1"/>
        <pt x="87" y="-2" on="0"/>
        <pt x="14" y="90" on="1"/>
        <pt x="90" y="239" on="1"/>
        <pt x="104" y="211" on="0"/>
        <pt x="144" y="188" on="1"/>
        <pt x="184" y="164" on="0"/>
        <pt x="224" y="164" on="0"/>
        <pt x="251" y="172" on="0"/>
        <pt x="262" y="180" on="1"/>
        <pt x="287" y="198" on="0"/>
        <pt x="287" y="249" on="0"/>
        <pt x="255" y="291" on="0"/>
        <pt x="208" y="329" on="0"/>
        <pt x="153" y="368" on="0"/>
        <pt x="130" y="390" on="1"/>
        <pt x="74" y="440" on="0"/>
        <pt x="74" y="550" on="0"/>
        <pt x="137" y="642" on="0"/>
        <pt x="232" y="709" on="0"/>
        <pt x="345" y="748" on="0"/>
        <pt x="423" y="748" on="0"/>
        <pt x="472" y="734" on="0"/>
        <pt x="490" y="720" on="1"/>
        <pt x="529" y="688" on="0"/>
        <pt x="529" y="626" on="1"/>
        <pt x="529" y="611" on="0"/>
        <pt x="524" y="583" on="0"/>
        <pt x="522" y="566" on="1"/>
      </contour>
    </TTGlyph>
    <TTGlyph name="Scaron" xMin="64" yMin="-2" xMax="623" yMax="1053">
      <component glyphName="S" x="50" y="0" flags="0x1204"/>
      <component glyphName="caron" x="184" y="772" flags="0x1004"/>
    </TTGlyph>
    <TTGlyph name="T" xMin="92" yMin="-1" xMax="488" yMax="746">
      <contour>
        <pt x="105" y="602" on="1"/>
        <pt x="110" y="733" on="1"/>
        <pt x="162" y="729" on="0"/>
        <pt x="215" y="729" on="1"/>
        <pt x="355" y="729" on="0"/>
        <pt x="488" y="746" on="1"/>
        <pt x="477" y="691" on="1"/>
        <pt x="472" y="668" on="0"/>
        <pt x="463" y="619" on="0"/>
        <pt x="459" y="601" on="1"/>
        <pt x="436" y="595" on="0"/>
        <pt x="390" y="590" on="0"/>
        <pt x="368" y="586" on="1"/>
        <pt x="350" y="509" on="0"/>
        <pt x="332" y="395" on="1"/>
        <pt x="292" y="143" on="0"/>
        <pt x="276" y="28" on="1"/>
        <pt x="92" y="-1" on="1"/>
        <pt x="173" y="379" on="0"/>
        <pt x="201" y="594" on="1"/>
        <pt x="177" y="597" on="0"/>
        <pt x="129" y="595" on="0"/>
      </contour>
    </TTGlyph>
    <TTGlyph name="Thorn" xMin="1" yMin="-1" xMax="467" yMax="766">
      <contour>
        <pt x="1" y="-1" on="1"/>
        <pt x="105" y="486" on="0"/>
        <pt x="145" y="748" on="1"/>
        <pt x="188" y="753" on="0"/>
        <pt x="255" y="760" on="0"/>
        <pt x="309" y="766" on="0"/>
        <pt x="315" y="766" on="1"/>
        <pt x="294" y="664" on="1"/>
        <pt x="383" y="664" on="0"/>
        <pt x="428" y="605" on="1"/>
        <pt x="467" y="553" on="0"/>
        <pt x="467" y="466" on="1"/>
        <pt x="467" y="353" on="0"/>
        <pt x="388" y="264" on="1"/>
        <pt x="353" y="223" on="0"/>
        <pt x="262" y="175" on="0"/>
        <pt x="214" y="175" on="1"/>
        <pt x="203" y="175" on="1"/>
        <pt x="181" y="79" on="0"/>
        <pt x="178" y="34" on="1"/>
      </contour>
      <contour>
        <pt x="271" y="540" on="1"/>
        <pt x="245" y="395" on="0"/>
        <pt x="224" y="283" on="1"/>
        <pt x="260" y="292" on="0"/>
        <pt x="291" y="341" on="1"/>
        <pt x="325" y="395" on="0"/>
        <pt x="325" y="463" on="1"/>
        <pt x="325" y="501" on="0"/>
        <pt x="291" y="540" on="0"/>
      </contour>
    </TTGlyph>
    <TTGlyph name="U" xMin="32" yMin="-18" xMax="531" yMax="744">
      <contour>
        <pt x="136" y="728" on="1"/>
        <pt x="158" y="730" on="0"/>
        <pt x="217" y="736" on="0"/>
        <pt x="274" y="741" on="0"/>
        <pt x="305" y="744" on="1"/>
        <pt x="279" y="621" on="0"/>
        <pt x="249" y="477" on="0"/>
        <pt x="231" y="391" on="0"/>
        <pt x="224" y="355" on="1"/>
        <pt x="208" y="279" on="0"/>
        <pt x="203" y="256" on="1"/>
        <pt x="188" y="187" on="0"/>
        <pt x="188" y="147" on="0"/>
        <pt x="205" y="126" on="0"/>
        <pt x="234" y="126" on="0"/>
        <pt x="257" y="154" on="0"/>
        <pt x="272" y="192" on="0"/>
        <pt x="280" y="232" on="0"/>
        <pt x="289" y="273" on="0"/>
        <pt x="304" y="346" on="0"/>
        <pt x="319" y="425" on="0"/>
        <pt x="327" y="466" on="1"/>
        <pt x="348" y="571" on="0"/>
        <pt x="376" y="732" on="1"/>
        <pt x="531" y="742" on="1"/>
        <pt x="526" y="716" on="1"/>
        <pt x="514" y="653" on="0"/>
        <pt x="485" y="488" on="0"/>
        <pt x="473" y="428" on="1"/>
        <pt x="442" y="272" on="0"/>
        <pt x="412" y="141" on="0"/>
        <pt x="359" y="59" on="0"/>
        <pt x="324" y="32" on="1"/>
        <pt x="257" y="-18" on="0"/>
        <pt x="169" y="-18" on="1"/>
        <pt x="115" y="-18" on="0"/>
        <pt x="76" y="12" on="1"/>
        <pt x="32" y="48" on="0"/>
        <pt x="32" y="107" on="1"/>
        <pt x="32" y="111" on="0"/>
        <pt x="32" y="119" on="0"/>
        <pt x="37" y="165" on="0"/>
        <pt x="55" y="284" on="0"/>
        <pt x="76" y="413" on="0"/>
        <pt x="100" y="543" on="0"/>
        <pt x="110" y="596" on="1"/>
        <pt x="132" y="710" on="0"/>
      </contour>
    </TTGlyph>
    <TTGlyph name="Uacute" xMin="82" yMin="-18" xMax="593" yMax="1133">
      <component glyphName="U" x="50" y="0" flags="0x1204"/>
      <component glyphName="acute" x="248" y="773" flags="0x1004"/>
    </TTGlyph>
    <TTGlyph name="Ucircumflex" xMin="82" yMin="-18" xMax="581" yMax="1052">
      <component glyphName="U" x="50" y="0" flags="0x1204"/>
      <component glyphName="circumflex" x="181" y="773" flags="0x1004"/>
    </TTGlyph>
    <TTGlyph name="Udieresis" xMin="82" yMin="-18" xMax="634" yMax="957">
      <component glyphName="U" x="50" y="0" flags="0x1204"/>
      <component glyphName="dieresis" x="14" y="773" flags="0x1004"/>
    </TTGlyph>
    <TTGlyph name="Ugrave" xMin="82" yMin="-18" xMax="581" yMax="1103">
      <component glyphName="U" x="50" y="0" flags="0x1204"/>
      <component glyphName="grave" x="181" y="773" flags="0x1004"/>
    </TTGlyph>
    <TTGlyph name="V" xMin="60" yMin="-9" xMax="511" yMax="752">
      <contour>
        <pt x="60" y="-9" on="1"/>
        <pt x="106" y="462" on="0"/>
        <pt x="112" y="744" on="1"/>
        <pt x="186" y="744" on="0"/>
        <pt x="255" y="750" on="1"/>
        <pt x="271" y="752" on="1"/>
        <pt x="260" y="633" on="0"/>
        <pt x="244" y="480" on="0"/>
        <pt x="235" y="385" on="0"/>
        <pt x="231" y="341" on="1"/>
        <pt x="224" y="266" on="0"/>
        <pt x="216" y="195" on="1"/>
        <pt x="235" y="195" on="1"/>
        <pt x="349" y="739" on="1"/>
        <pt x="377" y="740" on="0"/>
        <pt x="431" y="744" on="0"/>
        <pt x="487" y="747" on="0"/>
        <pt x="511" y="750" on="1"/>
        <pt x="468" y="611" on="0"/>
        <pt x="405" y="358" on="0"/>
        <pt x="358" y="170" on="0"/>
        <pt x="326" y="31" on="1"/>
      </contour>
    </TTGlyph>
    <TTGlyph name="W" xMin="42" yMin="-4" xMax="741" yMax="758">
      <contour>
        <pt x="295" y="743" on="1"/>
        <pt x="295" y="741" on="0"/>
        <pt x="223" y="291" on="1"/>
        <pt x="239" y="291" on="1"/>
        <pt x="268" y="397" on="0"/>
        <pt x="322" y="580" on="0"/>
        <pt x="332" y="614" on="1"/>
        <pt x="352" y="690" on="0"/>
        <pt x="364" y="729" on="1"/>
        <pt x="373" y="729" on="1"/>
        <pt x="423" y="729" on="0"/>
        <pt x="481" y="742" on="1"/>
        <pt x="479" y="733" on="0"/>
        <pt x="474" y="676" on="0"/>
        <pt x="466" y="595" on="0"/>
        <pt x="458" y="498" on="0"/>
        <pt x="454" y="451" on="1"/>
        <pt x="447" y="366" on="0"/>
        <pt x="439" y="291" on="1"/>
        <pt x="458" y="291" on="1"/>
        <pt x="555" y="731" on="1"/>
        <pt x="590" y="736" on="0"/>
        <pt x="622" y="740" on="1"/>
        <pt x="706" y="751" on="0"/>
        <pt x="741" y="758" on="1"/>
        <pt x="701" y="642" on="0"/>
        <pt x="667" y="508" on="1"/>
        <pt x="587" y="192" on="0"/>
        <pt x="555" y="49" on="1"/>
        <pt x="324" y="10" on="1"/>
        <pt x="369" y="405" on="1"/>
        <pt x="356" y="405" on="1"/>
        <pt x="255" y="34" on="1"/>
        <pt x="42" y="-4" on="1"/>
        <pt x="120" y="723" on="1"/>
        <pt x="168" y="725" on="0"/>
        <pt x="253" y="740" on="0"/>
      </contour>
    </TTGlyph>
    <TTGlyph name="X" xMin="-37" yMin="-10" xMax="534" yMax="747">
      <contour>
        <pt x="226" y="194" on="1"/>
        <pt x="192" y="106" on="0"/>
        <pt x="137" y="-6" on="1"/>
        <pt x="-37" y="9" on="1"/>
        <pt x="14" y="100" on="0"/>
        <pt x="117" y="279" on="0"/>
        <pt x="160" y="376" on="1"/>
        <pt x="146" y="483" on="0"/>
        <pt x="112" y="634" on="0"/>
        <pt x="103" y="679" on="1"/>
        <pt x="267" y="747" on="1"/>
        <pt x="272" y="698" on="0"/>
        <pt x="286" y="582" on="0"/>
        <pt x="291" y="532" on="1"/>
        <pt x="352" y="671" on="0"/>
        <pt x="385" y="736" on="1"/>
        <pt x="534" y="696" on="1"/>
        <pt x="441" y="541" on="0"/>
        <pt x="364" y="373" on="1"/>
        <pt x="376" y="286" on="0"/>
        <pt x="425" y="91" on="0"/>
        <pt x="436" y="47" on="1"/>
        <pt x="434" y="46" on="0"/>
        <pt x="410" y="40" on="0"/>
        <pt x="373" y="30" on="0"/>
        <pt x="329" y="17" on="0"/>
        <pt x="308" y="11" on="1"/>
        <pt x="254" y="-5" on="0"/>
        <pt x="240" y="-10" on="1"/>
        <pt x="237" y="31" on="0"/>
        <pt x="232" y="103" on="0"/>
        <pt x="227" y="171" on="0"/>
      </contour>
    </TTGlyph>
    <TTGlyph name="Y" xMin="79" yMin="15" xMax="535" yMax="754">
      <contour>
        <pt x="268" y="438" on="1"/>
        <pt x="301" y="520" on="0"/>
        <pt x="376" y="742" on="1"/>
        <pt x="535" y="707" on="1"/>
        <pt x="480" y="595" on="0"/>
        <pt x="436" y="504" on="1"/>
        <pt x="372" y="372" on="1"/>
        <pt x="353" y="332" on="0"/>
        <pt x="316" y="256" on="0"/>
        <pt x="301" y="223" on="1"/>
        <pt x="286" y="147" on="0"/>
        <pt x="254" y="37" on="1"/>
        <pt x="79" y="15" on="1"/>
        <pt x="126" y="221" on="1"/>
        <pt x="126" y="345" on="0"/>
        <pt x="106" y="645" on="0"/>
        <pt x="104" y="668" on="1"/>
        <pt x="102" y="690" on="1"/>
        <pt x="269" y="754" on="1"/>
        <pt x="269" y="576" on="1"/>
        <pt x="268" y="476" on="1"/>
      </contour>
    </TTGlyph>
    <TTGlyph name="Yacute" xMin="129" yMin="15" xMax="585" yMax="1132">
      <component glyphName="Y" x="50" y="0" flags="0x1204"/>
      <component glyphName="acute" x="184" y="772" flags="0x1004"/>
    </TTGlyph>
    <TTGlyph name="Ydieresis" xMin="129" yMin="15" xMax="589" yMax="956">
      <component glyphName="Y" x="50" y="0" flags="0x1204"/>
      <component glyphName="dieresis" x="-31" y="772" flags="0x1004"/>
    </TTGlyph>
    <TTGlyph name="Z" xMin="8" yMin="9" xMax="545" yMax="724">
      <contour>
        <pt x="239" y="185" on="1"/>
        <pt x="272" y="185" on="0"/>
        <pt x="444" y="197" on="1"/>
        <pt x="441" y="41" on="1"/>
        <pt x="352" y="41" on="0"/>
        <pt x="230" y="32" on="1"/>
        <pt x="62" y="18" on="0"/>
        <pt x="8" y="9" on="1"/>
        <pt x="9" y="159" on="1"/>
        <pt x="300" y="555" on="1"/>
        <pt x="245" y="555" on="0"/>
        <pt x="131" y="536" on="1"/>
        <pt x="107" y="533" on="1"/>
        <pt x="126" y="694" on="1"/>
        <pt x="545" y="724" on="1"/>
        <pt x="518" y="583" on="1"/>
      </contour>
    </TTGlyph>
    <TTGlyph name="Zcaron" xMin="58" yMin="9" xMax="599" yMax="1012">
      <component glyphName="Z" x="50" y="0" flags="0x1204"/>
      <component glyphName="caron" x="160" y="731" flags="0x1004"/>
    </TTGlyph>
    <TTGlyph name="a" xMin="-22" yMin="2" xMax="475" yMax="759">
      <contour>
        <pt x="195" y="175" on="1"/>
        <pt x="154" y="28" on="1"/>
        <pt x="131" y="25" on="0"/>
        <pt x="70" y="17" on="0"/>
        <pt x="10" y="10" on="0"/>
        <pt x="-22" y="6" on="1"/>
        <pt x="19" y="142" on="0"/>
        <pt x="76" y="330" on="0"/>
        <pt x="112" y="451" on="0"/>
        <pt x="147" y="570" on="0"/>
        <pt x="180" y="681" on="0"/>
        <pt x="193" y="727" on="1"/>
        <pt x="378" y="740" on="0"/>
        <pt x="475" y="759" on="1"/>
        <pt x="466" y="660" on="0"/>
        <pt x="460" y="525" on="1"/>
        <pt x="447" y="256" on="0"/>
        <pt x="438" y="29" on="1"/>
        <pt x="408" y="24" on="0"/>
        <pt x="351" y="16" on="0"/>
        <pt x="290" y="6" on="0"/>
        <pt x="265" y="2" on="1"/>
        <pt x="276" y="98" on="0"/>
        <pt x="284" y="175" on="1"/>
      </contour>
      <contour>
        <pt x="219" y="277" on="1"/>
        <pt x="293" y="282" on="1"/>
        <pt x="293" y="288" on="0"/>
        <pt x="296" y="317" on="0"/>
        <pt x="298" y="336" on="1"/>
        <pt x="306" y="443" on="0"/>
        <pt x="315" y="535" on="1"/>
        <pt x="322" y="624" on="1"/>
        <pt x="306" y="623" on="1"/>
      </contour>
    </TTGlyph>
    <TTGlyph name="aacute" xMin="28" yMin="2" xMax="525" yMax="1132">
      <component glyphName="a" x="50" y="0" flags="0x1204"/>
      <component glyphName="acute" x="169" y="772" flags="0x1004"/>
    </TTGlyph>
    <TTGlyph name="acircumflex" xMin="28" yMin="2" xMax="540" yMax="1051">
      <component glyphName="a" x="50" y="0" flags="0x1204"/>
      <component glyphName="circumflex" x="146" y="772" flags="0x1004"/>
    </TTGlyph>
    <TTGlyph name="acute" xMin="84" yMin="13" xMax="345" yMax="360">
      <contour>
        <pt x="84" y="52" on="1"/>
        <pt x="85" y="121" on="1"/>
        <pt x="155" y="191" on="0"/>
        <pt x="277" y="302" on="0"/>
        <pt x="331" y="360" on="1"/>
        <pt x="336" y="292" on="0"/>
        <pt x="337" y="173" on="0"/>
        <pt x="345" y="110" on="1"/>
        <pt x="285" y="86" on="0"/>
        <pt x="145" y="36" on="0"/>
        <pt x="85" y="13" on="1"/>
        <pt x="84" y="24" on="0"/>
        <pt x="84" y="34" on="1"/>
      </contour>
    </TTGlyph>
    <TTGlyph name="adieresis" xMin="28" yMin="2" xMax="600" yMax="956">
      <component glyphName="a" x="50" y="0" flags="0x1204"/>
      <component glyphName="dieresis" x="-20" y="772" flags="0x1004"/>
    </TTGlyph>
    <TTGlyph name="ae" xMin="-30" yMin="-1" xMax="620" yMax="748">
      <contour>
        <pt x="580" y="624" on="1"/>
        <pt x="552" y="628" on="0"/>
        <pt x="512" y="628" on="1"/>
        <pt x="486" y="444" on="1"/>
        <pt x="511" y="448" on="0"/>
        <pt x="551" y="449" on="0"/>
        <pt x="562" y="450" on="1"/>
        <pt x="558" y="421" on="0"/>
        <pt x="551" y="366" on="0"/>
        <pt x="546" y="337" on="1"/>
        <pt x="535" y="336" on="0"/>
        <pt x="509" y="335" on="0"/>
        <pt x="485" y="333" on="0"/>
        <pt x="472" y="332" on="1"/>
        <pt x="445" y="144" on="1"/>
        <pt x="531" y="151" on="1"/>
        <pt x="521" y="34" on="1"/>
        <pt x="252" y="-1" on="1"/>
        <pt x="252" y="2" on="1"/>
        <pt x="250" y="2" on="1"/>
        <pt x="257" y="36" on="0"/>
        <pt x="269" y="97" on="0"/>
        <pt x="281" y="155" on="0"/>
        <pt x="284" y="175" on="1"/>
        <pt x="209" y="175" on="1"/>
        <pt x="156" y="28" on="1"/>
        <pt x="82" y="18" on="0"/>
        <pt x="6" y="10" on="0"/>
        <pt x="-30" y="6" on="1"/>
        <pt x="109" y="355" on="0"/>
        <pt x="229" y="681" on="0"/>
        <pt x="246" y="727" on="1"/>
        <pt x="296" y="731" on="0"/>
        <pt x="349" y="732" on="1"/>
        <pt x="458" y="734" on="0"/>
        <pt x="513" y="739" on="1"/>
        <pt x="620" y="748" on="1"/>
      </contour>
      <contour>
        <pt x="354" y="623" on="1"/>
        <pt x="321" y="535" on="1"/>
        <pt x="242" y="277" on="1"/>
        <pt x="246" y="278" on="0"/>
        <pt x="264" y="279" on="1"/>
        <pt x="298" y="281" on="0"/>
        <pt x="302" y="282" on="1"/>
        <pt x="304" y="297" on="0"/>
        <pt x="319" y="382" on="1"/>
        <pt x="342" y="504" on="1"/>
        <pt x="358" y="591" on="0"/>
        <pt x="365" y="624" on="1"/>
      </contour>
    </TTGlyph>
    <TTGlyph name="agrave" xMin="28" yMin="2" xMax="525" yMax="1102">
      <component glyphName="a" x="50" y="0" flags="0x1204"/>
      <component glyphName="grave" x="102" y="772" flags="0x1004"/>
    </TTGlyph>
    <TTGlyph name="ampersand" xMin="20" yMin="-13" xMax="619" yMax="760">
      <contour>
        <pt x="183" y="157" on="0"/>
        <pt x="223" y="116" on="0"/>
        <pt x="294" y="116" on="0"/>
        <pt x="338" y="165" on="0"/>
        <pt x="350" y="200" on="1"/>
        <pt x="369" y="250" on="0"/>
        <pt x="375" y="340" on="1"/>
        <pt x="277" y="332" on="0"/>
        <pt x="227" y="287" on="1"/>
        <pt x="183" y="247" on="0"/>
        <pt x="183" y="189" on="1"/>
      </contour>
      <contour>
        <pt x="619" y="355" on="1"/>
        <pt x="549" y="344" on="0"/>
        <pt x="538" y="344" on="1"/>
        <pt x="538" y="90" on="0"/>
        <pt x="370" y="14" on="1"/>
        <pt x="310" y="-13" on="0"/>
        <pt x="170" y="-13" on="0"/>
        <pt x="92" y="16" on="0"/>
        <pt x="68" y="40" on="1"/>
        <pt x="20" y="88" on="0"/>
        <pt x="20" y="165" on="1"/>
        <pt x="20" y="244" on="0"/>
        <pt x="69" y="316" on="1"/>
        <pt x="119" y="390" on="0"/>
        <pt x="199" y="413" on="1"/>
        <pt x="152" y="436" on="0"/>
        <pt x="128" y="478" on="1"/>
        <pt x="116" y="499" on="0"/>
        <pt x="116" y="578" on="0"/>
        <pt x="161" y="665" on="0"/>
        <pt x="199" y="696" on="1"/>
        <pt x="279" y="760" on="0"/>
        <pt x="390" y="760" on="1"/>
        <pt x="438" y="760" on="0"/>
        <pt x="519" y="716" on="0"/>
        <pt x="542" y="677" on="1"/>
        <pt x="458" y="583" on="1"/>
        <pt x="450" y="590" on="0"/>
        <pt x="434" y="605" on="0"/>
        <pt x="423" y="610" on="1"/>
        <pt x="398" y="623" on="0"/>
        <pt x="334" y="623" on="0"/>
        <pt x="303" y="608" on="0"/>
        <pt x="293" y="595" on="1"/>
        <pt x="273" y="569" on="0"/>
        <pt x="273" y="515" on="0"/>
        <pt x="284" y="482" on="0"/>
        <pt x="294" y="468" on="1"/>
        <pt x="317" y="439" on="0"/>
        <pt x="359" y="439" on="1"/>
        <pt x="370" y="439" on="1"/>
        <pt x="376" y="439" on="0"/>
        <pt x="382" y="441" on="1"/>
        <pt x="382" y="457" on="0"/>
        <pt x="386" y="481" on="1"/>
        <pt x="427" y="481" on="0"/>
        <pt x="496" y="485" on="0"/>
        <pt x="536" y="487" on="1"/>
        <pt x="534" y="482" on="0"/>
        <pt x="534" y="472" on="1"/>
        <pt x="534" y="446" on="1"/>
        <pt x="547" y="446" on="0"/>
        <pt x="607" y="460" on="1"/>
      </contour>
    </TTGlyph>
    <TTGlyph name="aring" xMin="28" yMin="2" xMax="525" yMax="1003">
      <component glyphName="a" x="50" y="0" flags="0x1204"/>
      <component glyphName="ring" x="179" y="772" flags="0x1004"/>
    </TTGlyph>
    <TTGlyph name="asciicircum" xMin="60" yMin="30" xMax="406" yMax="317">
      <contour>
        <pt x="258" y="182" on="1"/>
        <pt x="220" y="53" on="0"/>
        <pt x="214" y="36" on="1"/>
        <pt x="200" y="37" on="0"/>
        <pt x="186" y="37" on="1"/>
        <pt x="161" y="37" on="1"/>
        <pt x="111" y="37" on="0"/>
        <pt x="60" y="34" on="1"/>
        <pt x="103" y="98" on="0"/>
        <pt x="165" y="244" on="0"/>
        <pt x="200" y="314" on="1"/>
        <pt x="214" y="313" on="0"/>
        <pt x="227" y="313" on="1"/>
        <pt x="254" y="313" on="1"/>
        <pt x="312" y="313" on="0"/>
        <pt x="374" y="317" on="1"/>
        <pt x="370" y="294" on="0"/>
        <pt x="370" y="242" on="1"/>
        <pt x="370" y="127" on="0"/>
        <pt x="406" y="30" on="1"/>
        <pt x="323" y="39" on="0"/>
        <pt x="259" y="39" on="1"/>
        <pt x="258" y="59" on="0"/>
        <pt x="258" y="78" on="1"/>
      </contour>
    </TTGlyph>
    <TTGlyph name="asciitilde" xMin="70" yMin="462" xMax="524" yMax="707">
      <contour>
        <pt x="216" y="553" on="1"/>
        <pt x="180" y="553" on="0"/>
        <pt x="155" y="462" on="1"/>
        <pt x="97" y="488" on="0"/>
        <pt x="70" y="507" on="1"/>
        <pt x="71" y="507" on="0"/>
        <pt x="79" y="536" on="0"/>
        <pt x="96" y="580" on="0"/>
        <pt x="123" y="630" on="0"/>
        <pt x="142" y="652" on="1"/>
        <pt x="188" y="703" on="0"/>
        <pt x="249" y="703" on="1"/>
        <pt x="292" y="703" on="0"/>
        <pt x="334" y="660" on="1"/>
        <pt x="350" y="645" on="0"/>
        <pt x="375" y="618" on="0"/>
        <pt x="386" y="618" on="1"/>
        <pt x="411" y="618" on="0"/>
        <pt x="439" y="707" on="1"/>
        <pt x="507" y="674" on="0"/>
        <pt x="524" y="662" on="1"/>
        <pt x="504" y="549" on="0"/>
        <pt x="440" y="495" on="1"/>
        <pt x="404" y="464" on="0"/>
        <pt x="358" y="464" on="1"/>
        <pt x="339" y="464" on="0"/>
        <pt x="302" y="492" on="0"/>
        <pt x="266" y="525" on="0"/>
        <pt x="232" y="553" on="0"/>
      </contour>
    </TTGlyph>
    <TTGlyph name="asterisk" xMin="78" yMin="226" xMax="480" yMax="685">
      <contour>
        <pt x="192" y="229" on="1"/>
        <pt x="78" y="280" on="1"/>
        <pt x="175" y="392" on="1"/>
        <pt x="78" y="386" on="1"/>
        <pt x="92" y="508" on="1"/>
        <pt x="202" y="497" on="1"/>
        <pt x="135" y="619" on="1"/>
        <pt x="245" y="685" on="1"/>
        <pt x="299" y="536" on="1"/>
        <pt x="382" y="684" on="1"/>
        <pt x="477" y="611" on="1"/>
        <pt x="378" y="501" on="1"/>
        <pt x="480" y="513" on="1"/>
        <pt x="472" y="379" on="1"/>
        <pt x="350" y="396" on="1"/>
        <pt x="425" y="276" on="1"/>
        <pt x="296" y="226" on="1"/>
        <pt x="265" y="357" on="1"/>
      </contour>
    </TTGlyph>
    <TTGlyph name="at" xMin="46" yMin="-24" xMax="1048" yMax="736">
      <contour>
        <pt x="575" y="139" on="1"/>
        <pt x="491" y="86" on="0"/>
        <pt x="425" y="86" on="1"/>
        <pt x="352" y="86" on="0"/>
        <pt x="311" y="124" on="1"/>
        <pt x="274" y="158" on="0"/>
        <pt x="274" y="258" on="0"/>
        <pt x="323" y="346" on="0"/>
        <pt x="366" y="384" on="1"/>
        <pt x="459" y="470" on="0"/>
        <pt x="588" y="489" on="1"/>
        <pt x="612" y="493" on="0"/>
        <pt x="644" y="493" on="1"/>
        <pt x="728" y="493" on="0"/>
        <pt x="807" y="449" on="1"/>
        <pt x="789" y="386" on="0"/>
        <pt x="773" y="322" on="1"/>
        <pt x="741" y="193" on="1"/>
        <pt x="893" y="276" on="0"/>
        <pt x="893" y="401" on="1"/>
        <pt x="893" y="489" on="0"/>
        <pt x="817" y="539" on="1"/>
        <pt x="749" y="584" on="0"/>
        <pt x="637" y="584" on="1"/>
        <pt x="560" y="584" on="0"/>
        <pt x="408" y="540" on="0"/>
        <pt x="285" y="454" on="0"/>
        <pt x="209" y="328" on="0"/>
        <pt x="209" y="176" on="0"/>
        <pt x="235" y="105" on="1"/>
        <pt x="104" y="-24" on="1"/>
        <pt x="46" y="104" on="0"/>
        <pt x="46" y="228" on="1"/>
        <pt x="46" y="383" on="0"/>
        <pt x="144" y="506" on="1"/>
        <pt x="232" y="615" on="0"/>
        <pt x="383" y="677" on="1"/>
        <pt x="525" y="736" on="0"/>
        <pt x="674" y="736" on="1"/>
        <pt x="851" y="736" on="0"/>
        <pt x="954" y="632" on="1"/>
        <pt x="1001" y="586" on="0"/>
        <pt x="1048" y="466" on="0"/>
        <pt x="1048" y="341" on="0"/>
        <pt x="1000" y="220" on="0"/>
        <pt x="906" y="125" on="0"/>
        <pt x="764" y="67" on="0"/>
        <pt x="670" y="67" on="1"/>
        <pt x="604" y="67" on="0"/>
        <pt x="580" y="92" on="1"/>
        <pt x="571" y="100" on="0"/>
        <pt x="571" y="126" on="0"/>
      </contour>
      <contour>
        <pt x="652" y="399" on="1"/>
        <pt x="636" y="403" on="0"/>
        <pt x="589" y="403" on="0"/>
        <pt x="521" y="379" on="0"/>
        <pt x="494" y="358" on="1"/>
        <pt x="431" y="310" on="0"/>
        <pt x="431" y="247" on="1"/>
        <pt x="431" y="223" on="0"/>
        <pt x="460" y="193" on="0"/>
        <pt x="492" y="193" on="1"/>
        <pt x="546" y="193" on="0"/>
        <pt x="596" y="217" on="1"/>
      </contour>
    </TTGlyph>
    <TTGlyph name="atilde" xMin="28" yMin="2" xMax="626" yMax="1005">
      <component glyphName="a" x="50" y="0" flags="0x1204"/>
      <component glyphName="tilde" x="165" y="772" flags="0x1004"/>
    </TTGlyph>
    <TTGlyph name="b" xMin="-1" yMin="-4" xMax="524" yMax="758">
      <contour>
        <pt x="463" y="252" on="1"/>
        <pt x="463" y="215" on="0"/>
        <pt x="428" y="143" on="0"/>
        <pt x="369" y="85" on="0"/>
        <pt x="290" y="41" on="0"/>
        <pt x="246" y="26" on="1"/>
        <pt x="160" y="-4" on="0"/>
        <pt x="70" y="-4" on="1"/>
        <pt x="32" y="-4" on="0"/>
        <pt x="-1" y="2" on="1"/>
        <pt x="48" y="181" on="0"/>
        <pt x="106" y="545" on="0"/>
        <pt x="133" y="729" on="1"/>
        <pt x="273" y="758" on="0"/>
        <pt x="362" y="758" on="1"/>
        <pt x="467" y="758" on="0"/>
        <pt x="508" y="686" on="1"/>
        <pt x="524" y="659" on="0"/>
        <pt x="524" y="580" on="0"/>
        <pt x="499" y="512" on="0"/>
        <pt x="479" y="484" on="1"/>
        <pt x="438" y="428" on="0"/>
        <pt x="381" y="407" on="1"/>
        <pt x="463" y="357" on="0"/>
      </contour>
      <contour>
        <pt x="200" y="203" on="1"/>
        <pt x="291" y="213" on="0"/>
        <pt x="328" y="254" on="1"/>
        <pt x="344" y="272" on="0"/>
        <pt x="344" y="316" on="0"/>
        <pt x="325" y="341" on="0"/>
        <pt x="310" y="349" on="1"/>
        <pt x="280" y="365" on="0"/>
        <pt x="245" y="365" on="1"/>
        <pt x="236" y="365" on="1"/>
        <pt x="232" y="365" on="0"/>
        <pt x="228" y="364" on="1"/>
        <pt x="224" y="339" on="0"/>
        <pt x="217" y="301" on="0"/>
        <pt x="211" y="266" on="0"/>
        <pt x="204" y="228" on="0"/>
      </contour>
      <contour>
        <pt x="252" y="490" on="1"/>
        <pt x="377" y="518" on="0"/>
        <pt x="377" y="559" on="1"/>
        <pt x="377" y="598" on="0"/>
        <pt x="313" y="608" on="1"/>
        <pt x="297" y="611" on="0"/>
        <pt x="285" y="611" on="1"/>
        <pt x="274" y="611" on="1"/>
        <pt x="272" y="600" on="0"/>
        <pt x="267" y="569" on="0"/>
        <pt x="261" y="536" on="0"/>
        <pt x="254" y="503" on="0"/>
      </contour>
    </TTGlyph>
    <TTGlyph name="backslash" xMin="130" yMin="1" xMax="497" yMax="772">
      <contour>
        <pt x="131" y="739" on="1"/>
        <pt x="137" y="739" on="0"/>
        <pt x="145" y="740" on="1"/>
        <pt x="173" y="746" on="0"/>
        <pt x="203" y="751" on="1"/>
        <pt x="269" y="762" on="0"/>
        <pt x="292" y="772" on="1"/>
        <pt x="326" y="652" on="0"/>
        <pt x="385" y="430" on="0"/>
        <pt x="423" y="290" on="0"/>
        <pt x="440" y="228" on="1"/>
        <pt x="480" y="84" on="0"/>
        <pt x="497" y="33" on="1"/>
        <pt x="459" y="22" on="0"/>
        <pt x="386" y="12" on="0"/>
        <pt x="365" y="8" on="0"/>
        <pt x="342" y="3" on="0"/>
        <pt x="331" y="1" on="1"/>
        <pt x="307" y="92" on="0"/>
        <pt x="258" y="269" on="0"/>
        <pt x="209" y="450" on="0"/>
        <pt x="157" y="638" on="0"/>
        <pt x="130" y="739" on="1"/>
      </contour>
    </TTGlyph>
    <TTGlyph name="bar" xMin="23" yMin="-19" xMax="328" yMax="776">
      <contour>
        <pt x="328" y="776" on="1"/>
        <pt x="237" y="297" on="0"/>
        <pt x="192" y="0" on="1"/>
        <pt x="163" y="0" on="0"/>
        <pt x="25" y="-18" on="0"/>
        <pt x="23" y="-19" on="1"/>
        <pt x="68" y="178" on="0"/>
        <pt x="144" y="607" on="0"/>
        <pt x="171" y="764" on="1"/>
      </contour>
    </TTGlyph>
    <TTGlyph name="braceleft" xMin="35" yMin="7" xMax="368" yMax="749">
      <contour>
        <pt x="248" y="7" on="1"/>
        <pt x="115" y="74" on="0"/>
        <pt x="115" y="210" on="1"/>
        <pt x="115" y="267" on="0"/>
        <pt x="106" y="291" on="1"/>
        <pt x="87" y="336" on="0"/>
        <pt x="35" y="342" on="1"/>
        <pt x="53" y="460" on="1"/>
        <pt x="61" y="460" on="1"/>
        <pt x="97" y="460" on="0"/>
        <pt x="131" y="491" on="0"/>
        <pt x="149" y="541" on="0"/>
        <pt x="162" y="604" on="0"/>
        <pt x="178" y="636" on="1"/>
        <pt x="214" y="712" on="0"/>
        <pt x="309" y="749" on="1"/>
        <pt x="368" y="598" on="1"/>
        <pt x="308" y="593" on="0"/>
        <pt x="282" y="546" on="1"/>
        <pt x="271" y="526" on="0"/>
        <pt x="259" y="479" on="0"/>
        <pt x="250" y="458" on="1"/>
        <pt x="230" y="406" on="0"/>
        <pt x="181" y="393" on="1"/>
        <pt x="230" y="375" on="0"/>
        <pt x="236" y="309" on="1"/>
        <pt x="237" y="290" on="0"/>
        <pt x="237" y="272" on="1"/>
        <pt x="237" y="236" on="1"/>
        <pt x="237" y="213" on="0"/>
        <pt x="252" y="194" on="1"/>
        <pt x="276" y="165" on="0"/>
        <pt x="302" y="156" on="1"/>
      </contour>
    </TTGlyph>
    <TTGlyph name="braceright" xMin="19" yMin="7" xMax="353" yMax="749">
      <contour>
        <pt x="281" y="578" on="1"/>
        <pt x="280" y="526" on="1"/>
        <pt x="280" y="488" on="0"/>
        <pt x="289" y="474" on="1"/>
        <pt x="305" y="450" on="0"/>
        <pt x="345" y="450" on="1"/>
        <pt x="353" y="450" on="1"/>
        <pt x="338" y="332" on="1"/>
        <pt x="271" y="324" on="0"/>
        <pt x="250" y="250" on="1"/>
        <pt x="244" y="227" on="0"/>
        <pt x="234" y="164" on="0"/>
        <pt x="197" y="99" on="0"/>
        <pt x="170" y="74" on="1"/>
        <pt x="111" y="19" on="0"/>
        <pt x="31" y="7" on="1"/>
        <pt x="19" y="146" on="1"/>
        <pt x="64" y="157" on="0"/>
        <pt x="83" y="169" on="1"/>
        <pt x="121" y="194" on="0"/>
        <pt x="126" y="236" on="1"/>
        <pt x="139" y="357" on="0"/>
        <pt x="206" y="383" on="1"/>
        <pt x="164" y="400" on="0"/>
        <pt x="158" y="460" on="1"/>
        <pt x="156" y="486" on="0"/>
        <pt x="158" y="542" on="0"/>
        <pt x="153" y="566" on="1"/>
        <pt x="142" y="621" on="0"/>
        <pt x="87" y="628" on="1"/>
        <pt x="178" y="749" on="1"/>
        <pt x="267" y="708" on="0"/>
        <pt x="278" y="624" on="1"/>
        <pt x="281" y="601" on="0"/>
      </contour>
    </TTGlyph>
    <TTGlyph name="bracketleft" xMin="22" yMin="-5" xMax="465" yMax="796">
      <contour>
        <pt x="22" y="-5" on="1"/>
        <pt x="103" y="362" on="0"/>
        <pt x="177" y="771" on="1"/>
        <pt x="183" y="771" on="1"/>
        <pt x="205" y="771" on="0"/>
        <pt x="246" y="774" on="0"/>
        <pt x="299" y="776" on="0"/>
        <pt x="332" y="778" on="1"/>
        <pt x="419" y="785" on="0"/>
        <pt x="465" y="796" on="1"/>
        <pt x="458" y="766" on="0"/>
        <pt x="442" y="705" on="0"/>
        <pt x="436" y="675" on="1"/>
        <pt x="423" y="674" on="0"/>
        <pt x="410" y="674" on="1"/>
        <pt x="327" y="674" on="1"/>
        <pt x="307" y="571" on="0"/>
        <pt x="282" y="434" on="0"/>
        <pt x="268" y="359" on="0"/>
        <pt x="254" y="277" on="0"/>
        <pt x="237" y="180" on="0"/>
        <pt x="227" y="118" on="1"/>
        <pt x="267" y="118" on="0"/>
        <pt x="329" y="132" on="0"/>
        <pt x="329" y="133" on="1"/>
        <pt x="303" y="26" on="1"/>
        <pt x="243" y="18" on="0"/>
        <pt x="100" y="4" on="0"/>
      </contour>
    </TTGlyph>
    <TTGlyph name="bracketright" xMin="-20" yMin="-30" xMax="410" yMax="779">
      <contour>
        <pt x="410" y="779" on="1"/>
        <pt x="304" y="306" on="0"/>
        <pt x="260" y="5" on="1"/>
        <pt x="236" y="2" on="1"/>
        <pt x="220" y="0" on="0"/>
        <pt x="198" y="-2" on="1"/>
        <pt x="96" y="-14" on="0"/>
        <pt x="-20" y="-30" on="1"/>
        <pt x="-15" y="27" on="0"/>
        <pt x="-3" y="91" on="1"/>
        <pt x="30" y="99" on="0"/>
        <pt x="127" y="113" on="1"/>
        <pt x="220" y="636" on="1"/>
        <pt x="103" y="623" on="1"/>
        <pt x="112" y="741" on="1"/>
      </contour>
    </TTGlyph>
    <TTGlyph name="brokenbar" xMin="20" yMin="-19" xMax="325" yMax="776">
      <contour>
        <pt x="242" y="320" on="1"/>
        <pt x="207" y="123" on="0"/>
        <pt x="189" y="0" on="1"/>
        <pt x="160" y="0" on="0"/>
        <pt x="22" y="-18" on="0"/>
        <pt x="20" y="-19" on="1"/>
        <pt x="49" y="105" on="0"/>
        <pt x="85" y="296" on="1"/>
      </contour>
      <contour>
        <pt x="111" y="436" on="1"/>
        <pt x="123" y="503" on="0"/>
        <pt x="133" y="562" on="1"/>
        <pt x="153" y="682" on="0"/>
        <pt x="168" y="764" on="1"/>
        <pt x="325" y="776" on="1"/>
        <pt x="301" y="645" on="0"/>
        <pt x="278" y="520" on="0"/>
        <pt x="266" y="454" on="1"/>
      </contour>
    </TTGlyph>
    <TTGlyph name="bullet" xMin="43" yMin="195" xMax="344" yMax="548">
      <contour>
        <pt x="294" y="271" on="1"/>
        <pt x="236" y="195" on="0"/>
        <pt x="136" y="195" on="1"/>
        <pt x="90" y="195" on="0"/>
        <pt x="43" y="255" on="0"/>
        <pt x="43" y="331" on="0"/>
        <pt x="66" y="420" on="0"/>
        <pt x="91" y="458" on="1"/>
        <pt x="150" y="548" on="0"/>
        <pt x="251" y="548" on="1"/>
        <pt x="301" y="548" on="0"/>
        <pt x="326" y="504" on="1"/>
        <pt x="344" y="471" on="0"/>
        <pt x="344" y="427" on="1"/>
        <pt x="344" y="335" on="0"/>
      </contour>
    </TTGlyph>
    <TTGlyph name="c" xMin="40" yMin="-2" xMax="523" yMax="749">
      <contour>
        <pt x="231" y="170" on="1"/>
        <pt x="256" y="170" on="0"/>
        <pt x="284" y="201" on="1"/>
        <pt x="312" y="233" on="0"/>
        <pt x="320" y="267" on="1"/>
        <pt x="437" y="220" on="1"/>
        <pt x="392" y="115" on="0"/>
        <pt x="319" y="53" on="1"/>
        <pt x="254" y="-2" on="0"/>
        <pt x="186" y="-2" on="1"/>
        <pt x="122" y="-2" on="0"/>
        <pt x="82" y="56" on="1"/>
        <pt x="40" y="118" on="0"/>
        <pt x="40" y="320" on="0"/>
        <pt x="93" y="508" on="0"/>
        <pt x="189" y="657" on="0"/>
        <pt x="322" y="749" on="0"/>
        <pt x="401" y="749" on="1"/>
        <pt x="452" y="749" on="0"/>
        <pt x="488" y="710" on="1"/>
        <pt x="523" y="670" on="0"/>
        <pt x="523" y="605" on="1"/>
        <pt x="523" y="592" on="1"/>
        <pt x="523" y="586" on="0"/>
        <pt x="522" y="579" on="1"/>
        <pt x="388" y="543" on="1"/>
        <pt x="376" y="568" on="0"/>
        <pt x="343" y="568" on="0"/>
        <pt x="307" y="530" on="0"/>
        <pt x="272" y="470" on="0"/>
        <pt x="240" y="395" on="0"/>
        <pt x="228" y="357" on="1"/>
        <pt x="200" y="273" on="0"/>
        <pt x="200" y="170" on="0"/>
      </contour>
    </TTGlyph>
    <TTGlyph name="caron" xMin="134" yMin="3" xMax="439" yMax="281">
      <contour>
        <pt x="204" y="5" on="1"/>
        <pt x="134" y="209" on="1"/>
        <pt x="145" y="219" on="0"/>
        <pt x="168" y="239" on="0"/>
        <pt x="192" y="261" on="0"/>
        <pt x="205" y="271" on="1"/>
        <pt x="273" y="153" on="1"/>
        <pt x="381" y="281" on="1"/>
        <pt x="414" y="253" on="0"/>
        <pt x="423" y="244" on="1"/>
        <pt x="439" y="228" on="1"/>
        <pt x="351" y="85" on="0"/>
        <pt x="278" y="3" on="1"/>
        <pt x="250" y="5" on="0"/>
        <pt x="234" y="5" on="1"/>
        <pt x="208" y="4" on="1"/>
        <pt x="204" y="4" on="0"/>
      </contour>
    </TTGlyph>
    <TTGlyph name="ccedilla" xMin="71" yMin="-169" xMax="572" yMax="749">
      <component glyphName="c" x="49" y="0" flags="0x1004"/>
      <component glyphName="cedilla" x="-20" y="0" flags="0x1004"/>
    </TTGlyph>
    <TTGlyph name="cedilla" xMin="91" yMin="-169" xMax="315" yMax="19">
      <contour>
        <pt x="212" y="19" on="1"/>
        <pt x="274" y="10" on="1"/>
        <pt x="315" y="-30" on="0"/>
        <pt x="315" y="-70" on="1"/>
        <pt x="315" y="-112" on="0"/>
        <pt x="276" y="-140" on="1"/>
        <pt x="236" y="-169" on="0"/>
        <pt x="177" y="-169" on="1"/>
        <pt x="121" y="-169" on="0"/>
        <pt x="91" y="-131" on="1"/>
        <pt x="111" y="-41" on="1"/>
        <pt x="137" y="-70" on="0"/>
        <pt x="187" y="-70" on="0"/>
        <pt x="217" y="-37" on="0"/>
        <pt x="217" y="1" on="0"/>
      </contour>
    </TTGlyph>
    <TTGlyph name="cent" xMin="56" yMin="-88" xMax="539" yMax="816">
      <contour>
        <pt x="162" y="-88" on="1"/>
        <pt x="172" y="-46" on="0"/>
        <pt x="179" y="0" on="1"/>
        <pt x="126" y="10" on="0"/>
        <pt x="56" y="123" on="0"/>
        <pt x="56" y="308" on="0"/>
        <pt x="98" y="475" on="0"/>
        <pt x="173" y="616" on="0"/>
        <pt x="279" y="718" on="0"/>
        <pt x="343" y="738" on="1"/>
        <pt x="348" y="781" on="0"/>
        <pt x="355" y="814" on="1"/>
        <pt x="452" y="816" on="1"/>
        <pt x="443" y="785" on="0"/>
        <pt x="436" y="747" on="1"/>
        <pt x="481" y="740" on="0"/>
        <pt x="539" y="665" on="0"/>
        <pt x="539" y="605" on="1"/>
        <pt x="539" y="592" on="1"/>
        <pt x="539" y="586" on="0"/>
        <pt x="538" y="579" on="1"/>
        <pt x="384" y="533" on="1"/>
        <pt x="384" y="545" on="1"/>
        <pt x="384" y="584" on="0"/>
        <pt x="372" y="612" on="0"/>
        <pt x="367" y="612" on="1"/>
        <pt x="335" y="612" on="0"/>
        <pt x="297" y="539" on="1"/>
        <pt x="245" y="439" on="0"/>
        <pt x="222" y="298" on="1"/>
        <pt x="216" y="258" on="0"/>
        <pt x="216" y="229" on="1"/>
        <pt x="216" y="177" on="0"/>
        <pt x="255" y="177" on="0"/>
        <pt x="286" y="203" on="0"/>
        <pt x="298" y="222" on="1"/>
        <pt x="318" y="254" on="0"/>
        <pt x="336" y="307" on="1"/>
        <pt x="453" y="260" on="1"/>
        <pt x="388" y="84" on="0"/>
        <pt x="283" y="22" on="1"/>
        <pt x="276" y="-45" on="0"/>
        <pt x="271" y="-79" on="1"/>
        <pt x="258" y="-79" on="0"/>
        <pt x="234" y="-81" on="0"/>
        <pt x="209" y="-83" on="0"/>
        <pt x="192" y="-85" on="1"/>
        <pt x="168" y="-88" on="0"/>
      </contour>
    </TTGlyph>
    <TTGlyph name="circumflex" xMin="89" yMin="7" xMax="394" yMax="279">
      <contour>
        <pt x="89" y="63" on="1"/>
        <pt x="193" y="213" on="0"/>
        <pt x="261" y="279" on="1"/>
        <pt x="301" y="273" on="0"/>
        <pt x="333" y="275" on="0"/>
        <pt x="335" y="273" on="1"/>
        <pt x="345" y="238" on="0"/>
        <pt x="383" y="104" on="0"/>
        <pt x="394" y="66" on="1"/>
        <pt x="346" y="26" on="0"/>
        <pt x="320" y="8" on="1"/>
        <pt x="258" y="129" on="1"/>
        <pt x="224" y="95" on="0"/>
        <pt x="204" y="73" on="1"/>
        <pt x="162" y="25" on="0"/>
        <pt x="144" y="7" on="1"/>
        <pt x="108" y="37" on="0"/>
      </contour>
    </TTGlyph>
    <TTGlyph name="colon" xMin="20" yMin="43" xMax="261" yMax="590">
      <contour>
        <pt x="261" y="590" on="1"/>
        <pt x="238" y="493" on="0"/>
        <pt x="217" y="348" on="1"/>
        <pt x="151" y="344" on="0"/>
        <pt x="86" y="344" on="1"/>
        <pt x="74" y="344" on="1"/>
        <pt x="82" y="401" on="0"/>
        <pt x="100" y="511" on="0"/>
        <pt x="109" y="566" on="1"/>
        <pt x="178" y="566" on="0"/>
      </contour>
      <contour>
        <pt x="204" y="271" on="1"/>
        <pt x="187" y="177" on="0"/>
        <pt x="170" y="66" on="1"/>
        <pt x="82" y="61" on="0"/>
        <pt x="20" y="43" on="1"/>
        <pt x="38" y="130" on="0"/>
        <pt x="58" y="270" on="1"/>
        <pt x="104" y="272" on="0"/>
        <pt x="134" y="272" on="1"/>
        <pt x="177" y="272" on="1"/>
        <pt x="190" y="272" on="0"/>
      </contour>
    </TTGlyph>
    <TTGlyph name="comma" xMin="-35" yMin="-114" xMax="210" yMax="186">
      <contour>
        <pt x="25" y="184" on="1"/>
        <pt x="78" y="183" on="1"/>
        <pt x="115" y="183" on="1"/>
        <pt x="138" y="183" on="0"/>
        <pt x="184" y="185" on="0"/>
        <pt x="210" y="186" on="1"/>
        <pt x="196" y="117" on="0"/>
        <pt x="143" y="-57" on="0"/>
        <pt x="126" y="-114" on="1"/>
        <pt x="-35" y="-114" on="1"/>
        <pt x="-27" y="-73" on="0"/>
        <pt x="-8" y="12" on="0"/>
        <pt x="8" y="91" on="0"/>
        <pt x="22" y="159" on="0"/>
      </contour>
    </TTGlyph>
    <TTGlyph name="copyright" xMin="61" yMin="82" xMax="645" yMax="773">
      <contour>
        <pt x="336" y="752" on="1"/>
        <pt x="393" y="773" on="0"/>
        <pt x="510" y="773" on="0"/>
        <pt x="579" y="738" on="0"/>
        <pt x="602" y="707" on="1"/>
        <pt x="645" y="647" on="0"/>
        <pt x="645" y="437" on="0"/>
        <pt x="572" y="267" on="0"/>
        <pt x="461" y="147" on="0"/>
        <pt x="328" y="82" on="0"/>
        <pt x="223" y="82" on="0"/>
        <pt x="147" y="105" on="0"/>
        <pt x="120" y="130" on="1"/>
        <pt x="61" y="183" on="0"/>
        <pt x="61" y="283" on="1"/>
        <pt x="61" y="461" on="0"/>
        <pt x="159" y="607" on="1"/>
        <pt x="229" y="710" on="0"/>
      </contour>
      <contour>
        <pt x="265" y="169" on="1"/>
        <pt x="330" y="169" on="0"/>
        <pt x="439" y="240" on="0"/>
        <pt x="519" y="347" on="0"/>
        <pt x="563" y="469" on="0"/>
        <pt x="563" y="593" on="0"/>
        <pt x="516" y="687" on="0"/>
        <pt x="466" y="687" on="1"/>
        <pt x="344" y="687" on="0"/>
        <pt x="268" y="618" on="1"/>
        <pt x="206" y="562" on="0"/>
        <pt x="176" y="464" on="1"/>
        <pt x="153" y="387" on="0"/>
        <pt x="153" y="298" on="1"/>
        <pt x="153" y="278" on="1"/>
        <pt x="153" y="207" on="0"/>
        <pt x="222" y="178" on="1"/>
        <pt x="241" y="169" on="0"/>
      </contour>
      <contour>
        <pt x="311" y="310" on="1"/>
        <pt x="345" y="310" on="0"/>
        <pt x="372" y="390" on="1"/>
        <pt x="444" y="361" on="1"/>
        <pt x="414" y="280" on="0"/>
        <pt x="330" y="199" on="0"/>
        <pt x="251" y="199" on="0"/>
        <pt x="200" y="271" on="0"/>
        <pt x="200" y="400" on="0"/>
        <pt x="233" y="515" on="0"/>
        <pt x="293" y="606" on="0"/>
        <pt x="374" y="662" on="0"/>
        <pt x="453" y="662" on="0"/>
        <pt x="497" y="615" on="0"/>
        <pt x="497" y="575" on="1"/>
        <pt x="497" y="566" on="1"/>
        <pt x="497" y="562" on="0"/>
        <pt x="496" y="557" on="1"/>
        <pt x="402" y="529" on="1"/>
        <pt x="402" y="535" on="1"/>
        <pt x="402" y="577" on="0"/>
        <pt x="392" y="577" on="1"/>
        <pt x="362" y="577" on="0"/>
        <pt x="330" y="487" on="1"/>
        <pt x="299" y="403" on="0"/>
        <pt x="299" y="342" on="1"/>
        <pt x="299" y="310" on="0"/>
      </contour>
    </TTGlyph>
    <TTGlyph name="currency" xMin="57" yMin="252" xMax="519" yMax="725">
      <contour>
        <pt x="229" y="660" on="1"/>
        <pt x="286" y="706" on="0"/>
        <pt x="397" y="706" on="0"/>
        <pt x="429" y="682" on="1"/>
        <pt x="467" y="721" on="1"/>
        <pt x="477" y="707" on="0"/>
        <pt x="509" y="676" on="0"/>
        <pt x="519" y="666" on="1"/>
        <pt x="472" y="621" on="1"/>
        <pt x="481" y="588" on="0"/>
        <pt x="481" y="555" on="1"/>
        <pt x="481" y="455" on="0"/>
        <pt x="414" y="367" on="1"/>
        <pt x="461" y="300" on="0"/>
        <pt x="463" y="298" on="1"/>
        <pt x="398" y="252" on="1"/>
        <pt x="396" y="253" on="0"/>
        <pt x="387" y="268" on="0"/>
        <pt x="379" y="281" on="1"/>
        <pt x="355" y="320" on="1"/>
        <pt x="300" y="282" on="0"/>
        <pt x="192" y="282" on="0"/>
        <pt x="157" y="305" on="1"/>
        <pt x="127" y="277" on="0"/>
        <pt x="118" y="268" on="1"/>
        <pt x="109" y="259" on="1"/>
        <pt x="57" y="318" on="1"/>
        <pt x="110" y="366" on="1"/>
        <pt x="102" y="398" on="0"/>
        <pt x="102" y="468" on="0"/>
        <pt x="140" y="570" on="0"/>
        <pt x="174" y="612" on="1"/>
        <pt x="125" y="684" on="1"/>
        <pt x="176" y="713" on="0"/>
        <pt x="190" y="725" on="1"/>
        <pt x="198" y="711" on="0"/>
        <pt x="208" y="695" on="0"/>
        <pt x="212" y="688" on="1"/>
        <pt x="218" y="677" on="0"/>
      </contour>
      <contour>
        <pt x="209" y="425" on="0"/>
        <pt x="238" y="384" on="0"/>
        <pt x="294" y="384" on="0"/>
        <pt x="337" y="416" on="0"/>
        <pt x="354" y="440" on="1"/>
        <pt x="389" y="493" on="0"/>
        <pt x="389" y="547" on="1"/>
        <pt x="389" y="574" on="0"/>
        <pt x="364" y="611" on="0"/>
        <pt x="306" y="611" on="0"/>
        <pt x="259" y="581" on="0"/>
        <pt x="242" y="558" on="1"/>
        <pt x="209" y="510" on="0"/>
        <pt x="209" y="455" on="1"/>
      </contour>
    </TTGlyph>
    <TTGlyph name="d" xMin="4" yMin="-5" xMax="521" yMax="748">
      <contour>
        <pt x="183" y="124" on="1"/>
        <pt x="253" y="169" on="0"/>
        <pt x="312" y="311" on="1"/>
        <pt x="345" y="390" on="0"/>
        <pt x="367" y="498" on="0"/>
        <pt x="367" y="560" on="0"/>
        <pt x="325" y="603" on="0"/>
        <pt x="280" y="603" on="1"/>
        <pt x="263" y="517" on="0"/>
        <pt x="241" y="418" on="1"/>
        <pt x="204" y="250" on="0"/>
      </contour>
      <contour>
        <pt x="4" y="0" on="1"/>
        <pt x="113" y="549" on="0"/>
        <pt x="137" y="725" on="1"/>
        <pt x="181" y="733" on="0"/>
        <pt x="271" y="748" on="0"/>
        <pt x="374" y="748" on="0"/>
        <pt x="451" y="713" on="0"/>
        <pt x="475" y="682" on="1"/>
        <pt x="521" y="623" on="0"/>
        <pt x="521" y="523" on="1"/>
        <pt x="521" y="413" on="0"/>
        <pt x="463" y="291" on="1"/>
        <pt x="402" y="164" on="0"/>
        <pt x="303" y="84" on="1"/>
        <pt x="190" y="-5" on="0"/>
        <pt x="61" y="-5" on="1"/>
        <pt x="39" y="-5" on="0"/>
      </contour>
    </TTGlyph>
    <TTGlyph name="dagger" xMin="91" yMin="121" xMax="407" yMax="757">
      <contour>
        <pt x="120" y="623" on="1"/>
        <pt x="127" y="623" on="0"/>
        <pt x="148" y="625" on="0"/>
        <pt x="180" y="626" on="0"/>
        <pt x="203" y="628" on="1"/>
        <pt x="208" y="658" on="0"/>
        <pt x="213" y="680" on="1"/>
        <pt x="224" y="728" on="0"/>
        <pt x="227" y="743" on="1"/>
        <pt x="341" y="757" on="1"/>
        <pt x="326" y="699" on="0"/>
        <pt x="314" y="632" on="1"/>
        <pt x="335" y="633" on="0"/>
        <pt x="358" y="633" on="1"/>
        <pt x="407" y="633" on="1"/>
        <pt x="405" y="620" on="0"/>
        <pt x="400" y="599" on="0"/>
        <pt x="395" y="578" on="0"/>
        <pt x="389" y="556" on="0"/>
        <pt x="382" y="534" on="0"/>
        <pt x="376" y="517" on="0"/>
        <pt x="374" y="510" on="1"/>
        <pt x="289" y="507" on="1"/>
        <pt x="280" y="458" on="0"/>
        <pt x="260" y="358" on="0"/>
        <pt x="251" y="310" on="1"/>
        <pt x="230" y="198" on="0"/>
        <pt x="220" y="138" on="1"/>
        <pt x="189" y="138" on="0"/>
        <pt x="128" y="121" on="0"/>
        <pt x="96" y="121" on="1"/>
        <pt x="127" y="240" on="0"/>
        <pt x="169" y="456" on="0"/>
        <pt x="179" y="506" on="1"/>
        <pt x="91" y="506" on="1"/>
      </contour>
    </TTGlyph>
    <TTGlyph name="daggerdbl" xMin="39" yMin="107" xMax="414" yMax="757">
      <contour>
        <pt x="355" y="358" on="1"/>
        <pt x="326" y="241" on="1"/>
        <pt x="319" y="241" on="0"/>
        <pt x="308" y="240" on="1"/>
        <pt x="286" y="238" on="0"/>
        <pt x="243" y="236" on="1"/>
        <pt x="231" y="176" on="0"/>
        <pt x="221" y="131" on="0"/>
        <pt x="219" y="121" on="1"/>
        <pt x="105" y="107" on="1"/>
        <pt x="114" y="141" on="0"/>
        <pt x="126" y="202" on="0"/>
        <pt x="132" y="232" on="1"/>
        <pt x="111" y="231" on="0"/>
        <pt x="88" y="231" on="1"/>
        <pt x="39" y="231" on="1"/>
        <pt x="41" y="244" on="0"/>
        <pt x="46" y="265" on="0"/>
        <pt x="51" y="286" on="0"/>
        <pt x="57" y="308" on="0"/>
        <pt x="60" y="319" on="1"/>
        <pt x="65" y="338" on="0"/>
        <pt x="72" y="354" on="1"/>
        <pt x="157" y="357" on="1"/>
        <pt x="158" y="363" on="0"/>
        <pt x="165" y="396" on="0"/>
        <pt x="176" y="455" on="0"/>
        <pt x="186" y="506" on="1"/>
        <pt x="98" y="506" on="1"/>
        <pt x="127" y="623" on="1"/>
        <pt x="134" y="623" on="0"/>
        <pt x="155" y="625" on="0"/>
        <pt x="187" y="626" on="0"/>
        <pt x="210" y="628" on="1"/>
        <pt x="215" y="658" on="0"/>
        <pt x="220" y="680" on="1"/>
        <pt x="231" y="728" on="0"/>
        <pt x="234" y="743" on="1"/>
        <pt x="348" y="757" on="1"/>
        <pt x="333" y="699" on="0"/>
        <pt x="321" y="632" on="1"/>
        <pt x="342" y="633" on="0"/>
        <pt x="365" y="633" on="1"/>
        <pt x="414" y="633" on="1"/>
        <pt x="412" y="620" on="0"/>
        <pt x="407" y="599" on="0"/>
        <pt x="402" y="578" on="0"/>
        <pt x="396" y="556" on="0"/>
        <pt x="389" y="534" on="0"/>
        <pt x="383" y="517" on="0"/>
        <pt x="381" y="510" on="1"/>
        <pt x="296" y="507" on="1"/>
        <pt x="269" y="372" on="0"/>
        <pt x="267" y="358" on="1"/>
      </contour>
    </TTGlyph>
    <TTGlyph name="degree" xMin="100" yMin="520" xMax="348" yMax="765">
      <contour>
        <pt x="171" y="627" on="0"/>
        <pt x="198" y="591" on="0"/>
        <pt x="257" y="591" on="0"/>
        <pt x="290" y="631" on="0"/>
        <pt x="290" y="675" on="0"/>
        <pt x="260" y="707" on="0"/>
        <pt x="201" y="707" on="0"/>
        <pt x="171" y="671" on="0"/>
      </contour>
      <contour>
        <pt x="214" y="520" on="1"/>
        <pt x="184" y="520" on="0"/>
        <pt x="142" y="540" on="0"/>
        <pt x="128" y="557" on="1"/>
        <pt x="100" y="591" on="0"/>
        <pt x="100" y="640" on="1"/>
        <pt x="100" y="691" on="0"/>
        <pt x="130" y="726" on="1"/>
        <pt x="165" y="765" on="0"/>
        <pt x="226" y="765" on="1"/>
        <pt x="285" y="765" on="0"/>
        <pt x="318" y="730" on="1"/>
        <pt x="348" y="700" on="0"/>
        <pt x="348" y="651" on="1"/>
        <pt x="348" y="599" on="0"/>
        <pt x="312" y="562" on="1"/>
        <pt x="273" y="520" on="0"/>
      </contour>
    </TTGlyph>
    <TTGlyph name="dieresis" xMin="191" yMin="5" xMax="620" yMax="184">
      <contour>
        <pt x="340" y="22" on="0"/>
        <pt x="299" y="5" on="0"/>
        <pt x="232" y="5" on="0"/>
        <pt x="191" y="59" on="0"/>
        <pt x="191" y="110" on="0"/>
        <pt x="202" y="143" on="0"/>
        <pt x="214" y="156" on="1"/>
        <pt x="240" y="184" on="0"/>
        <pt x="333" y="184" on="0"/>
        <pt x="382" y="133" on="0"/>
        <pt x="382" y="83" on="0"/>
        <pt x="368" y="49" on="0"/>
      </contour>
      <contour>
        <pt x="578" y="22" on="0"/>
        <pt x="538" y="5" on="0"/>
        <pt x="470" y="5" on="0"/>
        <pt x="429" y="59" on="0"/>
        <pt x="429" y="110" on="0"/>
        <pt x="440" y="143" on="0"/>
        <pt x="452" y="156" on="1"/>
        <pt x="478" y="184" on="0"/>
        <pt x="571" y="184" on="0"/>
        <pt x="620" y="133" on="0"/>
        <pt x="620" y="83" on="0"/>
        <pt x="606" y="49" on="0"/>
      </contour>
    </TTGlyph>
    <TTGlyph name="divide" xMin="42" yMin="34" xMax="390" yMax="600">
      <contour>
        <pt x="272" y="214" on="1"/>
        <pt x="267" y="188" on="0"/>
        <pt x="260" y="146" on="0"/>
        <pt x="256" y="125" on="1"/>
        <pt x="250" y="86" on="0"/>
        <pt x="242" y="36" on="1"/>
        <pt x="202" y="34" on="0"/>
        <pt x="150" y="34" on="1"/>
        <pt x="96" y="34" on="1"/>
        <pt x="108" y="96" on="0"/>
        <pt x="121" y="184" on="0"/>
        <pt x="126" y="213" on="1"/>
        <pt x="172" y="215" on="0"/>
        <pt x="201" y="215" on="1"/>
        <pt x="244" y="215" on="1"/>
        <pt x="258" y="215" on="0"/>
      </contour>
      <contour>
        <pt x="166" y="435" on="1"/>
        <pt x="179" y="525" on="0"/>
        <pt x="192" y="596" on="1"/>
        <pt x="239" y="596" on="0"/>
        <pt x="312" y="599" on="0"/>
        <pt x="341" y="600" on="1"/>
        <pt x="329" y="559" on="0"/>
        <pt x="309" y="439" on="1"/>
        <pt x="243" y="435" on="0"/>
      </contour>
      <contour>
        <pt x="168" y="261" on="1"/>
        <pt x="87" y="260" on="1"/>
        <pt x="64" y="259" on="0"/>
        <pt x="42" y="259" on="1"/>
        <pt x="72" y="397" on="1"/>
        <pt x="159" y="394" on="0"/>
        <pt x="182" y="394" on="1"/>
        <pt x="228" y="394" on="0"/>
        <pt x="303" y="394" on="0"/>
        <pt x="359" y="396" on="0"/>
        <pt x="390" y="397" on="1"/>
        <pt x="364" y="258" on="1"/>
      </contour>
    </TTGlyph>
    <TTGlyph name="dollar" xMin="21" yMin="-74" xMax="525" yMax="832">
      <contour>
        <pt x="145" y="-74" on="1"/>
        <pt x="157" y="-12" on="0"/>
        <pt x="168" y="20" on="1"/>
        <pt x="86" y="29" on="0"/>
        <pt x="21" y="111" on="1"/>
        <pt x="95" y="260" on="1"/>
        <pt x="109" y="232" on="0"/>
        <pt x="132" y="211" on="1"/>
        <pt x="171" y="174" on="0"/>
        <pt x="224" y="174" on="0"/>
        <pt x="267" y="208" on="0"/>
        <pt x="267" y="250" on="1"/>
        <pt x="267" y="279" on="0"/>
        <pt x="222" y="324" on="1"/>
        <pt x="203" y="343" on="0"/>
        <pt x="157" y="385" on="0"/>
        <pt x="138" y="408" on="1"/>
        <pt x="93" y="462" on="0"/>
        <pt x="93" y="511" on="1"/>
        <pt x="93" y="571" on="0"/>
        <pt x="145" y="624" on="1"/>
        <pt x="190" y="671" on="0"/>
        <pt x="264" y="702" on="1"/>
        <pt x="275" y="754" on="0"/>
        <pt x="294" y="816" on="1"/>
        <pt x="434" y="832" on="1"/>
        <pt x="393" y="729" on="1"/>
        <pt x="487" y="726" on="0"/>
        <pt x="515" y="660" on="1"/>
        <pt x="525" y="636" on="0"/>
        <pt x="525" y="589" on="0"/>
        <pt x="521" y="562" on="0"/>
        <pt x="519" y="547" on="1"/>
        <pt x="372" y="514" on="1"/>
        <pt x="376" y="537" on="1"/>
        <pt x="376" y="568" on="0"/>
        <pt x="352" y="595" on="0"/>
        <pt x="326" y="595" on="0"/>
        <pt x="304" y="586" on="0"/>
        <pt x="294" y="578" on="1"/>
        <pt x="273" y="562" on="0"/>
        <pt x="273" y="520" on="0"/>
        <pt x="301" y="491" on="0"/>
        <pt x="342" y="460" on="0"/>
        <pt x="390" y="423" on="0"/>
        <pt x="410" y="398" on="1"/>
        <pt x="459" y="341" on="0"/>
        <pt x="459" y="264" on="1"/>
        <pt x="459" y="182" on="0"/>
        <pt x="408" y="120" on="1"/>
        <pt x="359" y="60" on="0"/>
        <pt x="283" y="35" on="1"/>
        <pt x="273" y="-38" on="0"/>
        <pt x="273" y="-62" on="1"/>
      </contour>
    </TTGlyph>
    <TTGlyph name="dotlessi" xMin="5" yMin="1" xMax="292" yMax="742">
      <contour>
        <pt x="292" y="742" on="1"/>
        <pt x="230" y="389" on="0"/>
        <pt x="174" y="20" on="1"/>
        <pt x="145" y="20" on="0"/>
        <pt x="7" y="2" on="0"/>
        <pt x="5" y="1" on="1"/>
        <pt x="47" y="186" on="0"/>
        <pt x="111" y="579" on="0"/>
        <pt x="132" y="717" on="1"/>
      </contour>
    </TTGlyph>
    <TTGlyph name="e" xMin="8" yMin="-1" xMax="466" yMax="755">
      <contour>
        <pt x="8" y="-1" on="1"/>
        <pt x="142" y="727" on="1"/>
        <pt x="466" y="755" on="1"/>
        <pt x="459" y="732" on="0"/>
        <pt x="449" y="689" on="0"/>
        <pt x="439" y="647" on="0"/>
        <pt x="436" y="631" on="1"/>
        <pt x="406" y="628" on="0"/>
        <pt x="354" y="628" on="1"/>
        <pt x="285" y="628" on="1"/>
        <pt x="249" y="444" on="1"/>
        <pt x="304" y="447" on="0"/>
        <pt x="378" y="449" on="0"/>
        <pt x="389" y="450" on="1"/>
        <pt x="385" y="421" on="0"/>
        <pt x="378" y="366" on="0"/>
        <pt x="373" y="337" on="1"/>
        <pt x="362" y="336" on="0"/>
        <pt x="316" y="335" on="0"/>
        <pt x="266" y="333" on="0"/>
        <pt x="235" y="332" on="1"/>
        <pt x="200" y="143" on="1"/>
        <pt x="349" y="167" on="1"/>
        <pt x="339" y="50" on="1"/>
      </contour>
    </TTGlyph>
    <TTGlyph name="eacute" xMin="58" yMin="-1" xMax="516" yMax="1132">
      <component glyphName="e" x="50" y="0" flags="0x1204"/>
      <component glyphName="acute" x="139" y="772" flags="0x1004"/>
    </TTGlyph>
    <TTGlyph name="ecircumflex" xMin="58" yMin="-1" xMax="516" yMax="1051">
      <component glyphName="e" x="50" y="0" flags="0x1204"/>
      <component glyphName="circumflex" x="122" y="772" flags="0x1004"/>
    </TTGlyph>
    <TTGlyph name="edieresis" xMin="58" yMin="-1" xMax="576" yMax="956">
      <component glyphName="e" x="50" y="0" flags="0x1204"/>
      <component glyphName="dieresis" x="-44" y="772" flags="0x1004"/>
    </TTGlyph>
    <TTGlyph name="egrave" xMin="58" yMin="-1" xMax="516" yMax="1102">
      <component glyphName="e" x="50" y="0" flags="0x1204"/>
      <component glyphName="grave" x="72" y="772" flags="0x1004"/>
    </TTGlyph>
    <TTGlyph name="eight" xMin="20" yMin="-11" xMax="602" yMax="762">
      <contour>
        <pt x="184" y="407" on="1"/>
        <pt x="121" y="459" on="0"/>
        <pt x="121" y="525" on="1"/>
        <pt x="121" y="570" on="0"/>
        <pt x="175" y="655" on="0"/>
        <pt x="262" y="721" on="0"/>
        <pt x="373" y="762" on="0"/>
        <pt x="473" y="762" on="0"/>
        <pt x="538" y="736" on="0"/>
        <pt x="560" y="714" on="1"/>
        <pt x="602" y="672" on="0"/>
        <pt x="602" y="606" on="1"/>
        <pt x="602" y="518" on="0"/>
        <pt x="531" y="454" on="1"/>
        <pt x="508" y="434" on="0"/>
        <pt x="478" y="421" on="1"/>
        <pt x="546" y="349" on="0"/>
        <pt x="546" y="259" on="1"/>
        <pt x="546" y="206" on="0"/>
        <pt x="497" y="109" on="0"/>
        <pt x="454" y="72" on="1"/>
        <pt x="361" y="-11" on="0"/>
        <pt x="232" y="-11" on="1"/>
        <pt x="81" y="-11" on="0"/>
        <pt x="36" y="80" on="1"/>
        <pt x="20" y="113" on="0"/>
        <pt x="20" y="192" on="0"/>
        <pt x="38" y="267" on="0"/>
        <pt x="58" y="301" on="1"/>
        <pt x="103" y="378" on="0"/>
      </contour>
      <contour>
        <pt x="422" y="497" on="0"/>
        <pt x="441" y="531" on="0"/>
        <pt x="441" y="559" on="0"/>
        <pt x="428" y="578" on="0"/>
        <pt x="418" y="584" on="1"/>
        <pt x="398" y="595" on="0"/>
        <pt x="347" y="595" on="0"/>
        <pt x="314" y="580" on="0"/>
        <pt x="303" y="568" on="1"/>
        <pt x="282" y="545" on="0"/>
        <pt x="282" y="487" on="0"/>
        <pt x="311" y="452" on="0"/>
        <pt x="355" y="452" on="0"/>
        <pt x="392" y="470" on="0"/>
      </contour>
      <contour>
        <pt x="392" y="293" on="0"/>
        <pt x="348" y="335" on="0"/>
        <pt x="294" y="335" on="0"/>
        <pt x="241" y="313" on="0"/>
        <pt x="219" y="295" on="1"/>
        <pt x="169" y="254" on="0"/>
        <pt x="169" y="210" on="1"/>
        <pt x="169" y="184" on="0"/>
        <pt x="210" y="145" on="0"/>
        <pt x="297" y="145" on="0"/>
        <pt x="348" y="162" on="0"/>
        <pt x="364" y="176" on="1"/>
        <pt x="392" y="200" on="0"/>
      </contour>
    </TTGlyph>
    <TTGlyph name="emdash" xMin="44" yMin="244" xMax="574" yMax="427">
      <contour>
        <pt x="268" y="422" on="1"/>
        <pt x="427" y="424" on="1"/>
        <pt x="495" y="425" on="0"/>
        <pt x="574" y="427" on="1"/>
        <pt x="539" y="244" on="1"/>
        <pt x="511" y="244" on="0"/>
        <pt x="416" y="246" on="0"/>
        <pt x="308" y="247" on="0"/>
        <pt x="196" y="248" on="0"/>
        <pt x="105" y="249" on="0"/>
        <pt x="46" y="250" on="0"/>
        <pt x="44" y="250" on="1"/>
        <pt x="83" y="422" on="1"/>
        <pt x="87" y="424" on="0"/>
        <pt x="115" y="424" on="1"/>
        <pt x="237" y="422" on="1"/>
      </contour>
    </TTGlyph>
    <TTGlyph name="endash" xMin="92" yMin="244" xMax="459" yMax="427">
      <component glyphName="hyphen" x="50" y="0" flags="0x1204"/>
    </TTGlyph>
    <TTGlyph name="equal" xMin="9" yMin="3" xMax="340" yMax="426">
      <contour>
        <pt x="65" y="262" on="1"/>
        <pt x="74" y="333" on="0"/>
        <pt x="78" y="420" on="1"/>
        <pt x="130" y="416" on="0"/>
        <pt x="176" y="416" on="1"/>
        <pt x="262" y="416" on="0"/>
        <pt x="340" y="426" on="1"/>
        <pt x="313" y="341" on="0"/>
        <pt x="298" y="262" on="1"/>
        <pt x="188" y="261" on="1"/>
        <pt x="157" y="261" on="0"/>
        <pt x="96" y="262" on="0"/>
      </contour>
      <contour>
        <pt x="9" y="3" on="1"/>
        <pt x="36" y="79" on="0"/>
        <pt x="52" y="165" on="1"/>
        <pt x="130" y="165" on="0"/>
        <pt x="245" y="165" on="0"/>
        <pt x="281" y="163" on="1"/>
        <pt x="272" y="9" on="1"/>
        <pt x="219" y="12" on="0"/>
        <pt x="173" y="12" on="1"/>
        <pt x="79" y="12" on="0"/>
      </contour>
    </TTGlyph>
    <TTGlyph name="eth" xMin="13" yMin="2" xMax="513" yMax="748">
      <contour>
        <pt x="69" y="446" on="1"/>
        <pt x="72" y="445" on="0"/>
        <pt x="76" y="445" on="1"/>
        <pt x="92" y="445" on="1"/>
        <pt x="126" y="631" on="0"/>
        <pt x="139" y="725" on="1"/>
        <pt x="183" y="733" on="0"/>
        <pt x="273" y="748" on="0"/>
        <pt x="373" y="748" on="0"/>
        <pt x="447" y="710" on="0"/>
        <pt x="470" y="676" on="1"/>
        <pt x="513" y="614" on="0"/>
        <pt x="513" y="503" on="1"/>
        <pt x="513" y="391" on="0"/>
        <pt x="466" y="276" on="1"/>
        <pt x="390" y="87" on="0"/>
        <pt x="246" y="24" on="1"/>
        <pt x="196" y="2" on="0"/>
        <pt x="107" y="2" on="0"/>
        <pt x="44" y="21" on="0"/>
        <pt x="13" y="43" on="1"/>
        <pt x="34" y="146" on="0"/>
        <pt x="61" y="278" on="0"/>
        <pt x="72" y="339" on="1"/>
        <pt x="64" y="338" on="0"/>
        <pt x="58" y="338" on="1"/>
        <pt x="35" y="338" on="1"/>
      </contour>
      <contour>
        <pt x="253" y="337" on="1"/>
        <pt x="218" y="338" on="1"/>
        <pt x="208" y="289" on="0"/>
        <pt x="188" y="184" on="0"/>
        <pt x="175" y="124" on="1"/>
        <pt x="246" y="166" on="0"/>
        <pt x="304" y="286" on="1"/>
        <pt x="359" y="403" on="0"/>
        <pt x="359" y="502" on="1"/>
        <pt x="359" y="586" on="0"/>
        <pt x="310" y="614" on="1"/>
        <pt x="294" y="623" on="0"/>
        <pt x="272" y="623" on="1"/>
        <pt x="252" y="527" on="0"/>
        <pt x="237" y="445" on="1"/>
        <pt x="276" y="446" on="1"/>
        <pt x="285" y="446" on="0"/>
        <pt x="293" y="447" on="1"/>
        <pt x="268" y="337" on="1"/>
      </contour>
    </TTGlyph>
    <TTGlyph name="exclam" xMin="-4" yMin="-24" xMax="398" yMax="765">
      <contour>
        <pt x="398" y="765" on="1"/>
        <pt x="343" y="636" on="0"/>
        <pt x="252" y="375" on="0"/>
        <pt x="207" y="243" on="1"/>
        <pt x="177" y="243" on="0"/>
        <pt x="118" y="239" on="0"/>
        <pt x="88" y="237" on="1"/>
        <pt x="120" y="362" on="0"/>
        <pt x="180" y="612" on="0"/>
        <pt x="213" y="738" on="1"/>
        <pt x="232" y="741" on="0"/>
        <pt x="283" y="748" on="0"/>
        <pt x="334" y="756" on="0"/>
        <pt x="382" y="762" on="0"/>
      </contour>
      <contour>
        <pt x="91" y="-24" on="1"/>
        <pt x="64" y="-24" on="0"/>
        <pt x="30" y="-7" on="0"/>
        <pt x="19" y="6" on="1"/>
        <pt x="-4" y="35" on="0"/>
        <pt x="-4" y="73" on="1"/>
        <pt x="-4" y="138" on="0"/>
        <pt x="53" y="165" on="1"/>
        <pt x="72" y="174" on="0"/>
        <pt x="98" y="174" on="1"/>
        <pt x="158" y="174" on="0"/>
        <pt x="217" y="118" on="0"/>
        <pt x="217" y="82" on="1"/>
        <pt x="217" y="39" on="0"/>
        <pt x="184" y="9" on="1"/>
        <pt x="147" y="-24" on="0"/>
      </contour>
    </TTGlyph>
    <TTGlyph name="exclamdown" xMin="-73" yMin="2" xMax="329" yMax="791">
      <component glyphName="exclam" x="325" y="767" scale="-0.999877929688" flags="0x1004"/>
    </TTGlyph>
    <TTGlyph name="f" xMin="4" yMin="-1" xMax="481" yMax="754">
      <contour>
        <pt x="389" y="336" on="1"/>
        <pt x="370" y="336" on="0"/>
        <pt x="242" y="340" on="1"/>
        <pt x="195" y="38" on="1"/>
        <pt x="109" y="23" on="0"/>
        <pt x="4" y="-1" on="1"/>
        <pt x="34" y="108" on="0"/>
        <pt x="59" y="252" on="1"/>
        <pt x="106" y="517" on="0"/>
        <pt x="138" y="736" on="1"/>
        <pt x="481" y="754" on="1"/>
        <pt x="452" y="628" on="1"/>
        <pt x="291" y="628" on="1"/>
        <pt x="259" y="445" on="1"/>
        <pt x="291" y="446" on="0"/>
        <pt x="317" y="446" on="1"/>
        <pt x="368" y="446" on="1"/>
        <pt x="392" y="446" on="0"/>
        <pt x="406" y="447" on="1"/>
      </contour>
    </TTGlyph>
    <TTGlyph name="five" xMin="45" yMin="-5" xMax="528" yMax="747">
      <contour>
        <pt x="45" y="171" on="1"/>
        <pt x="45" y="206" on="0"/>
        <pt x="50" y="263" on="1"/>
        <pt x="208" y="251" on="1"/>
        <pt x="203" y="236" on="0"/>
        <pt x="203" y="206" on="0"/>
        <pt x="227" y="187" on="0"/>
        <pt x="257" y="187" on="0"/>
        <pt x="285" y="199" on="0"/>
        <pt x="296" y="211" on="1"/>
        <pt x="323" y="239" on="0"/>
        <pt x="323" y="285" on="1"/>
        <pt x="323" y="314" on="0"/>
        <pt x="308" y="326" on="1"/>
        <pt x="277" y="348" on="0"/>
        <pt x="214" y="348" on="1"/>
        <pt x="176" y="348" on="0"/>
        <pt x="71" y="330" on="1"/>
        <pt x="94" y="491" on="0"/>
        <pt x="138" y="732" on="1"/>
        <pt x="528" y="747" on="1"/>
        <pt x="508" y="580" on="1"/>
        <pt x="398" y="576" on="0"/>
        <pt x="271" y="570" on="1"/>
        <pt x="269" y="556" on="0"/>
        <pt x="266" y="534" on="1"/>
        <pt x="261" y="484" on="1"/>
        <pt x="446" y="484" on="0"/>
        <pt x="489" y="388" on="1"/>
        <pt x="502" y="358" on="0"/>
        <pt x="502" y="287" on="0"/>
        <pt x="477" y="211" on="0"/>
        <pt x="435" y="138" on="0"/>
        <pt x="378" y="73" on="0"/>
        <pt x="346" y="48" on="1"/>
        <pt x="275" y="-5" on="0"/>
        <pt x="211" y="-5" on="1"/>
        <pt x="134" y="-5" on="0"/>
        <pt x="89" y="46" on="1"/>
        <pt x="45" y="96" on="0"/>
      </contour>
    </TTGlyph>
    <TTGlyph name="four" xMin="23" yMin="-2" xMax="515" yMax="740">
      <contour>
        <pt x="23" y="241" on="1"/>
        <pt x="156" y="649" on="0"/>
        <pt x="184" y="729" on="1"/>
        <pt x="267" y="729" on="0"/>
        <pt x="348" y="740" on="1"/>
        <pt x="290" y="595" on="0"/>
        <pt x="215" y="353" on="1"/>
        <pt x="213" y="340" on="0"/>
        <pt x="210" y="329" on="1"/>
        <pt x="283" y="329" on="1"/>
        <pt x="284" y="336" on="0"/>
        <pt x="290" y="368" on="0"/>
        <pt x="298" y="411" on="0"/>
        <pt x="302" y="436" on="1"/>
        <pt x="315" y="508" on="0"/>
        <pt x="337" y="619" on="1"/>
        <pt x="421" y="632" on="0"/>
        <pt x="512" y="640" on="1"/>
        <pt x="511" y="630" on="0"/>
        <pt x="502" y="581" on="0"/>
        <pt x="491" y="519" on="0"/>
        <pt x="479" y="450" on="0"/>
        <pt x="467" y="388" on="0"/>
        <pt x="459" y="339" on="0"/>
        <pt x="457" y="329" on="1"/>
        <pt x="515" y="329" on="1"/>
        <pt x="473" y="165" on="1"/>
        <pt x="421" y="165" on="1"/>
        <pt x="412" y="31" on="1"/>
        <pt x="223" y="-2" on="1"/>
        <pt x="244" y="162" on="1"/>
        <pt x="68" y="148" on="1"/>
      </contour>
    </TTGlyph>
    <TTGlyph name="fraction" xMin="-60" yMin="-51" xMax="627" yMax="753">
      <contour>
        <pt x="459" y="753" on="1"/>
        <pt x="483" y="737" on="0"/>
        <pt x="627" y="720" on="1"/>
        <pt x="453" y="462" on="0"/>
        <pt x="110" y="-51" on="1"/>
        <pt x="-60" y="-11" on="1"/>
        <pt x="158" y="286" on="0"/>
        <pt x="372" y="616" on="1"/>
        <pt x="420" y="689" on="0"/>
      </contour>
    </TTGlyph>
    <TTGlyph name="g" xMin="43" yMin="-25" xMax="582" yMax="766">
      <contour>
        <pt x="441" y="562" on="1"/>
        <pt x="424" y="638" on="0"/>
        <pt x="382" y="638" on="1"/>
        <pt x="356" y="638" on="0"/>
        <pt x="295" y="565" on="0"/>
        <pt x="268" y="508" on="1"/>
        <pt x="207" y="375" on="0"/>
        <pt x="203" y="247" on="1"/>
        <pt x="203" y="183" on="0"/>
        <pt x="241" y="129" on="0"/>
        <pt x="291" y="129" on="0"/>
        <pt x="335" y="150" on="0"/>
        <pt x="352" y="168" on="1"/>
        <pt x="392" y="210" on="0"/>
        <pt x="394" y="267" on="1"/>
        <pt x="285" y="251" on="1"/>
        <pt x="304" y="352" on="1"/>
        <pt x="445" y="370" on="0"/>
        <pt x="557" y="390" on="1"/>
        <pt x="550" y="286" on="0"/>
        <pt x="482" y="131" on="0"/>
        <pt x="387" y="27" on="0"/>
        <pt x="277" y="-25" on="0"/>
        <pt x="190" y="-25" on="0"/>
        <pt x="122" y="8" on="0"/>
        <pt x="97" y="42" on="1"/>
        <pt x="43" y="114" on="0"/>
        <pt x="43" y="375" on="0"/>
        <pt x="119" y="571" on="0"/>
        <pt x="234" y="702" on="0"/>
        <pt x="367" y="766" on="0"/>
        <pt x="465" y="766" on="0"/>
        <pt x="525" y="737" on="0"/>
        <pt x="544" y="713" on="1"/>
        <pt x="582" y="667" on="0"/>
        <pt x="582" y="589" on="1"/>
      </contour>
    </TTGlyph>
    <TTGlyph name="germandbls" xMin="5" yMin="-10" xMax="532" yMax="760">
      <contour>
        <pt x="5" y="1" on="1"/>
        <pt x="68" y="277" on="0"/>
        <pt x="145" y="760" on="1"/>
        <pt x="458" y="760" on="0"/>
        <pt x="515" y="682" on="1"/>
        <pt x="532" y="658" on="0"/>
        <pt x="532" y="580" on="0"/>
        <pt x="492" y="511" on="0"/>
        <pt x="442" y="459" on="0"/>
        <pt x="398" y="417" on="0"/>
        <pt x="395" y="394" on="1"/>
        <pt x="395" y="392" on="1"/>
        <pt x="395" y="383" on="0"/>
        <pt x="414" y="343" on="0"/>
        <pt x="426" y="315" on="1"/>
        <pt x="457" y="243" on="0"/>
        <pt x="457" y="141" on="0"/>
        <pt x="441" y="73" on="0"/>
        <pt x="422" y="47" on="1"/>
        <pt x="380" y="-10" on="0"/>
        <pt x="296" y="-10" on="1"/>
        <pt x="242" y="-10" on="0"/>
        <pt x="204" y="41" on="1"/>
        <pt x="234" y="190" on="1"/>
        <pt x="242" y="165" on="0"/>
        <pt x="270" y="135" on="0"/>
        <pt x="283" y="135" on="1"/>
        <pt x="308" y="135" on="0"/>
        <pt x="308" y="180" on="1"/>
        <pt x="308" y="211" on="0"/>
        <pt x="290" y="251" on="0"/>
        <pt x="280" y="272" on="1"/>
        <pt x="252" y="327" on="0"/>
        <pt x="252" y="401" on="1"/>
        <pt x="252" y="443" on="0"/>
        <pt x="296" y="511" on="0"/>
        <pt x="348" y="564" on="0"/>
        <pt x="392" y="603" on="0"/>
        <pt x="392" y="614" on="1"/>
        <pt x="392" y="637" on="0"/>
        <pt x="274" y="637" on="1"/>
        <pt x="200" y="208" on="0"/>
        <pt x="174" y="20" on="1"/>
        <pt x="145" y="20" on="0"/>
        <pt x="7" y="2" on="0"/>
      </contour>
    </TTGlyph>
    <TTGlyph name="grave" xMin="78" yMin="13" xMax="345" yMax="330">
      <contour>
        <pt x="338" y="13" on="1"/>
        <pt x="165" y="53" on="0"/>
        <pt x="78" y="79" on="1"/>
        <pt x="84" y="109" on="0"/>
        <pt x="100" y="194" on="0"/>
        <pt x="117" y="281" on="0"/>
        <pt x="126" y="330" on="1"/>
        <pt x="166" y="287" on="0"/>
        <pt x="203" y="249" on="1"/>
        <pt x="280" y="169" on="0"/>
        <pt x="345" y="96" on="1"/>
      </contour>
    </TTGlyph>
    <TTGlyph name="greater" xMin="14" yMin="1" xMax="360" yMax="738">
      <contour>
        <pt x="141" y="738" on="1"/>
        <pt x="360" y="521" on="1"/>
        <pt x="340" y="418" on="0"/>
        <pt x="312" y="235" on="1"/>
        <pt x="237" y="178" on="0"/>
        <pt x="84" y="68" on="0"/>
        <pt x="14" y="1" on="1"/>
        <pt x="38" y="91" on="0"/>
        <pt x="63" y="246" on="1"/>
        <pt x="111" y="281" on="0"/>
        <pt x="209" y="346" on="0"/>
        <pt x="257" y="380" on="1"/>
        <pt x="117" y="505" on="1"/>
        <pt x="122" y="564" on="0"/>
        <pt x="135" y="679" on="0"/>
      </contour>
    </TTGlyph>
    <TTGlyph name="guillemotleft" xMin="44" yMin="30" xMax="552" yMax="667">
      <contour>
        <pt x="142" y="380" on="1"/>
        <pt x="253" y="244" on="1"/>
        <pt x="241" y="190" on="0"/>
        <pt x="220" y="84" on="0"/>
        <pt x="207" y="30" on="1"/>
        <pt x="165" y="82" on="0"/>
        <pt x="84" y="180" on="0"/>
        <pt x="44" y="235" on="1"/>
        <pt x="59" y="313" on="0"/>
        <pt x="87" y="511" on="1"/>
        <pt x="133" y="551" on="0"/>
        <pt x="278" y="643" on="0"/>
        <pt x="322" y="667" on="1"/>
        <pt x="297" y="571" on="0"/>
        <pt x="276" y="468" on="1"/>
        <pt x="228" y="436" on="0"/>
        <pt x="166" y="399" on="0"/>
      </contour>
      <contour>
        <pt x="372" y="380" on="1"/>
        <pt x="483" y="244" on="1"/>
        <pt x="471" y="190" on="0"/>
        <pt x="450" y="84" on="0"/>
        <pt x="437" y="30" on="1"/>
        <pt x="395" y="82" on="0"/>
        <pt x="314" y="180" on="0"/>
        <pt x="274" y="235" on="1"/>
        <pt x="289" y="313" on="0"/>
        <pt x="317" y="511" on="1"/>
        <pt x="363" y="551" on="0"/>
        <pt x="508" y="643" on="0"/>
        <pt x="552" y="667" on="1"/>
        <pt x="527" y="571" on="0"/>
        <pt x="506" y="468" on="1"/>
        <pt x="458" y="436" on="0"/>
        <pt x="396" y="399" on="0"/>
      </contour>
    </TTGlyph>
    <TTGlyph name="guillemotright" xMin="14" yMin="30" xMax="522" yMax="667">
      <contour>
        <pt x="424" y="337" on="1"/>
        <pt x="313" y="453" on="1"/>
        <pt x="325" y="507" on="0"/>
        <pt x="346" y="613" on="0"/>
        <pt x="359" y="667" on="1"/>
        <pt x="401" y="615" on="0"/>
        <pt x="482" y="517" on="0"/>
        <pt x="522" y="462" on="1"/>
        <pt x="507" y="384" on="0"/>
        <pt x="479" y="186" on="1"/>
        <pt x="439" y="149" on="0"/>
        <pt x="288" y="54" on="0"/>
        <pt x="244" y="30" on="1"/>
        <pt x="258" y="82" on="0"/>
        <pt x="283" y="198" on="0"/>
        <pt x="290" y="229" on="1"/>
        <pt x="330" y="262" on="0"/>
        <pt x="357" y="283" on="1"/>
        <pt x="410" y="323" on="0"/>
      </contour>
      <contour>
        <pt x="194" y="337" on="1"/>
        <pt x="83" y="453" on="1"/>
        <pt x="95" y="507" on="0"/>
        <pt x="116" y="613" on="0"/>
        <pt x="129" y="667" on="1"/>
        <pt x="171" y="615" on="0"/>
        <pt x="252" y="517" on="0"/>
        <pt x="292" y="462" on="1"/>
        <pt x="277" y="384" on="0"/>
        <pt x="249" y="186" on="1"/>
        <pt x="209" y="149" on="0"/>
        <pt x="58" y="54" on="0"/>
        <pt x="14" y="30" on="1"/>
        <pt x="28" y="82" on="0"/>
        <pt x="53" y="198" on="0"/>
        <pt x="60" y="229" on="1"/>
        <pt x="100" y="262" on="0"/>
        <pt x="127" y="283" on="1"/>
        <pt x="180" y="323" on="0"/>
      </contour>
    </TTGlyph>
    <TTGlyph name="guilsinglleft" xMin="32" yMin="30" xMax="371" yMax="754">
      <contour>
        <pt x="130" y="380" on="1"/>
        <pt x="281" y="244" on="1"/>
        <pt x="269" y="190" on="0"/>
        <pt x="248" y="84" on="0"/>
        <pt x="235" y="30" on="1"/>
        <pt x="184" y="82" on="0"/>
        <pt x="81" y="180" on="0"/>
        <pt x="32" y="235" on="1"/>
        <pt x="47" y="313" on="0"/>
        <pt x="75" y="511" on="1"/>
        <pt x="151" y="568" on="0"/>
        <pt x="301" y="685" on="0"/>
        <pt x="371" y="754" on="1"/>
        <pt x="349" y="676" on="0"/>
        <pt x="314" y="514" on="1"/>
        <pt x="269" y="478" on="0"/>
        <pt x="175" y="414" on="0"/>
      </contour>
    </TTGlyph>
    <TTGlyph name="guilsinglright" xMin="4" yMin="1" xMax="350" yMax="738">
      <contour>
        <pt x="131" y="738" on="1"/>
        <pt x="350" y="521" on="1"/>
        <pt x="330" y="418" on="0"/>
        <pt x="302" y="235" on="1"/>
        <pt x="227" y="178" on="0"/>
        <pt x="74" y="68" on="0"/>
        <pt x="4" y="1" on="1"/>
        <pt x="28" y="91" on="0"/>
        <pt x="53" y="246" on="1"/>
        <pt x="101" y="281" on="0"/>
        <pt x="199" y="346" on="0"/>
        <pt x="247" y="380" on="1"/>
        <pt x="107" y="505" on="1"/>
        <pt x="112" y="564" on="0"/>
        <pt x="125" y="679" on="0"/>
      </contour>
    </TTGlyph>
    <TTGlyph name="h" xMin="8" yMin="-2" xMax="559" yMax="758">
      <contour>
        <pt x="8" y="-2" on="1"/>
        <pt x="115" y="524" on="0"/>
        <pt x="138" y="748" on="1"/>
        <pt x="234" y="740" on="0"/>
        <pt x="304" y="740" on="1"/>
        <pt x="255" y="532" on="0"/>
        <pt x="239" y="448" on="1"/>
        <pt x="340" y="460" on="1"/>
        <pt x="354" y="532" on="0"/>
        <pt x="377" y="669" on="0"/>
        <pt x="395" y="741" on="1"/>
        <pt x="435" y="748" on="0"/>
        <pt x="525" y="755" on="0"/>
        <pt x="542" y="756" on="1"/>
        <pt x="559" y="758" on="1"/>
        <pt x="510" y="598" on="0"/>
        <pt x="463" y="309" on="1"/>
        <pt x="440" y="179" on="0"/>
        <pt x="421" y="43" on="1"/>
        <pt x="261" y="25" on="1"/>
        <pt x="274" y="86" on="0"/>
        <pt x="295" y="194" on="0"/>
        <pt x="316" y="300" on="0"/>
        <pt x="323" y="338" on="1"/>
        <pt x="223" y="329" on="1"/>
        <pt x="200" y="202" on="0"/>
        <pt x="166" y="31" on="1"/>
      </contour>
    </TTGlyph>
    <TTGlyph name="hungarumlaut" xMin="98" yMin="13" xMax="499" yMax="206">
      <contour>
        <pt x="105" y="13" on="1"/>
        <pt x="98" y="37" on="0"/>
        <pt x="98" y="114" on="1"/>
        <pt x="98" y="155" on="1"/>
        <pt x="98" y="165" on="0"/>
        <pt x="99" y="173" on="1"/>
        <pt x="482" y="206" on="1"/>
        <pt x="499" y="40" on="1"/>
        <pt x="418" y="35" on="0"/>
        <pt x="312" y="29" on="0"/>
        <pt x="246" y="25" on="0"/>
        <pt x="214" y="22" on="1"/>
        <pt x="163" y="18" on="0"/>
      </contour>
    </TTGlyph>
    <TTGlyph name="hungarumlaut.001" xMin="68" yMin="13" xMax="718" yMax="359">
      <contour>
        <pt x="105" y="13" on="1"/>
        <pt x="78" y="76" on="0"/>
        <pt x="68" y="96" on="1"/>
        <pt x="112" y="162" on="0"/>
        <pt x="198" y="295" on="0"/>
        <pt x="244" y="359" on="1"/>
        <pt x="270" y="297" on="0"/>
        <pt x="318" y="172" on="0"/>
        <pt x="345" y="110" on="1"/>
      </contour>
      <contour>
        <pt x="478" y="13" on="1"/>
        <pt x="451" y="76" on="0"/>
        <pt x="441" y="96" on="1"/>
        <pt x="485" y="162" on="0"/>
        <pt x="571" y="295" on="0"/>
        <pt x="617" y="359" on="1"/>
        <pt x="643" y="297" on="0"/>
        <pt x="691" y="172" on="0"/>
        <pt x="718" y="110" on="1"/>
      </contour>
    </TTGlyph>
    <TTGlyph name="hyphen" xMin="42" yMin="244" xMax="409" yMax="427">
      <contour>
        <pt x="374" y="244" on="1"/>
        <pt x="230" y="248" on="0"/>
        <pt x="198" y="248" on="1"/>
        <pt x="141" y="248" on="0"/>
        <pt x="69" y="245" on="0"/>
        <pt x="42" y="245" on="1"/>
        <pt x="91" y="426" on="1"/>
        <pt x="203" y="422" on="0"/>
        <pt x="231" y="422" on="1"/>
        <pt x="329" y="422" on="0"/>
        <pt x="409" y="427" on="1"/>
      </contour>
    </TTGlyph>
    <TTGlyph name="i" xMin="-6" yMin="1" xMax="301" yMax="742">
      <contour>
        <pt x="301" y="742" on="1"/>
        <pt x="187" y="162" on="0"/>
        <pt x="162" y="20" on="1"/>
        <pt x="134" y="20" on="0"/>
        <pt x="-4" y="2" on="0"/>
        <pt x="-6" y="1" on="1"/>
        <pt x="26" y="117" on="0"/>
        <pt x="53" y="254" on="1"/>
        <pt x="115" y="567" on="0"/>
        <pt x="141" y="717" on="1"/>
      </contour>
    </TTGlyph>
    <TTGlyph name="iacute" xMin="44" yMin="1" xMax="416" yMax="1132">
      <component glyphName="i" x="50" y="0" flags="0x1204"/>
      <component glyphName="acute" x="71" y="772" flags="0x1004"/>
    </TTGlyph>
    <TTGlyph name="icircumflex" xMin="44" yMin="1" xMax="424" yMax="1051">
      <component glyphName="i" x="50" y="0" flags="0x1204"/>
      <component glyphName="circumflex" x="30" y="772" flags="0x1004"/>
    </TTGlyph>
    <TTGlyph name="idieresis" xMin="44" yMin="1" xMax="493" yMax="956">
      <component glyphName="i" x="50" y="0" flags="0x1204"/>
      <component glyphName="dieresis" x="-127" y="772" flags="0x1004"/>
    </TTGlyph>
    <TTGlyph name="igrave" xMin="44" yMin="1" xMax="351" yMax="1102">
      <component glyphName="i" x="50" y="0" flags="0x1204"/>
      <component glyphName="grave" x="5" y="772" flags="0x1004"/>
    </TTGlyph>
    <TTGlyph name="j" xMin="-28" yMin="-1" xMax="410" yMax="784">
      <contour>
        <pt x="43" y="211" on="1"/>
        <pt x="48" y="201" on="0"/>
        <pt x="78" y="185" on="0"/>
        <pt x="108" y="185" on="0"/>
        <pt x="127" y="226" on="0"/>
        <pt x="141" y="281" on="0"/>
        <pt x="149" y="338" on="0"/>
        <pt x="171" y="455" on="0"/>
        <pt x="206" y="652" on="0"/>
        <pt x="229" y="751" on="1"/>
        <pt x="314" y="758" on="0"/>
        <pt x="410" y="784" on="1"/>
        <pt x="380" y="685" on="0"/>
        <pt x="355" y="573" on="1"/>
        <pt x="309" y="356" on="0"/>
        <pt x="284" y="227" on="0"/>
        <pt x="257" y="130" on="0"/>
        <pt x="235" y="90" on="1"/>
        <pt x="184" y="-1" on="0"/>
        <pt x="108" y="-1" on="1"/>
        <pt x="46" y="-1" on="0"/>
        <pt x="-28" y="53" on="1"/>
      </contour>
    </TTGlyph>
    <TTGlyph name="k" xMin="7" yMin="-1" xMax="617" yMax="765">
      <contour>
        <pt x="495" y="30" on="1"/>
        <pt x="447" y="32" on="0"/>
        <pt x="342" y="32" on="0"/>
        <pt x="284" y="30" on="1"/>
        <pt x="264" y="159" on="0"/>
        <pt x="244" y="309" on="1"/>
        <pt x="225" y="288" on="1"/>
        <pt x="218" y="257" on="0"/>
        <pt x="201" y="167" on="0"/>
        <pt x="183" y="76" on="0"/>
        <pt x="173" y="24" on="1"/>
        <pt x="7" y="-1" on="1"/>
        <pt x="115" y="499" on="0"/>
        <pt x="136" y="747" on="1"/>
        <pt x="160" y="744" on="0"/>
        <pt x="219" y="741" on="0"/>
        <pt x="275" y="737" on="0"/>
        <pt x="306" y="737" on="1"/>
        <pt x="305" y="733" on="0"/>
        <pt x="301" y="711" on="0"/>
        <pt x="295" y="679" on="0"/>
        <pt x="288" y="640" on="0"/>
        <pt x="275" y="575" on="0"/>
        <pt x="265" y="519" on="1"/>
        <pt x="271" y="520" on="1"/>
        <pt x="299" y="563" on="0"/>
        <pt x="329" y="611" on="1"/>
        <pt x="389" y="706" on="0"/>
        <pt x="413" y="742" on="1"/>
        <pt x="528" y="751" on="0"/>
        <pt x="617" y="765" on="1"/>
        <pt x="443" y="529" on="0"/>
        <pt x="379" y="426" on="1"/>
        <pt x="401" y="323" on="0"/>
        <pt x="463" y="130" on="0"/>
      </contour>
    </TTGlyph>
    <TTGlyph name="l" xMin="12" yMin="-2" xMax="323" yMax="754">
      <contour>
        <pt x="194" y="144" on="1"/>
        <pt x="232" y="147" on="0"/>
        <pt x="300" y="147" on="1"/>
        <pt x="302" y="108" on="0"/>
        <pt x="310" y="59" on="0"/>
        <pt x="313" y="36" on="0"/>
        <pt x="314" y="32" on="1"/>
        <pt x="283" y="33" on="1"/>
        <pt x="178" y="33" on="0"/>
        <pt x="74" y="14" on="1"/>
        <pt x="40" y="7" on="0"/>
        <pt x="12" y="-2" on="1"/>
        <pt x="36" y="183" on="0"/>
        <pt x="115" y="591" on="0"/>
        <pt x="143" y="730" on="1"/>
        <pt x="323" y="754" on="1"/>
        <pt x="230" y="360" on="0"/>
        <pt x="199" y="180" on="0"/>
      </contour>
    </TTGlyph>
    <TTGlyph name="less" xMin="48" yMin="30" xMax="387" yMax="754">
      <contour>
        <pt x="146" y="380" on="1"/>
        <pt x="297" y="244" on="1"/>
        <pt x="285" y="190" on="0"/>
        <pt x="264" y="84" on="0"/>
        <pt x="251" y="30" on="1"/>
        <pt x="200" y="82" on="0"/>
        <pt x="97" y="180" on="0"/>
        <pt x="48" y="235" on="1"/>
        <pt x="63" y="313" on="0"/>
        <pt x="91" y="511" on="1"/>
        <pt x="167" y="568" on="0"/>
        <pt x="317" y="685" on="0"/>
        <pt x="387" y="754" on="1"/>
        <pt x="365" y="676" on="0"/>
        <pt x="330" y="514" on="1"/>
        <pt x="285" y="478" on="0"/>
        <pt x="191" y="414" on="0"/>
      </contour>
    </TTGlyph>
    <TTGlyph name="logicalnot" xMin="69" yMin="249" xMax="461" yMax="501">
      <contour>
        <pt x="69" y="399" on="1"/>
        <pt x="88" y="490" on="1"/>
        <pt x="194" y="493" on="0"/>
        <pt x="331" y="497" on="0"/>
        <pt x="360" y="498" on="1"/>
        <pt x="411" y="498" on="0"/>
        <pt x="461" y="501" on="1"/>
        <pt x="423" y="359" on="0"/>
        <pt x="403" y="267" on="1"/>
        <pt x="243" y="249" on="1"/>
        <pt x="249" y="274" on="0"/>
        <pt x="262" y="322" on="0"/>
        <pt x="276" y="374" on="0"/>
        <pt x="283" y="399" on="1"/>
      </contour>
    </TTGlyph>
    <TTGlyph name="lslash" xMin="18" yMin="-2" xMax="377" yMax="754">
      <contour>
        <pt x="200" y="144" on="1"/>
        <pt x="238" y="147" on="0"/>
        <pt x="306" y="147" on="1"/>
        <pt x="308" y="108" on="0"/>
        <pt x="316" y="59" on="0"/>
        <pt x="319" y="36" on="0"/>
        <pt x="320" y="32" on="1"/>
        <pt x="289" y="33" on="1"/>
        <pt x="184" y="33" on="0"/>
        <pt x="80" y="14" on="1"/>
        <pt x="46" y="7" on="0"/>
        <pt x="18" y="-2" on="1"/>
        <pt x="36" y="142" on="0"/>
        <pt x="73" y="341" on="1"/>
        <pt x="64" y="337" on="0"/>
        <pt x="48" y="332" on="0"/>
        <pt x="36" y="327" on="0"/>
        <pt x="31" y="325" on="1"/>
        <pt x="42" y="452" on="1"/>
        <pt x="68" y="459" on="0"/>
        <pt x="97" y="469" on="1"/>
        <pt x="108" y="524" on="0"/>
        <pt x="125" y="619" on="0"/>
        <pt x="141" y="695" on="0"/>
        <pt x="149" y="730" on="1"/>
        <pt x="329" y="754" on="1"/>
        <pt x="322" y="724" on="0"/>
        <pt x="305" y="659" on="0"/>
        <pt x="287" y="578" on="0"/>
        <pt x="276" y="531" on="1"/>
        <pt x="293" y="537" on="0"/>
        <pt x="328" y="550" on="0"/>
        <pt x="359" y="561" on="0"/>
        <pt x="374" y="568" on="1"/>
        <pt x="377" y="445" on="1"/>
        <pt x="248" y="402" on="1"/>
        <pt x="211" y="225" on="0"/>
      </contour>
    </TTGlyph>
    <TTGlyph name="m" xMin="-31" yMin="6" xMax="704" yMax="773">
      <contour>
        <pt x="363" y="358" on="1"/>
        <pt x="478" y="667" on="0"/>
        <pt x="515" y="745" on="1"/>
        <pt x="566" y="751" on="0"/>
        <pt x="631" y="761" on="0"/>
        <pt x="677" y="768" on="0"/>
        <pt x="704" y="773" on="1"/>
        <pt x="655" y="483" on="0"/>
        <pt x="622" y="42" on="1"/>
        <pt x="443" y="10" on="1"/>
        <pt x="443" y="46" on="0"/>
        <pt x="452" y="126" on="1"/>
        <pt x="466" y="246" on="1"/>
        <pt x="476" y="337" on="0"/>
        <pt x="485" y="387" on="1"/>
        <pt x="476" y="387" on="1"/>
        <pt x="462" y="344" on="0"/>
        <pt x="427" y="249" on="0"/>
        <pt x="391" y="151" on="0"/>
        <pt x="356" y="56" on="0"/>
        <pt x="343" y="13" on="1"/>
        <pt x="307" y="12" on="0"/>
        <pt x="282" y="10" on="1"/>
        <pt x="222" y="7" on="1"/>
        <pt x="255" y="387" on="1"/>
        <pt x="240" y="387" on="1"/>
        <pt x="238" y="374" on="0"/>
        <pt x="221" y="311" on="0"/>
        <pt x="200" y="230" on="0"/>
        <pt x="175" y="143" on="0"/>
        <pt x="164" y="106" on="1"/>
        <pt x="146" y="42" on="0"/>
        <pt x="138" y="17" on="1"/>
        <pt x="-31" y="6" on="1"/>
        <pt x="132" y="498" on="0"/>
        <pt x="190" y="726" on="1"/>
        <pt x="247" y="726" on="0"/>
        <pt x="347" y="738" on="0"/>
        <pt x="405" y="743" on="1"/>
        <pt x="402" y="721" on="0"/>
        <pt x="395" y="665" on="0"/>
        <pt x="386" y="603" on="0"/>
        <pt x="376" y="538" on="0"/>
        <pt x="361" y="435" on="0"/>
        <pt x="349" y="358" on="1"/>
      </contour>
    </TTGlyph>
    <TTGlyph name="minus" xMin="24" yMin="126" xMax="284" yMax="284">
      <contour>
        <pt x="24" y="126" on="1"/>
        <pt x="55" y="284" on="1"/>
        <pt x="134" y="284" on="0"/>
        <pt x="248" y="284" on="0"/>
        <pt x="284" y="282" on="1"/>
        <pt x="275" y="128" on="1"/>
        <pt x="245" y="129" on="1"/>
        <pt x="32" y="126" on="1"/>
      </contour>
    </TTGlyph>
    <TTGlyph name="multiply" xMin="14" yMin="120" xMax="585" yMax="637">
      <contour>
        <pt x="14" y="139" on="1"/>
        <pt x="56" y="187" on="0"/>
        <pt x="211" y="376" on="1"/>
        <pt x="201" y="410" on="0"/>
        <pt x="192" y="442" on="1"/>
        <pt x="174" y="505" on="0"/>
        <pt x="154" y="569" on="1"/>
        <pt x="318" y="637" on="1"/>
        <pt x="324" y="604" on="0"/>
        <pt x="345" y="526" on="0"/>
        <pt x="352" y="492" on="1"/>
        <pt x="372" y="528" on="0"/>
        <pt x="436" y="626" on="1"/>
        <pt x="585" y="596" on="1"/>
        <pt x="543" y="550" on="0"/>
        <pt x="443" y="415" on="0"/>
        <pt x="415" y="373" on="1"/>
        <pt x="451" y="262" on="0"/>
        <pt x="487" y="177" on="1"/>
        <pt x="485" y="176" on="0"/>
        <pt x="461" y="170" on="0"/>
        <pt x="424" y="160" on="0"/>
        <pt x="380" y="147" on="0"/>
        <pt x="359" y="141" on="1"/>
        <pt x="305" y="125" on="0"/>
        <pt x="291" y="120" on="1"/>
        <pt x="285" y="143" on="0"/>
        <pt x="277" y="183" on="0"/>
        <pt x="269" y="222" on="0"/>
        <pt x="267" y="234" on="1"/>
        <pt x="256" y="215" on="0"/>
        <pt x="188" y="124" on="1"/>
      </contour>
    </TTGlyph>
    <TTGlyph name="n" xMin="5" yMin="-5" xMax="570" yMax="768">
      <contour>
        <pt x="161" y="750" on="1"/>
        <pt x="190" y="750" on="1"/>
        <pt x="210" y="750" on="0"/>
        <pt x="302" y="754" on="1"/>
        <pt x="316" y="682" on="0"/>
        <pt x="328" y="620" on="1"/>
        <pt x="360" y="442" on="0"/>
        <pt x="372" y="391" on="1"/>
        <pt x="376" y="412" on="0"/>
        <pt x="386" y="466" on="0"/>
        <pt x="398" y="525" on="0"/>
        <pt x="404" y="556" on="1"/>
        <pt x="414" y="605" on="0"/>
        <pt x="445" y="753" on="1"/>
        <pt x="570" y="768" on="1"/>
        <pt x="461" y="263" on="0"/>
        <pt x="434" y="43" on="1"/>
        <pt x="422" y="43" on="0"/>
        <pt x="281" y="9" on="0"/>
        <pt x="267" y="4" on="1"/>
        <pt x="247" y="278" on="0"/>
        <pt x="223" y="392" on="1"/>
        <pt x="220" y="373" on="0"/>
        <pt x="210" y="322" on="0"/>
        <pt x="205" y="293" on="1"/>
        <pt x="186" y="184" on="0"/>
        <pt x="155" y="30" on="1"/>
        <pt x="5" y="-5" on="1"/>
        <pt x="119" y="538" on="0"/>
        <pt x="138" y="751" on="1"/>
        <pt x="152" y="750" on="0"/>
      </contour>
    </TTGlyph>
    <TTGlyph name="nine" xMin="72" yMin="7" xMax="557" yMax="761">
      <contour>
        <pt x="356" y="349" on="1"/>
        <pt x="310" y="321" on="0"/>
        <pt x="220" y="321" on="0"/>
        <pt x="154" y="349" on="0"/>
        <pt x="128" y="375" on="1"/>
        <pt x="72" y="433" on="0"/>
        <pt x="72" y="522" on="1"/>
        <pt x="72" y="630" on="0"/>
        <pt x="148" y="698" on="1"/>
        <pt x="218" y="761" on="0"/>
        <pt x="314" y="761" on="1"/>
        <pt x="414" y="761" on="0"/>
        <pt x="481" y="694" on="1"/>
        <pt x="557" y="616" on="0"/>
        <pt x="557" y="482" on="1"/>
        <pt x="557" y="378" on="0"/>
        <pt x="487" y="203" on="0"/>
        <pt x="373" y="77" on="0"/>
        <pt x="227" y="7" on="0"/>
        <pt x="150" y="7" on="1"/>
        <pt x="165" y="177" on="1"/>
        <pt x="234" y="177" on="0"/>
        <pt x="338" y="270" on="0"/>
      </contour>
      <contour>
        <pt x="239" y="508" on="0"/>
        <pt x="284" y="477" on="0"/>
        <pt x="310" y="477" on="1"/>
        <pt x="336" y="477" on="0"/>
        <pt x="379" y="506" on="0"/>
        <pt x="379" y="533" on="1"/>
        <pt x="379" y="581" on="0"/>
        <pt x="345" y="612" on="0"/>
        <pt x="308" y="612" on="0"/>
        <pt x="278" y="602" on="0"/>
        <pt x="266" y="593" on="1"/>
        <pt x="239" y="573" on="0"/>
      </contour>
    </TTGlyph>
    <TTGlyph name="notequal" xMin="59" yMin="3" xMax="390" yMax="426">
      <component glyphName="equal" x="50" y="0" flags="0x1204"/>
    </TTGlyph>
    <TTGlyph name="ntilde" xMin="55" yMin="-5" xMax="638" yMax="1005">
      <component glyphName="n" x="50" y="0" flags="0x1204"/>
      <component glyphName="tilde" x="177" y="772" flags="0x1004"/>
    </TTGlyph>
    <TTGlyph name="numbersign" xMin="45" yMin="-5" xMax="706" yMax="759">
      <contour>
        <pt x="63" y="310" on="1"/>
        <pt x="141" y="314" on="1"/>
        <pt x="143" y="322" on="0"/>
        <pt x="147" y="347" on="0"/>
        <pt x="150" y="360" on="1"/>
        <pt x="154" y="386" on="0"/>
        <pt x="157" y="408" on="1"/>
        <pt x="87" y="408" on="1"/>
        <pt x="88" y="419" on="0"/>
        <pt x="90" y="443" on="1"/>
        <pt x="94" y="479" on="0"/>
        <pt x="101" y="551" on="1"/>
        <pt x="182" y="556" on="1"/>
        <pt x="192" y="604" on="0"/>
        <pt x="210" y="709" on="0"/>
        <pt x="214" y="728" on="1"/>
        <pt x="226" y="729" on="0"/>
        <pt x="264" y="732" on="0"/>
        <pt x="286" y="734" on="1"/>
        <pt x="351" y="740" on="0"/>
        <pt x="378" y="741" on="1"/>
        <pt x="370" y="713" on="0"/>
        <pt x="347" y="599" on="0"/>
        <pt x="339" y="560" on="1"/>
        <pt x="451" y="566" on="1"/>
        <pt x="476" y="682" on="0"/>
        <pt x="494" y="743" on="1"/>
        <pt x="543" y="746" on="0"/>
        <pt x="651" y="759" on="1"/>
        <pt x="645" y="741" on="0"/>
        <pt x="629" y="679" on="0"/>
        <pt x="612" y="615" on="0"/>
        <pt x="603" y="577" on="1"/>
        <pt x="706" y="581" on="1"/>
        <pt x="685" y="501" on="0"/>
        <pt x="673" y="421" on="1"/>
        <pt x="566" y="415" on="1"/>
        <pt x="560" y="387" on="0"/>
        <pt x="557" y="371" on="1"/>
        <pt x="554" y="348" on="0"/>
        <pt x="548" y="322" on="1"/>
        <pt x="660" y="329" on="1"/>
        <pt x="636" y="180" on="0"/>
        <pt x="634" y="162" on="1"/>
        <pt x="612" y="163" on="1"/>
        <pt x="561" y="162" on="1"/>
        <pt x="522" y="161" on="1"/>
        <pt x="515" y="126" on="0"/>
        <pt x="505" y="56" on="0"/>
        <pt x="498" y="21" on="1"/>
        <pt x="414" y="24" on="0"/>
        <pt x="333" y="24" on="1"/>
        <pt x="342" y="58" on="0"/>
        <pt x="360" y="125" on="0"/>
        <pt x="368" y="160" on="1"/>
        <pt x="256" y="153" on="1"/>
        <pt x="242" y="70" on="0"/>
        <pt x="227" y="11" on="1"/>
        <pt x="128" y="6" on="0"/>
        <pt x="60" y="-5" on="1"/>
        <pt x="84" y="69" on="0"/>
        <pt x="104" y="143" on="1"/>
        <pt x="93" y="143" on="0"/>
        <pt x="56" y="141" on="0"/>
        <pt x="45" y="141" on="1"/>
      </contour>
      <contour>
        <pt x="420" y="414" on="1"/>
        <pt x="312" y="408" on="1"/>
        <pt x="291" y="314" on="1"/>
        <pt x="395" y="320" on="1"/>
        <pt x="401" y="320" on="0"/>
        <pt x="418" y="408" on="0"/>
      </contour>
    </TTGlyph>
    <TTGlyph name="o" xMin="32" yMin="-4" xMax="573" yMax="766">
      <contour>
        <pt x="431" y="468" on="1"/>
        <pt x="431" y="551" on="0"/>
        <pt x="383" y="551" on="1"/>
        <pt x="322" y="551" on="0"/>
        <pt x="273" y="491" on="1"/>
        <pt x="234" y="443" on="0"/>
        <pt x="206" y="360" on="1"/>
        <pt x="184" y="292" on="0"/>
        <pt x="184" y="232" on="1"/>
        <pt x="184" y="192" on="0"/>
        <pt x="218" y="172" on="1"/>
        <pt x="228" y="165" on="0"/>
        <pt x="241" y="165" on="1"/>
        <pt x="287" y="165" on="0"/>
        <pt x="358" y="228" on="0"/>
        <pt x="406" y="320" on="0"/>
        <pt x="431" y="425" on="0"/>
      </contour>
      <contour>
        <pt x="573" y="531" on="1"/>
        <pt x="573" y="470" on="0"/>
        <pt x="538" y="322" on="0"/>
        <pt x="478" y="198" on="0"/>
        <pt x="399" y="100" on="0"/>
        <pt x="356" y="66" on="1"/>
        <pt x="267" y="-4" on="0"/>
        <pt x="185" y="-4" on="1"/>
        <pt x="116" y="-4" on="0"/>
        <pt x="76" y="46" on="1"/>
        <pt x="32" y="101" on="0"/>
        <pt x="32" y="206" on="1"/>
        <pt x="32" y="320" on="0"/>
        <pt x="85" y="452" on="1"/>
        <pt x="138" y="584" on="0"/>
        <pt x="224" y="672" on="1"/>
        <pt x="317" y="766" on="0"/>
        <pt x="419" y="766" on="1"/>
        <pt x="503" y="766" on="0"/>
        <pt x="542" y="698" on="1"/>
        <pt x="573" y="643" on="0"/>
      </contour>
    </TTGlyph>
    <TTGlyph name="oacute" xMin="82" yMin="-4" xMax="661" yMax="1132">
      <component glyphName="o" x="50" y="0" flags="0x1204"/>
      <component glyphName="acute" x="316" y="772" flags="0x1004"/>
    </TTGlyph>
    <TTGlyph name="ocircumflex" xMin="82" yMin="-4" xMax="643" yMax="1051">
      <component glyphName="o" x="50" y="0" flags="0x1204"/>
      <component glyphName="circumflex" x="249" y="772" flags="0x1004"/>
    </TTGlyph>
    <TTGlyph name="odieresis" xMin="82" yMin="-4" xMax="701" yMax="956">
      <component glyphName="o" x="50" y="0" flags="0x1204"/>
      <component glyphName="dieresis" x="81" y="772" flags="0x1004"/>
    </TTGlyph>
    <TTGlyph name="oe" xMin="36" yMin="10" xMax="691" yMax="757">
      <contour>
        <pt x="580" y="338" on="1"/>
        <pt x="548" y="338" on="0"/>
        <pt x="484" y="342" on="1"/>
        <pt x="449" y="153" on="1"/>
        <pt x="574" y="169" on="1"/>
        <pt x="564" y="52" on="1"/>
        <pt x="264" y="10" on="1"/>
        <pt x="254" y="10" on="1"/>
        <pt x="144" y="10" on="0"/>
        <pt x="86" y="77" on="1"/>
        <pt x="36" y="136" on="0"/>
        <pt x="36" y="344" on="0"/>
        <pt x="86" y="456" on="1"/>
        <pt x="164" y="635" on="0"/>
        <pt x="302" y="708" on="1"/>
        <pt x="348" y="733" on="0"/>
        <pt x="398" y="737" on="1"/>
        <pt x="691" y="757" on="1"/>
        <pt x="673" y="699" on="0"/>
        <pt x="661" y="633" on="1"/>
        <pt x="649" y="633" on="1"/>
        <pt x="649" y="633" on="0"/>
        <pt x="534" y="638" on="1"/>
        <pt x="498" y="454" on="1"/>
        <pt x="516" y="453" on="0"/>
        <pt x="549" y="452" on="0"/>
        <pt x="566" y="452" on="1"/>
        <pt x="614" y="452" on="1"/>
        <pt x="600" y="351" on="0"/>
        <pt x="598" y="339" on="1"/>
      </contour>
      <contour>
        <pt x="365" y="559" on="1"/>
        <pt x="332" y="554" on="0"/>
        <pt x="267" y="496" on="0"/>
        <pt x="214" y="413" on="0"/>
        <pt x="182" y="317" on="0"/>
        <pt x="182" y="233" on="0"/>
        <pt x="226" y="175" on="0"/>
        <pt x="276" y="175" on="1"/>
        <pt x="285" y="175" on="1"/>
        <pt x="289" y="175" on="0"/>
        <pt x="294" y="176" on="1"/>
      </contour>
    </TTGlyph>
    <TTGlyph name="ograve" xMin="82" yMin="-4" xMax="623" yMax="1102">
      <component glyphName="o" x="50" y="0" flags="0x1204"/>
      <component glyphName="grave" x="249" y="772" flags="0x1004"/>
    </TTGlyph>
    <TTGlyph name="one" xMin="75" yMin="4" xMax="409" yMax="738">
      <contour>
        <pt x="75" y="507" on="1"/>
        <pt x="100" y="686" on="1"/>
        <pt x="180" y="703" on="0"/>
        <pt x="320" y="724" on="0"/>
        <pt x="409" y="738" on="1"/>
        <pt x="352" y="505" on="0"/>
        <pt x="304" y="222" on="1"/>
        <pt x="290" y="135" on="0"/>
        <pt x="275" y="44" on="1"/>
        <pt x="209" y="24" on="0"/>
        <pt x="93" y="4" on="1"/>
        <pt x="114" y="96" on="0"/>
        <pt x="141" y="227" on="0"/>
        <pt x="159" y="314" on="0"/>
        <pt x="168" y="358" on="1"/>
        <pt x="179" y="415" on="0"/>
        <pt x="199" y="525" on="1"/>
        <pt x="172" y="523" on="0"/>
        <pt x="89" y="509" on="0"/>
      </contour>
    </TTGlyph>
    <TTGlyph name="onehalf" xMin="153" yMin="-30" xMax="1216" yMax="774">
      <component glyphName="uni00B9" x="71" y="0" flags="0x1004"/>
      <component glyphName="slash" x="284" y="0" flags="0x1004"/>
      <component glyphName="uni00B2" x="689" y="-199" flags="0x1004"/>
    </TTGlyph>
    <TTGlyph name="onequarter" xMin="104" yMin="-43" xMax="1118" yMax="774">
      <contour>
        <pt x="654" y="140" on="1"/>
        <pt x="813" y="506" on="1"/>
        <pt x="905" y="506" on="0"/>
        <pt x="974" y="514" on="1"/>
        <pt x="915" y="403" on="0"/>
        <pt x="843" y="224" on="1"/>
        <pt x="841" y="213" on="0"/>
        <pt x="838" y="206" on="1"/>
        <pt x="910" y="206" on="1"/>
        <pt x="911" y="211" on="0"/>
        <pt x="917" y="235" on="0"/>
        <pt x="925" y="268" on="0"/>
        <pt x="934" y="306" on="0"/>
        <pt x="950" y="370" on="0"/>
        <pt x="963" y="424" on="1"/>
        <pt x="1016" y="430" on="0"/>
        <pt x="1095" y="437" on="0"/>
        <pt x="1116" y="439" on="1"/>
        <pt x="1114" y="428" on="0"/>
        <pt x="1098" y="361" on="0"/>
        <pt x="1080" y="285" on="0"/>
        <pt x="1064" y="218" on="0"/>
        <pt x="1062" y="206" on="1"/>
        <pt x="1118" y="206" on="1"/>
        <pt x="1077" y="83" on="1"/>
        <pt x="1026" y="83" on="1"/>
        <pt x="1017" y="-18" on="1"/>
        <pt x="851" y="-43" on="1"/>
        <pt x="871" y="81" on="1"/>
        <pt x="699" y="70" on="1"/>
      </contour>
      <contour>
        <pt x="104" y="545" on="1"/>
        <pt x="109" y="575" on="0"/>
        <pt x="124" y="695" on="1"/>
        <pt x="177" y="707" on="0"/>
        <pt x="420" y="738" on="1"/>
        <pt x="397" y="623" on="0"/>
        <pt x="348" y="341" on="0"/>
        <pt x="319" y="195" on="1"/>
        <pt x="257" y="178" on="0"/>
        <pt x="144" y="161" on="1"/>
        <pt x="199" y="420" on="0"/>
        <pt x="223" y="560" on="1"/>
        <pt x="182" y="557" on="0"/>
        <pt x="118" y="547" on="0"/>
      </contour>
      <contour>
        <pt x="748" y="774" on="1"/>
        <pt x="772" y="758" on="0"/>
        <pt x="916" y="741" on="1"/>
        <pt x="742" y="483" on="0"/>
        <pt x="399" y="-30" on="1"/>
        <pt x="229" y="10" on="1"/>
        <pt x="447" y="307" on="0"/>
        <pt x="662" y="637" on="1"/>
        <pt x="709" y="710" on="0"/>
      </contour>
    </TTGlyph>
    <TTGlyph name="ordfeminine" xMin="78" yMin="348" xMax="494" yMax="765">
      <contour>
        <pt x="335" y="765" on="1"/>
        <pt x="415" y="765" on="0"/>
        <pt x="494" y="721" on="1"/>
        <pt x="494" y="716" on="0"/>
        <pt x="480" y="613" on="0"/>
        <pt x="476" y="594" on="1"/>
        <pt x="440" y="401" on="1"/>
        <pt x="435" y="372" on="0"/>
        <pt x="396" y="348" on="0"/>
        <pt x="350" y="348" on="0"/>
        <pt x="309" y="372" on="0"/>
        <pt x="309" y="397" on="1"/>
        <pt x="309" y="404" on="1"/>
        <pt x="309" y="407" on="0"/>
        <pt x="310" y="411" on="1"/>
        <pt x="266" y="359" on="0"/>
        <pt x="205" y="359" on="1"/>
        <pt x="152" y="359" on="0"/>
        <pt x="116" y="398" on="1"/>
        <pt x="78" y="440" on="0"/>
        <pt x="78" y="552" on="0"/>
        <pt x="118" y="645" on="0"/>
        <pt x="187" y="719" on="0"/>
        <pt x="281" y="765" on="0"/>
      </contour>
      <contour>
        <pt x="355" y="671" on="1"/>
        <pt x="339" y="675" on="0"/>
        <pt x="308" y="675" on="0"/>
        <pt x="275" y="654" on="0"/>
        <pt x="262" y="636" on="1"/>
        <pt x="231" y="594" on="0"/>
        <pt x="231" y="546" on="1"/>
        <pt x="231" y="465" on="0"/>
        <pt x="271" y="465" on="1"/>
        <pt x="294" y="465" on="0"/>
        <pt x="321" y="489" on="1"/>
      </contour>
    </TTGlyph>
    <TTGlyph name="ordmasculine" xMin="84" yMin="370" xMax="487" yMax="761">
      <contour>
        <pt x="244" y="622" on="0"/>
        <pt x="227" y="571" on="0"/>
        <pt x="227" y="503" on="0"/>
        <pt x="253" y="469" on="0"/>
        <pt x="289" y="469" on="0"/>
        <pt x="324" y="490" on="0"/>
        <pt x="338" y="509" on="1"/>
        <pt x="372" y="553" on="0"/>
        <pt x="372" y="610" on="1"/>
        <pt x="372" y="642" on="0"/>
        <pt x="344" y="680" on="0"/>
        <pt x="304" y="680" on="0"/>
        <pt x="271" y="659" on="0"/>
      </contour>
      <contour>
        <pt x="487" y="605" on="1"/>
        <pt x="487" y="566" on="0"/>
        <pt x="453" y="483" on="0"/>
        <pt x="402" y="429" on="0"/>
        <pt x="369" y="410" on="1"/>
        <pt x="300" y="370" on="0"/>
        <pt x="225" y="370" on="1"/>
        <pt x="126" y="370" on="0"/>
        <pt x="95" y="448" on="1"/>
        <pt x="84" y="476" on="0"/>
        <pt x="84" y="578" on="0"/>
        <pt x="126" y="670" on="0"/>
        <pt x="159" y="700" on="1"/>
        <pt x="224" y="761" on="0"/>
        <pt x="317" y="761" on="1"/>
        <pt x="388" y="761" on="0"/>
        <pt x="436" y="722" on="1"/>
        <pt x="487" y="679" on="0"/>
      </contour>
    </TTGlyph>
    <TTGlyph name="oslash" xMin="-1" yMin="-8" xMax="638" yMax="766">
      <contour>
        <pt x="419" y="766" on="1"/>
        <pt x="492" y="766" on="0"/>
        <pt x="532" y="713" on="1"/>
        <pt x="568" y="760" on="1"/>
        <pt x="621" y="721" on="1"/>
        <pt x="638" y="741" on="1"/>
        <pt x="563" y="645" on="1"/>
        <pt x="573" y="601" on="0"/>
        <pt x="573" y="470" on="0"/>
        <pt x="538" y="322" on="0"/>
        <pt x="478" y="198" on="0"/>
        <pt x="399" y="100" on="0"/>
        <pt x="356" y="66" on="1"/>
        <pt x="267" y="-4" on="0"/>
        <pt x="185" y="-4" on="1"/>
        <pt x="124" y="-4" on="0"/>
        <pt x="84" y="36" on="1"/>
        <pt x="50" y="-8" on="1"/>
        <pt x="-1" y="41" on="1"/>
        <pt x="48" y="98" on="1"/>
        <pt x="32" y="144" on="0"/>
        <pt x="32" y="263" on="0"/>
        <pt x="60" y="390" on="0"/>
        <pt x="110" y="515" on="0"/>
        <pt x="181" y="628" on="0"/>
        <pt x="224" y="672" on="1"/>
        <pt x="317" y="766" on="0"/>
      </contour>
      <contour>
        <pt x="201" y="185" on="1"/>
        <pt x="227" y="172" on="0"/>
        <pt x="282" y="172" on="0"/>
        <pt x="334" y="203" on="0"/>
        <pt x="378" y="252" on="0"/>
        <pt x="412" y="316" on="0"/>
        <pt x="424" y="348" on="1"/>
        <pt x="450" y="415" on="0"/>
        <pt x="450" y="468" on="1"/>
        <pt x="450" y="484" on="0"/>
        <pt x="447" y="496" on="1"/>
      </contour>
      <contour>
        <pt x="423" y="546" on="1"/>
        <pt x="397" y="590" on="0"/>
        <pt x="330" y="590" on="0"/>
        <pt x="265" y="529" on="0"/>
        <pt x="211" y="436" on="0"/>
        <pt x="177" y="326" on="0"/>
        <pt x="177" y="278" on="1"/>
        <pt x="177" y="264" on="0"/>
        <pt x="179" y="252" on="1"/>
      </contour>
    </TTGlyph>
    <TTGlyph name="otilde" xMin="82" yMin="-4" xMax="729" yMax="1005">
      <component glyphName="o" x="50" y="0" flags="0x1204"/>
      <component glyphName="tilde" x="268" y="772" flags="0x1004"/>
    </TTGlyph>
    <TTGlyph name="p" xMin="-3" yMin="-1" xMax="479" yMax="756">
      <contour>
        <pt x="-3" y="-1" on="1"/>
        <pt x="102" y="466" on="0"/>
        <pt x="141" y="723" on="1"/>
        <pt x="251" y="756" on="0"/>
        <pt x="361" y="756" on="0"/>
        <pt x="424" y="725" on="0"/>
        <pt x="444" y="699" on="1"/>
        <pt x="479" y="652" on="0"/>
        <pt x="479" y="563" on="1"/>
        <pt x="479" y="506" on="0"/>
        <pt x="437" y="399" on="0"/>
        <pt x="367" y="316" on="0"/>
        <pt x="275" y="267" on="0"/>
        <pt x="226" y="267" on="1"/>
        <pt x="215" y="267" on="1"/>
        <pt x="196" y="183" on="0"/>
        <pt x="174" y="34" on="1"/>
      </contour>
      <contour>
        <pt x="283" y="632" on="1"/>
        <pt x="257" y="487" on="0"/>
        <pt x="236" y="375" on="1"/>
        <pt x="272" y="384" on="0"/>
        <pt x="303" y="433" on="1"/>
        <pt x="337" y="487" on="0"/>
        <pt x="337" y="555" on="1"/>
        <pt x="337" y="593" on="0"/>
        <pt x="303" y="632" on="0"/>
      </contour>
    </TTGlyph>
    <TTGlyph name="paragraph" xMin="94" yMin="-1" xMax="525" yMax="756">
      <contour>
        <pt x="122" y="-1" on="1"/>
        <pt x="202" y="377" on="1"/>
        <pt x="146" y="394" on="0"/>
        <pt x="94" y="472" on="0"/>
        <pt x="94" y="561" on="0"/>
        <pt x="131" y="645" on="0"/>
        <pt x="166" y="679" on="1"/>
        <pt x="245" y="756" on="0"/>
        <pt x="364" y="756" on="1"/>
        <pt x="426" y="756" on="0"/>
        <pt x="525" y="723" on="1"/>
        <pt x="479" y="530" on="0"/>
        <pt x="408" y="162" on="0"/>
        <pt x="385" y="34" on="1"/>
        <pt x="278" y="23" on="1"/>
        <pt x="342" y="356" on="1"/>
        <pt x="306" y="356" on="1"/>
        <pt x="232" y="14" on="1"/>
      </contour>
    </TTGlyph>
    <TTGlyph name="parenleft" xMin="44" yMin="-140" xMax="491" yMax="898">
      <contour>
        <pt x="491" y="776" on="1"/>
        <pt x="212" y="541" on="0"/>
        <pt x="212" y="265" on="1"/>
        <pt x="212" y="176" on="0"/>
        <pt x="264" y="89" on="1"/>
        <pt x="310" y="11" on="0"/>
        <pt x="365" y="-18" on="1"/>
        <pt x="231" y="-140" on="1"/>
        <pt x="150" y="-99" on="0"/>
        <pt x="100" y="0" on="1"/>
        <pt x="44" y="110" on="0"/>
        <pt x="44" y="257" on="1"/>
        <pt x="44" y="533" on="0"/>
        <pt x="224" y="759" on="1"/>
        <pt x="283" y="834" on="0"/>
        <pt x="361" y="898" on="1"/>
      </contour>
    </TTGlyph>
    <TTGlyph name="parenright" xMin="-58" yMin="-140" xMax="401" yMax="898">
      <contour>
        <pt x="259" y="898" on="1"/>
        <pt x="401" y="738" on="0"/>
        <pt x="401" y="510" on="1"/>
        <pt x="401" y="389" on="0"/>
        <pt x="331" y="175" on="0"/>
        <pt x="223" y="4" on="0"/>
        <pt x="94" y="-115" on="0"/>
        <pt x="35" y="-140" on="1"/>
        <pt x="-58" y="2" on="1"/>
        <pt x="68" y="58" on="0"/>
        <pt x="142" y="204" on="1"/>
        <pt x="211" y="340" on="0"/>
        <pt x="211" y="492" on="1"/>
        <pt x="211" y="635" on="0"/>
        <pt x="148" y="726" on="1"/>
        <pt x="127" y="757" on="0"/>
        <pt x="98" y="778" on="1"/>
      </contour>
    </TTGlyph>
    <TTGlyph name="percent" xMin="84" yMin="-30" xMax="840" yMax="784">
      <contour>
        <pt x="582" y="419" on="1"/>
        <pt x="652" y="493" on="0"/>
        <pt x="727" y="493" on="1"/>
        <pt x="782" y="493" on="0"/>
        <pt x="813" y="446" on="1"/>
        <pt x="840" y="404" on="0"/>
        <pt x="840" y="281" on="0"/>
        <pt x="809" y="170" on="0"/>
        <pt x="750" y="79" on="0"/>
        <pt x="665" y="20" on="0"/>
        <pt x="576" y="20" on="0"/>
        <pt x="526" y="43" on="0"/>
        <pt x="510" y="62" on="1"/>
        <pt x="479" y="100" on="0"/>
        <pt x="479" y="165" on="1"/>
        <pt x="479" y="243" on="0"/>
        <pt x="518" y="323" on="1"/>
        <pt x="282" y="-30" on="1"/>
        <pt x="112" y="10" on="1"/>
        <pt x="141" y="42" on="0"/>
        <pt x="335" y="328" on="0"/>
        <pt x="424" y="459" on="0"/>
        <pt x="509" y="585" on="0"/>
        <pt x="544" y="637" on="1"/>
        <pt x="606" y="732" on="0"/>
        <pt x="631" y="774" on="1"/>
        <pt x="665" y="766" on="0"/>
        <pt x="695" y="760" on="1"/>
        <pt x="777" y="744" on="0"/>
        <pt x="799" y="741" on="1"/>
        <pt x="722" y="629" on="0"/>
      </contour>
      <contour>
        <pt x="355" y="370" on="0"/>
        <pt x="270" y="311" on="0"/>
        <pt x="181" y="311" on="0"/>
        <pt x="131" y="334" on="0"/>
        <pt x="115" y="354" on="1"/>
        <pt x="84" y="391" on="0"/>
        <pt x="84" y="508" on="0"/>
        <pt x="123" y="624" on="0"/>
        <pt x="191" y="721" on="0"/>
        <pt x="281" y="784" on="0"/>
        <pt x="332" y="784" on="1"/>
        <pt x="386" y="784" on="0"/>
        <pt x="417" y="736" on="1"/>
        <pt x="444" y="695" on="0"/>
        <pt x="444" y="572" on="0"/>
        <pt x="413" y="461" on="0"/>
      </contour>
      <contour>
        <pt x="602" y="193" on="1"/>
        <pt x="602" y="145" on="0"/>
        <pt x="639" y="145" on="1"/>
        <pt x="681" y="145" on="0"/>
        <pt x="712" y="187" on="1"/>
        <pt x="740" y="224" on="0"/>
        <pt x="740" y="258" on="1"/>
        <pt x="740" y="327" on="0"/>
        <pt x="692" y="327" on="1"/>
        <pt x="657" y="327" on="0"/>
        <pt x="629" y="280" on="1"/>
        <pt x="602" y="235" on="0"/>
      </contour>
      <contour>
        <pt x="207" y="484" on="1"/>
        <pt x="207" y="436" on="0"/>
        <pt x="244" y="436" on="1"/>
        <pt x="286" y="436" on="0"/>
        <pt x="318" y="478" on="1"/>
        <pt x="345" y="515" on="0"/>
        <pt x="345" y="549" on="1"/>
        <pt x="345" y="618" on="0"/>
        <pt x="297" y="618" on="1"/>
        <pt x="262" y="618" on="0"/>
        <pt x="234" y="571" on="1"/>
        <pt x="207" y="526" on="0"/>
      </contour>
    </TTGlyph>
    <TTGlyph name="period" xMin="-8" yMin="-24" xMax="213" yMax="174">
      <contour>
        <pt x="87" y="-24" on="1"/>
        <pt x="60" y="-24" on="0"/>
        <pt x="26" y="-7" on="0"/>
        <pt x="15" y="6" on="1"/>
        <pt x="-8" y="35" on="0"/>
        <pt x="-8" y="73" on="1"/>
        <pt x="-8" y="138" on="0"/>
        <pt x="49" y="165" on="1"/>
        <pt x="68" y="174" on="0"/>
        <pt x="94" y="174" on="1"/>
        <pt x="154" y="174" on="0"/>
        <pt x="213" y="118" on="0"/>
        <pt x="213" y="82" on="1"/>
        <pt x="213" y="39" on="0"/>
        <pt x="180" y="9" on="1"/>
        <pt x="143" y="-24" on="0"/>
      </contour>
    </TTGlyph>
    <TTGlyph name="periodcentered" xMin="103" yMin="287" xMax="324" yMax="485">
      <component glyphName="period" x="111" y="311" flags="0x1004"/>
    </TTGlyph>
    <TTGlyph name="perthousand" xMin="134" yMin="-30" xMax="890" yMax="784">
      <component glyphName="percent" x="50" y="0" flags="0x1204"/>
    </TTGlyph>
    <TTGlyph name="plus" xMin="51" yMin="115" xMax="358" yMax="526">
      <contour>
        <pt x="51" y="240" on="1"/>
        <pt x="58" y="334" on="0"/>
        <pt x="68" y="392" on="1"/>
        <pt x="79" y="392" on="1"/>
        <pt x="125" y="392" on="0"/>
        <pt x="162" y="397" on="1"/>
        <pt x="165" y="418" on="0"/>
        <pt x="172" y="455" on="0"/>
        <pt x="179" y="496" on="0"/>
        <pt x="183" y="515" on="1"/>
        <pt x="274" y="521" on="0"/>
        <pt x="307" y="526" on="1"/>
        <pt x="302" y="506" on="0"/>
        <pt x="292" y="461" on="0"/>
        <pt x="282" y="419" on="0"/>
        <pt x="277" y="398" on="1"/>
        <pt x="292" y="399" on="0"/>
        <pt x="320" y="403" on="0"/>
        <pt x="347" y="405" on="0"/>
        <pt x="358" y="407" on="1"/>
        <pt x="339" y="320" on="0"/>
        <pt x="325" y="239" on="1"/>
        <pt x="274" y="240" on="1"/>
        <pt x="259" y="240" on="0"/>
        <pt x="244" y="241" on="1"/>
        <pt x="241" y="185" on="0"/>
        <pt x="228" y="122" on="1"/>
        <pt x="106" y="115" on="1"/>
        <pt x="118" y="159" on="0"/>
        <pt x="133" y="240" on="1"/>
      </contour>
    </TTGlyph>
    <TTGlyph name="plusminus" xMin="12" yMin="42" xMax="385" yMax="535">
      <contour>
        <pt x="66" y="291" on="1"/>
        <pt x="74" y="382" on="0"/>
        <pt x="84" y="421" on="1"/>
        <pt x="98" y="420" on="1"/>
        <pt x="144" y="420" on="0"/>
        <pt x="182" y="425" on="1"/>
        <pt x="189" y="460" on="1"/>
        <pt x="192" y="475" on="0"/>
        <pt x="200" y="510" on="0"/>
        <pt x="203" y="526" on="1"/>
        <pt x="292" y="529" on="0"/>
        <pt x="332" y="535" on="1"/>
        <pt x="327" y="518" on="0"/>
        <pt x="322" y="499" on="1"/>
        <pt x="310" y="460" on="0"/>
        <pt x="301" y="425" on="1"/>
        <pt x="316" y="426" on="0"/>
        <pt x="345" y="430" on="0"/>
        <pt x="374" y="432" on="0"/>
        <pt x="385" y="434" on="1"/>
        <pt x="366" y="365" on="0"/>
        <pt x="351" y="290" on="1"/>
        <pt x="298" y="291" on="1"/>
        <pt x="282" y="291" on="0"/>
        <pt x="266" y="292" on="1"/>
        <pt x="263" y="242" on="0"/>
        <pt x="250" y="190" on="1"/>
        <pt x="126" y="188" on="1"/>
        <pt x="138" y="227" on="0"/>
        <pt x="144" y="256" on="1"/>
        <pt x="151" y="291" on="1"/>
      </contour>
      <contour>
        <pt x="156" y="44" on="1"/>
        <pt x="66" y="43" on="1"/>
        <pt x="12" y="43" on="1"/>
        <pt x="35" y="141" on="1"/>
        <pt x="65" y="140" on="0"/>
        <pt x="115" y="139" on="0"/>
        <pt x="140" y="139" on="1"/>
        <pt x="188" y="139" on="0"/>
        <pt x="258" y="139" on="0"/>
        <pt x="357" y="142" on="1"/>
        <pt x="349" y="42" on="1"/>
        <pt x="311" y="42" on="0"/>
        <pt x="276" y="43" on="1"/>
      </contour>
    </TTGlyph>
    <TTGlyph name="product" xMin="31" yMin="-2" xMax="582" yMax="758">
      <contour>
        <pt x="31" y="-2" on="1"/>
        <pt x="138" y="524" on="0"/>
        <pt x="161" y="748" on="1"/>
        <pt x="169" y="747" on="0"/>
        <pt x="178" y="747" on="1"/>
        <pt x="200" y="747" on="1"/>
        <pt x="283" y="747" on="0"/>
        <pt x="442" y="753" on="0"/>
        <pt x="544" y="756" on="0"/>
        <pt x="582" y="758" on="1"/>
        <pt x="533" y="598" on="0"/>
        <pt x="486" y="309" on="1"/>
        <pt x="463" y="179" on="0"/>
        <pt x="444" y="43" on="1"/>
        <pt x="284" y="25" on="1"/>
        <pt x="331" y="278" on="0"/>
        <pt x="369" y="470" on="0"/>
        <pt x="387" y="567" on="0"/>
        <pt x="401" y="641" on="0"/>
        <pt x="404" y="660" on="1"/>
        <pt x="310" y="656" on="1"/>
        <pt x="307" y="636" on="0"/>
        <pt x="293" y="562" on="0"/>
        <pt x="275" y="466" on="0"/>
        <pt x="253" y="358" on="0"/>
        <pt x="218" y="178" on="0"/>
        <pt x="189" y="31" on="1"/>
      </contour>
    </TTGlyph>
    <TTGlyph name="q" xMin="32" yMin="-49" xMax="583" yMax="766">
      <contour>
        <pt x="372" y="78" on="1"/>
        <pt x="276" y="-4" on="0"/>
        <pt x="185" y="-4" on="1"/>
        <pt x="116" y="-4" on="0"/>
        <pt x="76" y="46" on="1"/>
        <pt x="32" y="101" on="0"/>
        <pt x="32" y="206" on="1"/>
        <pt x="32" y="320" on="0"/>
        <pt x="85" y="452" on="1"/>
        <pt x="138" y="584" on="0"/>
        <pt x="224" y="672" on="1"/>
        <pt x="317" y="766" on="0"/>
        <pt x="419" y="766" on="1"/>
        <pt x="503" y="766" on="0"/>
        <pt x="542" y="698" on="1"/>
        <pt x="573" y="643" on="0"/>
        <pt x="573" y="554" on="1"/>
        <pt x="573" y="370" on="0"/>
        <pt x="485" y="217" on="1"/>
        <pt x="583" y="102" on="1"/>
        <pt x="560" y="73" on="0"/>
        <pt x="540" y="47" on="1"/>
        <pt x="496" y="-9" on="0"/>
        <pt x="462" y="-49" on="1"/>
        <pt x="441" y="-20" on="0"/>
        <pt x="419" y="10" on="1"/>
        <pt x="393" y="44" on="0"/>
      </contour>
      <contour>
        <pt x="401" y="316" on="1"/>
        <pt x="431" y="397" on="0"/>
        <pt x="431" y="551" on="0"/>
        <pt x="383" y="551" on="1"/>
        <pt x="322" y="551" on="0"/>
        <pt x="273" y="491" on="1"/>
        <pt x="234" y="443" on="0"/>
        <pt x="206" y="360" on="1"/>
        <pt x="184" y="292" on="0"/>
        <pt x="184" y="232" on="1"/>
        <pt x="184" y="192" on="0"/>
        <pt x="218" y="172" on="1"/>
        <pt x="228" y="165" on="0"/>
        <pt x="241" y="165" on="1"/>
        <pt x="276" y="165" on="0"/>
        <pt x="306" y="184" on="1"/>
        <pt x="265" y="252" on="1"/>
        <pt x="368" y="331" on="0"/>
        <pt x="379" y="342" on="1"/>
      </contour>
    </TTGlyph>
    <TTGlyph name="question" xMin="98" yMin="-24" xMax="524" yMax="748">
      <contour>
        <pt x="273" y="254" on="1"/>
        <pt x="153" y="242" on="1"/>
        <pt x="153" y="376" on="0"/>
        <pt x="258" y="476" on="1"/>
        <pt x="286" y="502" on="0"/>
        <pt x="333" y="544" on="0"/>
        <pt x="364" y="578" on="0"/>
        <pt x="364" y="600" on="0"/>
        <pt x="347" y="622" on="0"/>
        <pt x="328" y="622" on="1"/>
        <pt x="298" y="622" on="0"/>
        <pt x="228" y="571" on="1"/>
        <pt x="197" y="548" on="0"/>
        <pt x="166" y="520" on="1"/>
        <pt x="112" y="646" on="1"/>
        <pt x="164" y="693" on="0"/>
        <pt x="295" y="748" on="0"/>
        <pt x="362" y="748" on="1"/>
        <pt x="474" y="748" on="0"/>
        <pt x="511" y="677" on="1"/>
        <pt x="524" y="652" on="0"/>
        <pt x="524" y="566" on="0"/>
        <pt x="492" y="496" on="0"/>
        <pt x="443" y="442" on="0"/>
        <pt x="383" y="397" on="0"/>
        <pt x="356" y="374" on="1"/>
        <pt x="289" y="317" on="0"/>
      </contour>
      <contour>
        <pt x="266" y="-3" on="0"/>
        <pt x="212" y="-24" on="0"/>
        <pt x="137" y="-24" on="0"/>
        <pt x="98" y="27" on="0"/>
        <pt x="98" y="81" on="0"/>
        <pt x="113" y="121" on="0"/>
        <pt x="128" y="138" on="1"/>
        <pt x="160" y="174" on="0"/>
        <pt x="269" y="174" on="0"/>
        <pt x="322" y="125" on="0"/>
        <pt x="322" y="72" on="0"/>
        <pt x="303" y="31" on="0"/>
      </contour>
    </TTGlyph>
    <TTGlyph name="questiondown" xMin="-28" yMin="-21" xMax="399" yMax="751">
      <component glyphName="question" x="496" y="727" scale="-0.999877929688" flags="0x1004"/>
    </TTGlyph>
    <TTGlyph name="quotedbl" xMin="74" yMin="451" xMax="584" yMax="807">
      <contour>
        <pt x="345" y="802" on="1"/>
        <pt x="285" y="663" on="0"/>
        <pt x="218" y="470" on="1"/>
        <pt x="74" y="451" on="1"/>
        <pt x="92" y="519" on="0"/>
        <pt x="117" y="610" on="0"/>
        <pt x="133" y="669" on="0"/>
        <pt x="140" y="698" on="1"/>
        <pt x="155" y="751" on="0"/>
        <pt x="166" y="799" on="1"/>
        <pt x="175" y="798" on="0"/>
        <pt x="184" y="798" on="1"/>
        <pt x="200" y="798" on="1"/>
        <pt x="238" y="798" on="0"/>
        <pt x="305" y="802" on="0"/>
      </contour>
      <contour>
        <pt x="584" y="807" on="1"/>
        <pt x="538" y="682" on="0"/>
        <pt x="448" y="471" on="1"/>
        <pt x="292" y="461" on="1"/>
        <pt x="380" y="692" on="0"/>
        <pt x="410" y="791" on="1"/>
        <pt x="470" y="793" on="0"/>
        <pt x="558" y="804" on="0"/>
      </contour>
    </TTGlyph>
    <TTGlyph name="quotedblbase" xMin="-37" yMin="-245" xMax="473" yMax="111">
      <component glyphName="quotedbl" x="-111" y="-696" flags="0x1004"/>
    </TTGlyph>
    <TTGlyph name="quotedblleft" xMin="75" yMin="371" xMax="513" yMax="773">
      <contour>
        <pt x="513" y="771" on="1"/>
        <pt x="448" y="382" on="1"/>
        <pt x="365" y="382" on="1"/>
        <pt x="286" y="380" on="1"/>
        <pt x="291" y="411" on="0"/>
        <pt x="302" y="468" on="0"/>
        <pt x="313" y="527" on="0"/>
        <pt x="327" y="598" on="0"/>
        <pt x="334" y="638" on="1"/>
        <pt x="349" y="737" on="0"/>
        <pt x="354" y="771" on="1"/>
      </contour>
      <contour>
        <pt x="303" y="773" on="1"/>
        <pt x="229" y="380" on="1"/>
        <pt x="75" y="371" on="1"/>
        <pt x="109" y="564" on="1"/>
        <pt x="143" y="773" on="1"/>
      </contour>
    </TTGlyph>
    <TTGlyph name="quotedblright" xMin="82" yMin="402" xMax="521" yMax="802">
      <contour>
        <pt x="288" y="403" on="1"/>
        <pt x="367" y="793" on="1"/>
        <pt x="521" y="802" on="1"/>
        <pt x="447" y="403" on="1"/>
      </contour>
      <contour>
        <pt x="82" y="402" on="1"/>
        <pt x="143" y="793" on="1"/>
        <pt x="308" y="793" on="1"/>
        <pt x="236" y="418" on="1"/>
      </contour>
    </TTGlyph>
    <TTGlyph name="quoteleft" xMin="80" yMin="472" xMax="348" yMax="808">
      <contour>
        <pt x="159" y="797" on="1"/>
        <pt x="177" y="794" on="0"/>
        <pt x="204" y="794" on="1"/>
        <pt x="238" y="794" on="1"/>
        <pt x="275" y="794" on="0"/>
        <pt x="348" y="808" on="1"/>
        <pt x="248" y="489" on="1"/>
        <pt x="80" y="472" on="1"/>
        <pt x="123" y="640" on="0"/>
      </contour>
    </TTGlyph>
    <TTGlyph name="quoteright" xMin="75" yMin="481" xMax="349" yMax="803">
      <contour>
        <pt x="75" y="481" on="1"/>
        <pt x="163" y="767" on="0"/>
        <pt x="174" y="803" on="1"/>
        <pt x="257" y="801" on="1"/>
        <pt x="349" y="803" on="1"/>
        <pt x="325" y="732" on="0"/>
        <pt x="296" y="644" on="0"/>
        <pt x="287" y="617" on="1"/>
        <pt x="266" y="554" on="0"/>
        <pt x="245" y="491" on="1"/>
        <pt x="234" y="490" on="1"/>
        <pt x="221" y="490" on="0"/>
        <pt x="184" y="487" on="0"/>
        <pt x="139" y="485" on="0"/>
        <pt x="101" y="482" on="0"/>
        <pt x="88" y="482" on="1"/>
      </contour>
    </TTGlyph>
    <TTGlyph name="quotesinglbase" xMin="-7" yMin="-168" xMax="261" yMax="168">
      <component glyphName="quotesingle" x="-87" y="-640" flags="0x1004"/>
    </TTGlyph>
    <TTGlyph name="quotesingle" xMin="80" yMin="472" xMax="348" yMax="808">
      <contour>
        <pt x="159" y="797" on="1"/>
        <pt x="177" y="794" on="0"/>
        <pt x="204" y="794" on="1"/>
        <pt x="238" y="794" on="1"/>
        <pt x="275" y="794" on="0"/>
        <pt x="348" y="808" on="1"/>
        <pt x="248" y="489" on="1"/>
        <pt x="80" y="472" on="1"/>
        <pt x="123" y="640" on="0"/>
      </contour>
    </TTGlyph>
    <TTGlyph name="r" xMin="4" yMin="-1" xMax="525" yMax="749">
      <contour>
        <pt x="312" y="16" on="1"/>
        <pt x="235" y="269" on="0"/>
        <pt x="232" y="305" on="1"/>
        <pt x="219" y="301" on="1"/>
        <pt x="211" y="255" on="0"/>
        <pt x="179" y="91" on="0"/>
        <pt x="170" y="42" on="1"/>
        <pt x="4" y="-1" on="1"/>
        <pt x="108" y="502" on="0"/>
        <pt x="131" y="713" on="1"/>
        <pt x="247" y="749" on="0"/>
        <pt x="391" y="749" on="1"/>
        <pt x="499" y="749" on="0"/>
        <pt x="519" y="674" on="1"/>
        <pt x="525" y="651" on="0"/>
        <pt x="525" y="583" on="0"/>
        <pt x="497" y="504" on="0"/>
        <pt x="473" y="468" on="1"/>
        <pt x="423" y="395" on="0"/>
        <pt x="350" y="356" on="1"/>
        <pt x="389" y="272" on="0"/>
        <pt x="450" y="123" on="0"/>
        <pt x="471" y="72" on="1"/>
      </contour>
      <contour>
        <pt x="322" y="607" on="1"/>
        <pt x="278" y="606" on="1"/>
        <pt x="245" y="443" on="1"/>
        <pt x="285" y="447" on="0"/>
        <pt x="346" y="494" on="1"/>
        <pt x="409" y="542" on="0"/>
        <pt x="409" y="573" on="1"/>
        <pt x="409" y="602" on="0"/>
        <pt x="354" y="606" on="1"/>
        <pt x="338" y="607" on="0"/>
      </contour>
    </TTGlyph>
    <TTGlyph name="registered" xMin="67" yMin="130" xMax="611" yMax="773">
      <contour>
        <pt x="323" y="753" on="1"/>
        <pt x="375" y="773" on="0"/>
        <pt x="484" y="773" on="0"/>
        <pt x="549" y="740" on="0"/>
        <pt x="570" y="711" on="1"/>
        <pt x="611" y="654" on="0"/>
        <pt x="611" y="460" on="0"/>
        <pt x="543" y="302" on="0"/>
        <pt x="440" y="190" on="0"/>
        <pt x="316" y="130" on="0"/>
        <pt x="218" y="130" on="0"/>
        <pt x="147" y="152" on="0"/>
        <pt x="122" y="174" on="1"/>
        <pt x="67" y="223" on="0"/>
        <pt x="67" y="317" on="1"/>
        <pt x="67" y="420" on="0"/>
        <pt x="107" y="522" on="1"/>
        <pt x="175" y="696" on="0"/>
      </contour>
      <contour>
        <pt x="259" y="628" on="1"/>
        <pt x="329" y="642" on="0"/>
        <pt x="440" y="642" on="0"/>
        <pt x="482" y="632" on="0"/>
        <pt x="494" y="624" on="1"/>
        <pt x="515" y="610" on="0"/>
        <pt x="515" y="535" on="0"/>
        <pt x="449" y="456" on="0"/>
        <pt x="399" y="435" on="1"/>
        <pt x="420" y="380" on="0"/>
        <pt x="442" y="308" on="1"/>
        <pt x="486" y="360" on="0"/>
        <pt x="535" y="485" on="0"/>
        <pt x="535" y="571" on="0"/>
        <pt x="524" y="628" on="0"/>
        <pt x="513" y="649" on="1"/>
        <pt x="490" y="693" on="0"/>
        <pt x="444" y="693" on="1"/>
        <pt x="331" y="693" on="0"/>
      </contour>
      <contour>
        <pt x="176" y="247" on="1"/>
        <pt x="208" y="210" on="0"/>
        <pt x="253" y="210" on="1"/>
        <pt x="333" y="210" on="0"/>
        <pt x="399" y="265" on="1"/>
        <pt x="343" y="250" on="1"/>
        <pt x="312" y="370" on="0"/>
        <pt x="309" y="405" on="1"/>
        <pt x="292" y="402" on="1"/>
        <pt x="286" y="380" on="0"/>
        <pt x="265" y="290" on="0"/>
        <pt x="258" y="264" on="1"/>
      </contour>
      <contour>
        <pt x="233" y="601" on="1"/>
        <pt x="153" y="501" on="0"/>
        <pt x="153" y="330" on="1"/>
        <pt x="153" y="303" on="1"/>
        <pt x="153" y="291" on="0"/>
        <pt x="158" y="278" on="1"/>
        <pt x="207" y="460" on="0"/>
      </contour>
      <contour>
        <pt x="368" y="566" on="1"/>
        <pt x="332" y="565" on="1"/>
        <pt x="310" y="478" on="1"/>
        <pt x="336" y="480" on="0"/>
        <pt x="362" y="496" on="1"/>
        <pt x="412" y="524" on="0"/>
        <pt x="412" y="550" on="1"/>
        <pt x="412" y="566" on="0"/>
      </contour>
    </TTGlyph>
    <TTGlyph name="ring" xMin="102" yMin="0" xMax="336" yMax="231">
      <contour>
        <pt x="164" y="90" on="0"/>
        <pt x="192" y="54" on="0"/>
        <pt x="250" y="54" on="0"/>
        <pt x="284" y="94" on="0"/>
        <pt x="284" y="138" on="0"/>
        <pt x="254" y="171" on="0"/>
        <pt x="224" y="171" on="1"/>
        <pt x="194" y="171" on="0"/>
        <pt x="164" y="134" on="0"/>
      </contour>
      <contour>
        <pt x="210" y="0" on="1"/>
        <pt x="181" y="0" on="0"/>
        <pt x="142" y="19" on="0"/>
        <pt x="128" y="35" on="1"/>
        <pt x="102" y="66" on="0"/>
        <pt x="102" y="113" on="1"/>
        <pt x="102" y="191" on="0"/>
        <pt x="168" y="221" on="1"/>
        <pt x="191" y="231" on="0"/>
        <pt x="250" y="231" on="0"/>
        <pt x="293" y="213" on="0"/>
        <pt x="308" y="198" on="1"/>
        <pt x="336" y="170" on="0"/>
        <pt x="336" y="124" on="1"/>
        <pt x="336" y="75" on="0"/>
        <pt x="302" y="40" on="1"/>
        <pt x="265" y="0" on="0"/>
      </contour>
    </TTGlyph>
    <TTGlyph name="s" xMin="14" yMin="-2" xMax="529" yMax="748">
      <contour>
        <pt x="374" y="523" on="1"/>
        <pt x="379" y="543" on="0"/>
        <pt x="379" y="587" on="0"/>
        <pt x="357" y="614" on="0"/>
        <pt x="332" y="614" on="0"/>
        <pt x="308" y="602" on="0"/>
        <pt x="296" y="592" on="1"/>
        <pt x="268" y="569" on="0"/>
        <pt x="268" y="516" on="0"/>
        <pt x="296" y="483" on="0"/>
        <pt x="337" y="455" on="0"/>
        <pt x="385" y="425" on="0"/>
        <pt x="406" y="402" on="1"/>
        <pt x="454" y="346" on="0"/>
        <pt x="454" y="253" on="1"/>
        <pt x="454" y="141" on="0"/>
        <pt x="372" y="68" on="1"/>
        <pt x="294" y="-2" on="0"/>
        <pt x="175" y="-2" on="1"/>
        <pt x="87" y="-2" on="0"/>
        <pt x="14" y="90" on="1"/>
        <pt x="90" y="239" on="1"/>
        <pt x="104" y="211" on="0"/>
        <pt x="144" y="188" on="1"/>
        <pt x="184" y="164" on="0"/>
        <pt x="224" y="164" on="0"/>
        <pt x="251" y="172" on="0"/>
        <pt x="262" y="180" on="1"/>
        <pt x="287" y="198" on="0"/>
        <pt x="287" y="249" on="0"/>
        <pt x="255" y="291" on="0"/>
        <pt x="208" y="329" on="0"/>
        <pt x="153" y="368" on="0"/>
        <pt x="130" y="390" on="1"/>
        <pt x="74" y="440" on="0"/>
        <pt x="74" y="550" on="0"/>
        <pt x="137" y="642" on="0"/>
        <pt x="232" y="709" on="0"/>
        <pt x="345" y="748" on="0"/>
        <pt x="423" y="748" on="0"/>
        <pt x="472" y="734" on="0"/>
        <pt x="490" y="720" on="1"/>
        <pt x="529" y="688" on="0"/>
        <pt x="529" y="626" on="1"/>
        <pt x="529" y="611" on="0"/>
        <pt x="524" y="583" on="0"/>
        <pt x="522" y="566" on="1"/>
      </contour>
    </TTGlyph>
    <TTGlyph name="scaron" xMin="64" yMin="-2" xMax="623" yMax="1053">
      <component glyphName="s" x="50" y="0" flags="0x1204"/>
      <component glyphName="caron" x="184" y="772" flags="0x1004"/>
    </TTGlyph>
    <TTGlyph name="section" xMin="23" yMin="-18" xMax="539" yMax="778">
      <contour>
        <pt x="360" y="268" on="1"/>
        <pt x="387" y="210" on="0"/>
        <pt x="387" y="117" on="0"/>
        <pt x="354" y="51" on="0"/>
        <pt x="326" y="28" on="1"/>
        <pt x="268" y="-18" on="0"/>
        <pt x="183" y="-18" on="1"/>
        <pt x="99" y="-18" on="0"/>
        <pt x="23" y="43" on="1"/>
        <pt x="69" y="165" on="1"/>
        <pt x="91" y="142" on="0"/>
        <pt x="155" y="113" on="0"/>
        <pt x="200" y="113" on="0"/>
        <pt x="225" y="134" on="0"/>
        <pt x="225" y="172" on="0"/>
        <pt x="176" y="223" on="0"/>
        <pt x="116" y="280" on="0"/>
        <pt x="67" y="342" on="0"/>
        <pt x="67" y="373" on="1"/>
        <pt x="67" y="424" on="0"/>
        <pt x="135" y="508" on="0"/>
        <pt x="207" y="528" on="1"/>
        <pt x="174" y="577" on="0"/>
        <pt x="174" y="658" on="0"/>
        <pt x="215" y="716" on="0"/>
        <pt x="247" y="736" on="1"/>
        <pt x="314" y="778" on="0"/>
        <pt x="397" y="778" on="1"/>
        <pt x="494" y="778" on="0"/>
        <pt x="528" y="716" on="1"/>
        <pt x="539" y="694" on="0"/>
        <pt x="539" y="654" on="0"/>
        <pt x="535" y="634" on="0"/>
        <pt x="534" y="623" on="1"/>
        <pt x="406" y="614" on="1"/>
        <pt x="406" y="643" on="0"/>
        <pt x="382" y="665" on="0"/>
        <pt x="348" y="665" on="0"/>
        <pt x="315" y="640" on="0"/>
        <pt x="315" y="611" on="0"/>
        <pt x="339" y="590" on="0"/>
        <pt x="376" y="567" on="0"/>
        <pt x="419" y="540" on="0"/>
        <pt x="438" y="522" on="1"/>
        <pt x="480" y="481" on="0"/>
        <pt x="480" y="372" on="0"/>
        <pt x="411" y="294" on="0"/>
      </contour>
      <contour>
        <pt x="270" y="348" on="1"/>
        <pt x="310" y="360" on="0"/>
        <pt x="310" y="412" on="1"/>
        <pt x="310" y="430" on="0"/>
        <pt x="280" y="456" on="1"/>
        <pt x="263" y="454" on="0"/>
        <pt x="227" y="421" on="0"/>
        <pt x="227" y="382" on="0"/>
        <pt x="251" y="360" on="0"/>
      </contour>
    </TTGlyph>
    <TTGlyph name="semicolon" xMin="19" yMin="-27" xMax="297" yMax="570">
      <contour>
        <pt x="135" y="566" on="1"/>
        <pt x="197" y="566" on="1"/>
        <pt x="241" y="566" on="0"/>
        <pt x="297" y="570" on="1"/>
        <pt x="291" y="503" on="0"/>
        <pt x="267" y="378" on="0"/>
        <pt x="263" y="348" on="1"/>
        <pt x="245" y="347" on="0"/>
        <pt x="167" y="345" on="0"/>
        <pt x="128" y="344" on="0"/>
        <pt x="112" y="344" on="1"/>
        <pt x="100" y="344" on="1"/>
        <pt x="108" y="401" on="0"/>
        <pt x="126" y="511" on="0"/>
      </contour>
      <contour>
        <pt x="79" y="271" on="1"/>
        <pt x="132" y="270" on="1"/>
        <pt x="169" y="270" on="1"/>
        <pt x="192" y="270" on="0"/>
        <pt x="238" y="272" on="0"/>
        <pt x="264" y="273" on="1"/>
        <pt x="250" y="204" on="0"/>
        <pt x="197" y="30" on="0"/>
        <pt x="180" y="-27" on="1"/>
        <pt x="19" y="-27" on="1"/>
        <pt x="27" y="14" on="0"/>
        <pt x="46" y="99" on="0"/>
        <pt x="62" y="178" on="0"/>
        <pt x="76" y="246" on="0"/>
      </contour>
    </TTGlyph>
    <TTGlyph name="seven" xMin="30" yMin="9" xMax="473" yMax="758">
      <contour>
        <pt x="473" y="758" on="1"/>
        <pt x="213" y="26" on="1"/>
        <pt x="30" y="9" on="1"/>
        <pt x="233" y="569" on="1"/>
        <pt x="82" y="547" on="1"/>
        <pt x="114" y="727" on="1"/>
      </contour>
    </TTGlyph>
    <TTGlyph name="six" xMin="53" yMin="5" xMax="545" yMax="756">
      <contour>
        <pt x="404" y="512" on="1"/>
        <pt x="404" y="585" on="0"/>
        <pt x="367" y="585" on="1"/>
        <pt x="343" y="585" on="0"/>
        <pt x="311" y="530" on="1"/>
        <pt x="277" y="473" on="0"/>
        <pt x="258" y="392" on="1"/>
        <pt x="303" y="405" on="0"/>
        <pt x="385" y="405" on="0"/>
        <pt x="449" y="376" on="0"/>
        <pt x="471" y="352" on="1"/>
        <pt x="515" y="302" on="0"/>
        <pt x="515" y="229" on="1"/>
        <pt x="515" y="140" on="0"/>
        <pt x="454" y="76" on="1"/>
        <pt x="384" y="5" on="0"/>
        <pt x="267" y="5" on="1"/>
        <pt x="175" y="5" on="0"/>
        <pt x="117" y="68" on="1"/>
        <pt x="53" y="138" on="0"/>
        <pt x="53" y="384" on="0"/>
        <pt x="120" y="571" on="0"/>
        <pt x="221" y="695" on="0"/>
        <pt x="340" y="756" on="0"/>
        <pt x="430" y="756" on="0"/>
        <pt x="487" y="727" on="0"/>
        <pt x="506" y="703" on="1"/>
        <pt x="545" y="656" on="0"/>
        <pt x="545" y="579" on="1"/>
      </contour>
      <contour>
        <pt x="381" y="257" on="0"/>
        <pt x="346" y="282" on="0"/>
        <pt x="316" y="282" on="1"/>
        <pt x="271" y="282" on="0"/>
        <pt x="236" y="271" on="1"/>
        <pt x="235" y="265" on="0"/>
        <pt x="235" y="253" on="0"/>
        <pt x="235" y="247" on="1"/>
        <pt x="235" y="199" on="0"/>
        <pt x="265" y="159" on="0"/>
        <pt x="285" y="159" on="1"/>
        <pt x="324" y="159" on="0"/>
        <pt x="353" y="184" on="1"/>
        <pt x="381" y="209" on="0"/>
        <pt x="381" y="241" on="1"/>
      </contour>
    </TTGlyph>
    <TTGlyph name="slash" xMin="-11" yMin="-30" xMax="676" yMax="774">
      <contour>
        <pt x="508" y="774" on="1"/>
        <pt x="532" y="758" on="0"/>
        <pt x="676" y="741" on="1"/>
        <pt x="502" y="483" on="0"/>
        <pt x="159" y="-30" on="1"/>
        <pt x="-11" y="10" on="1"/>
        <pt x="207" y="307" on="0"/>
        <pt x="422" y="637" on="1"/>
        <pt x="469" y="710" on="0"/>
      </contour>
    </TTGlyph>
    <TTGlyph name="sterling" xMin="0" yMin="-2" xMax="482" yMax="750">
      <contour>
        <pt x="382" y="32" on="1"/>
        <pt x="331" y="33" on="1"/>
        <pt x="203" y="33" on="0"/>
        <pt x="77" y="14" on="1"/>
        <pt x="35" y="7" on="0"/>
        <pt x="0" y="-2" on="1"/>
        <pt x="5" y="39" on="0"/>
        <pt x="20" y="104" on="0"/>
        <pt x="26" y="131" on="1"/>
        <pt x="51" y="141" on="1"/>
        <pt x="81" y="149" on="0"/>
        <pt x="114" y="201" on="1"/>
        <pt x="146" y="250" on="0"/>
        <pt x="165" y="313" on="1"/>
        <pt x="154" y="312" on="0"/>
        <pt x="142" y="312" on="1"/>
        <pt x="95" y="312" on="1"/>
        <pt x="126" y="445" on="1"/>
        <pt x="135" y="444" on="0"/>
        <pt x="150" y="443" on="0"/>
        <pt x="156" y="443" on="1"/>
        <pt x="168" y="443" on="1"/>
        <pt x="148" y="521" on="0"/>
        <pt x="148" y="625" on="0"/>
        <pt x="182" y="691" on="0"/>
        <pt x="210" y="712" on="1"/>
        <pt x="263" y="750" on="0"/>
        <pt x="347" y="750" on="1"/>
        <pt x="424" y="750" on="0"/>
        <pt x="482" y="720" on="1"/>
        <pt x="461" y="639" on="0"/>
        <pt x="442" y="577" on="1"/>
        <pt x="399" y="600" on="0"/>
        <pt x="328" y="600" on="0"/>
        <pt x="292" y="572" on="0"/>
        <pt x="292" y="533" on="1"/>
        <pt x="292" y="516" on="0"/>
        <pt x="307" y="466" on="0"/>
        <pt x="311" y="443" on="1"/>
        <pt x="350" y="443" on="1"/>
        <pt x="370" y="443" on="0"/>
        <pt x="415" y="446" on="1"/>
        <pt x="398" y="311" on="1"/>
        <pt x="344" y="313" on="1"/>
        <pt x="328" y="313" on="0"/>
        <pt x="311" y="314" on="1"/>
        <pt x="311" y="246" on="0"/>
        <pt x="274" y="184" on="1"/>
        <pt x="261" y="161" on="0"/>
        <pt x="242" y="144" on="1"/>
        <pt x="257" y="145" on="0"/>
        <pt x="295" y="146" on="0"/>
        <pt x="315" y="147" on="1"/>
        <pt x="355" y="149" on="0"/>
        <pt x="387" y="149" on="1"/>
        <pt x="381" y="53" on="0"/>
        <pt x="381" y="42" on="1"/>
      </contour>
    </TTGlyph>
    <TTGlyph name="t" xMin="92" yMin="-1" xMax="488" yMax="746">
      <contour>
        <pt x="105" y="602" on="1"/>
        <pt x="110" y="733" on="1"/>
        <pt x="162" y="729" on="0"/>
        <pt x="215" y="729" on="1"/>
        <pt x="355" y="729" on="0"/>
        <pt x="488" y="746" on="1"/>
        <pt x="477" y="691" on="1"/>
        <pt x="472" y="668" on="0"/>
        <pt x="463" y="619" on="0"/>
        <pt x="459" y="601" on="1"/>
        <pt x="436" y="595" on="0"/>
        <pt x="390" y="590" on="0"/>
        <pt x="368" y="586" on="1"/>
        <pt x="350" y="509" on="0"/>
        <pt x="332" y="395" on="1"/>
        <pt x="292" y="143" on="0"/>
        <pt x="276" y="28" on="1"/>
        <pt x="92" y="-1" on="1"/>
        <pt x="173" y="379" on="0"/>
        <pt x="201" y="594" on="1"/>
        <pt x="177" y="597" on="0"/>
        <pt x="129" y="595" on="0"/>
      </contour>
    </TTGlyph>
    <TTGlyph name="thorn" xMin="1" yMin="-1" xMax="467" yMax="766">
      <contour>
        <pt x="1" y="-1" on="1"/>
        <pt x="105" y="486" on="0"/>
        <pt x="145" y="748" on="1"/>
        <pt x="188" y="753" on="0"/>
        <pt x="255" y="760" on="0"/>
        <pt x="309" y="766" on="0"/>
        <pt x="315" y="766" on="1"/>
        <pt x="294" y="664" on="1"/>
        <pt x="383" y="664" on="0"/>
        <pt x="428" y="605" on="1"/>
        <pt x="467" y="553" on="0"/>
        <pt x="467" y="466" on="1"/>
        <pt x="467" y="353" on="0"/>
        <pt x="388" y="264" on="1"/>
        <pt x="353" y="223" on="0"/>
        <pt x="262" y="175" on="0"/>
        <pt x="214" y="175" on="1"/>
        <pt x="203" y="175" on="1"/>
        <pt x="181" y="79" on="0"/>
        <pt x="178" y="34" on="1"/>
      </contour>
      <contour>
        <pt x="271" y="540" on="1"/>
        <pt x="245" y="395" on="0"/>
        <pt x="224" y="283" on="1"/>
        <pt x="260" y="292" on="0"/>
        <pt x="291" y="341" on="1"/>
        <pt x="325" y="395" on="0"/>
        <pt x="325" y="463" on="1"/>
        <pt x="325" y="501" on="0"/>
        <pt x="291" y="540" on="0"/>
      </contour>
    </TTGlyph>
    <TTGlyph name="three" xMin="10" yMin="-12" xMax="530" yMax="754">
      <contour>
        <pt x="199" y="188" on="1"/>
        <pt x="199" y="168" on="0"/>
        <pt x="219" y="150" on="0"/>
        <pt x="248" y="150" on="0"/>
        <pt x="279" y="163" on="0"/>
        <pt x="292" y="174" on="1"/>
        <pt x="324" y="200" on="0"/>
        <pt x="324" y="256" on="0"/>
        <pt x="276" y="297" on="0"/>
        <pt x="182" y="297" on="0"/>
        <pt x="104" y="286" on="0"/>
        <pt x="78" y="284" on="1"/>
        <pt x="96" y="435" on="1"/>
        <pt x="204" y="504" on="0"/>
        <pt x="280" y="565" on="1"/>
        <pt x="115" y="562" on="1"/>
        <pt x="127" y="738" on="1"/>
        <pt x="220" y="742" on="0"/>
        <pt x="334" y="747" on="0"/>
        <pt x="404" y="750" on="0"/>
        <pt x="435" y="752" on="1"/>
        <pt x="487" y="754" on="0"/>
        <pt x="530" y="754" on="1"/>
        <pt x="506" y="536" on="1"/>
        <pt x="301" y="428" on="1"/>
        <pt x="447" y="402" on="0"/>
        <pt x="482" y="316" on="1"/>
        <pt x="492" y="290" on="0"/>
        <pt x="492" y="215" on="0"/>
        <pt x="440" y="117" on="0"/>
        <pt x="353" y="38" on="0"/>
        <pt x="240" y="-12" on="0"/>
        <pt x="144" y="-12" on="0"/>
        <pt x="83" y="4" on="0"/>
        <pt x="60" y="21" on="1"/>
        <pt x="10" y="58" on="0"/>
        <pt x="10" y="126" on="1"/>
        <pt x="10" y="149" on="0"/>
        <pt x="19" y="178" on="1"/>
      </contour>
    </TTGlyph>
    <TTGlyph name="threequarters" xMin="65" yMin="-43" xMax="1165" yMax="774">
      <contour>
        <pt x="701" y="140" on="1"/>
        <pt x="860" y="506" on="1"/>
        <pt x="952" y="506" on="0"/>
        <pt x="1021" y="514" on="1"/>
        <pt x="962" y="403" on="0"/>
        <pt x="890" y="224" on="1"/>
        <pt x="888" y="213" on="0"/>
        <pt x="885" y="206" on="1"/>
        <pt x="957" y="206" on="1"/>
        <pt x="958" y="211" on="0"/>
        <pt x="964" y="235" on="0"/>
        <pt x="972" y="268" on="0"/>
        <pt x="981" y="306" on="0"/>
        <pt x="997" y="370" on="0"/>
        <pt x="1010" y="424" on="1"/>
        <pt x="1063" y="430" on="0"/>
        <pt x="1142" y="437" on="0"/>
        <pt x="1163" y="439" on="1"/>
        <pt x="1161" y="428" on="0"/>
        <pt x="1145" y="361" on="0"/>
        <pt x="1127" y="285" on="0"/>
        <pt x="1111" y="218" on="0"/>
        <pt x="1109" y="206" on="1"/>
        <pt x="1165" y="206" on="1"/>
        <pt x="1124" y="83" on="1"/>
        <pt x="1073" y="83" on="1"/>
        <pt x="1064" y="-18" on="1"/>
        <pt x="898" y="-43" on="1"/>
        <pt x="918" y="81" on="1"/>
        <pt x="746" y="70" on="1"/>
      </contour>
      <contour>
        <pt x="237" y="306" on="1"/>
        <pt x="237" y="276" on="0"/>
        <pt x="260" y="276" on="1"/>
        <pt x="280" y="276" on="0"/>
        <pt x="294" y="290" on="1"/>
        <pt x="321" y="317" on="0"/>
        <pt x="321" y="360" on="0"/>
        <pt x="277" y="392" on="0"/>
        <pt x="191" y="392" on="0"/>
        <pt x="120" y="384" on="0"/>
        <pt x="97" y="382" on="1"/>
        <pt x="113" y="502" on="1"/>
        <pt x="175" y="535" on="0"/>
        <pt x="321" y="625" on="1"/>
        <pt x="130" y="622" on="1"/>
        <pt x="141" y="742" on="1"/>
        <pt x="219" y="745" on="0"/>
        <pt x="314" y="749" on="0"/>
        <pt x="373" y="751" on="0"/>
        <pt x="398" y="752" on="1"/>
        <pt x="449" y="754" on="0"/>
        <pt x="478" y="754" on="1"/>
        <pt x="456" y="582" on="1"/>
        <pt x="300" y="496" on="1"/>
        <pt x="427" y="476" on="0"/>
        <pt x="457" y="404" on="1"/>
        <pt x="466" y="382" on="0"/>
        <pt x="466" y="322" on="0"/>
        <pt x="424" y="246" on="0"/>
        <pt x="388" y="216" on="1"/>
        <pt x="308" y="146" on="0"/>
        <pt x="209" y="146" on="1"/>
        <pt x="146" y="146" on="0"/>
        <pt x="65" y="197" on="0"/>
        <pt x="65" y="257" on="1"/>
        <pt x="65" y="278" on="0"/>
        <pt x="73" y="298" on="1"/>
      </contour>
      <contour>
        <pt x="812" y="774" on="1"/>
        <pt x="836" y="758" on="0"/>
        <pt x="980" y="741" on="1"/>
        <pt x="806" y="483" on="0"/>
        <pt x="463" y="-30" on="1"/>
        <pt x="293" y="10" on="1"/>
        <pt x="511" y="307" on="0"/>
        <pt x="726" y="637" on="1"/>
        <pt x="773" y="710" on="0"/>
      </contour>
    </TTGlyph>
    <TTGlyph name="tilde" xMin="9" yMin="3" xMax="461" yMax="233">
      <contour>
        <pt x="406" y="233" on="1"/>
        <pt x="452" y="198" on="0"/>
        <pt x="461" y="188" on="1"/>
        <pt x="401" y="52" on="0"/>
        <pt x="321" y="18" on="1"/>
        <pt x="303" y="11" on="0"/>
        <pt x="258" y="11" on="0"/>
        <pt x="232" y="33" on="0"/>
        <pt x="212" y="59" on="0"/>
        <pt x="190" y="81" on="0"/>
        <pt x="154" y="81" on="0"/>
        <pt x="125" y="63" on="0"/>
        <pt x="99" y="39" on="0"/>
        <pt x="75" y="12" on="0"/>
        <pt x="64" y="3" on="1"/>
        <pt x="51" y="12" on="0"/>
        <pt x="32" y="28" on="0"/>
        <pt x="15" y="41" on="0"/>
        <pt x="9" y="48" on="1"/>
        <pt x="16" y="62" on="1"/>
        <pt x="70" y="175" on="0"/>
        <pt x="138" y="216" on="1"/>
        <pt x="160" y="229" on="0"/>
        <pt x="211" y="229" on="0"/>
        <pt x="249" y="201" on="0"/>
        <pt x="277" y="168" on="0"/>
        <pt x="295" y="141" on="0"/>
        <pt x="300" y="141" on="1"/>
        <pt x="331" y="141" on="0"/>
        <pt x="383" y="208" on="1"/>
        <pt x="395" y="224" on="0"/>
      </contour>
    </TTGlyph>
    <TTGlyph name="trademark" xMin="116" yMin="245" xMax="1064" yMax="773">
      <contour>
        <pt x="362" y="245" on="1"/>
        <pt x="502" y="568" on="0"/>
        <pt x="554" y="728" on="1"/>
        <pt x="612" y="728" on="0"/>
        <pt x="714" y="736" on="0"/>
        <pt x="772" y="740" on="1"/>
        <pt x="760" y="676" on="0"/>
        <pt x="724" y="519" on="1"/>
        <pt x="733" y="519" on="1"/>
        <pt x="763" y="582" on="0"/>
        <pt x="840" y="716" on="0"/>
        <pt x="857" y="741" on="1"/>
        <pt x="908" y="749" on="0"/>
        <pt x="1012" y="762" on="0"/>
        <pt x="1064" y="773" on="1"/>
        <pt x="1012" y="661" on="0"/>
        <pt x="981" y="462" on="1"/>
        <pt x="966" y="371" on="0"/>
        <pt x="958" y="277" on="1"/>
        <pt x="776" y="257" on="1"/>
        <pt x="776" y="265" on="0"/>
        <pt x="830" y="490" on="1"/>
        <pt x="821" y="490" on="1"/>
        <pt x="719" y="259" on="1"/>
        <pt x="686" y="258" on="0"/>
        <pt x="619" y="257" on="0"/>
        <pt x="587" y="255" on="1"/>
        <pt x="621" y="490" on="1"/>
        <pt x="613" y="490" on="1"/>
        <pt x="608" y="471" on="0"/>
        <pt x="578" y="393" on="0"/>
        <pt x="558" y="339" on="0"/>
        <pt x="549" y="316" on="1"/>
        <pt x="528" y="264" on="0"/>
        <pt x="526" y="262" on="1"/>
      </contour>
      <contour>
        <pt x="128" y="658" on="1"/>
        <pt x="128" y="661" on="0"/>
        <pt x="133" y="746" on="1"/>
        <pt x="182" y="743" on="0"/>
        <pt x="232" y="743" on="1"/>
        <pt x="352" y="743" on="0"/>
        <pt x="488" y="754" on="1"/>
        <pt x="479" y="718" on="1"/>
        <pt x="475" y="703" on="0"/>
        <pt x="466" y="669" on="0"/>
        <pt x="462" y="657" on="1"/>
        <pt x="441" y="652" on="0"/>
        <pt x="397" y="649" on="0"/>
        <pt x="376" y="646" on="1"/>
        <pt x="340" y="532" on="0"/>
        <pt x="289" y="268" on="1"/>
        <pt x="116" y="249" on="1"/>
        <pt x="192" y="511" on="0"/>
        <pt x="219" y="652" on="1"/>
        <pt x="196" y="654" on="0"/>
        <pt x="151" y="653" on="0"/>
      </contour>
    </TTGlyph>
    <TTGlyph name="two" xMin="1" yMin="9" xMax="551" yMax="746">
      <contour>
        <pt x="92" y="459" on="1"/>
        <pt x="90" y="475" on="0"/>
        <pt x="90" y="492" on="1"/>
        <pt x="90" y="606" on="0"/>
        <pt x="174" y="680" on="1"/>
        <pt x="251" y="746" on="0"/>
        <pt x="354" y="746" on="1"/>
        <pt x="438" y="746" on="0"/>
        <pt x="491" y="697" on="1"/>
        <pt x="551" y="641" on="0"/>
        <pt x="551" y="542" on="1"/>
        <pt x="551" y="360" on="0"/>
        <pt x="199" y="172" on="1"/>
        <pt x="257" y="172" on="0"/>
        <pt x="404" y="183" on="0"/>
        <pt x="458" y="187" on="1"/>
        <pt x="441" y="39" on="1"/>
        <pt x="402" y="36" on="0"/>
        <pt x="343" y="32" on="1"/>
        <pt x="234" y="26" on="0"/>
        <pt x="91" y="15" on="0"/>
        <pt x="1" y="9" on="1"/>
        <pt x="18" y="138" on="1"/>
        <pt x="27" y="212" on="0"/>
        <pt x="200" y="342" on="1"/>
        <pt x="308" y="423" on="0"/>
        <pt x="371" y="489" on="0"/>
        <pt x="371" y="540" on="0"/>
        <pt x="347" y="573" on="0"/>
        <pt x="312" y="573" on="0"/>
        <pt x="287" y="558" on="0"/>
        <pt x="280" y="546" on="1"/>
        <pt x="267" y="524" on="0"/>
        <pt x="267" y="491" on="1"/>
        <pt x="267" y="480" on="1"/>
        <pt x="267" y="477" on="0"/>
        <pt x="268" y="476" on="1"/>
        <pt x="267" y="476" on="0"/>
      </contour>
    </TTGlyph>
    <TTGlyph name="u" xMin="32" yMin="-18" xMax="531" yMax="744">
      <contour>
        <pt x="136" y="728" on="1"/>
        <pt x="158" y="730" on="0"/>
        <pt x="217" y="736" on="0"/>
        <pt x="274" y="741" on="0"/>
        <pt x="305" y="744" on="1"/>
        <pt x="279" y="621" on="0"/>
        <pt x="249" y="477" on="0"/>
        <pt x="231" y="391" on="0"/>
        <pt x="224" y="355" on="1"/>
        <pt x="208" y="279" on="0"/>
        <pt x="203" y="256" on="1"/>
        <pt x="188" y="187" on="0"/>
        <pt x="188" y="147" on="0"/>
        <pt x="205" y="126" on="0"/>
        <pt x="234" y="126" on="0"/>
        <pt x="257" y="154" on="0"/>
        <pt x="272" y="192" on="0"/>
        <pt x="280" y="232" on="0"/>
        <pt x="289" y="273" on="0"/>
        <pt x="304" y="346" on="0"/>
        <pt x="319" y="425" on="0"/>
        <pt x="327" y="466" on="1"/>
        <pt x="348" y="571" on="0"/>
        <pt x="376" y="732" on="1"/>
        <pt x="531" y="742" on="1"/>
        <pt x="526" y="716" on="1"/>
        <pt x="514" y="653" on="0"/>
        <pt x="485" y="488" on="0"/>
        <pt x="473" y="428" on="1"/>
        <pt x="442" y="272" on="0"/>
        <pt x="412" y="141" on="0"/>
        <pt x="359" y="59" on="0"/>
        <pt x="324" y="32" on="1"/>
        <pt x="257" y="-18" on="0"/>
        <pt x="169" y="-18" on="1"/>
        <pt x="115" y="-18" on="0"/>
        <pt x="76" y="12" on="1"/>
        <pt x="32" y="48" on="0"/>
        <pt x="32" y="107" on="1"/>
        <pt x="32" y="111" on="0"/>
        <pt x="32" y="119" on="0"/>
        <pt x="37" y="165" on="0"/>
        <pt x="55" y="284" on="0"/>
        <pt x="76" y="413" on="0"/>
        <pt x="100" y="543" on="0"/>
        <pt x="110" y="596" on="1"/>
        <pt x="132" y="710" on="0"/>
      </contour>
    </TTGlyph>
    <TTGlyph name="uacute" xMin="82" yMin="-18" xMax="593" yMax="1133">
      <component glyphName="u" x="50" y="0" flags="0x1204"/>
      <component glyphName="acute" x="248" y="773" flags="0x1004"/>
    </TTGlyph>
    <TTGlyph name="ucircumflex" xMin="82" yMin="-18" xMax="581" yMax="1052">
      <component glyphName="u" x="50" y="0" flags="0x1204"/>
      <component glyphName="circumflex" x="181" y="773" flags="0x1004"/>
    </TTGlyph>
    <TTGlyph name="udieresis" xMin="82" yMin="-18" xMax="634" yMax="957">
      <component glyphName="u" x="50" y="0" flags="0x1204"/>
      <component glyphName="dieresis" x="14" y="773" flags="0x1004"/>
    </TTGlyph>
    <TTGlyph name="ugrave" xMin="82" yMin="-18" xMax="581" yMax="1103">
      <component glyphName="u" x="50" y="0" flags="0x1204"/>
      <component glyphName="grave" x="181" y="773" flags="0x1004"/>
    </TTGlyph>
    <TTGlyph name="underscore" xMin="-54" yMin="-112" xMax="399" yMax="4">
      <contour>
        <pt x="-54" y="-111" on="1"/>
        <pt x="-42" y="-81" on="0"/>
        <pt x="-31" y="3" on="1"/>
        <pt x="110" y="0" on="0"/>
        <pt x="140" y="0" on="1"/>
        <pt x="192" y="0" on="1"/>
        <pt x="295" y="0" on="0"/>
        <pt x="399" y="4" on="1"/>
        <pt x="383" y="-43" on="0"/>
        <pt x="377" y="-112" on="1"/>
        <pt x="139" y="-109" on="1"/>
        <pt x="42" y="-109" on="0"/>
      </contour>
    </TTGlyph>
    <TTGlyph name="uni00AD" xMin="91" yMin="244" xMax="458" yMax="427">
      <component glyphName="hyphen" x="49" y="0" flags="0x1204"/>
    </TTGlyph>
</ttFont>
